<?xml version="1.0" ?><svg height="316px" preserveAspectRatio="none" viewBox="0 0 94.0 316" width="94.0px" xmlns="http://www.w3.org/2000/svg" xmlns:xlink="http://www.w3.org/1999/xlink"><g id="s20-20" transform="translate(20, 20)"><g transform="translate(-0.0, -0.0)"><style>.cl0 {
    opacity: 0.75
    }
.cl1 {
    fill: #fff
    }</style><g id="uid_1"><g id="uid_2"><g id="uid_3"><path d="M11 15h12v28H11z"/><path class="cl1" d="M13 13h12v28H13z"/></g><g id="uid_4"><path d="M27 15h12v28H27z"/><path class="cl1" d="M29 13h12v28H29z"/></g></g></g></g></g><g id="s20-94" transform="translate(20, 94)"><g transform="translate(-0.0, -0.0)"><path d="M16 43V15l22 14z" opacity=".8"/><path d="M18 41V13l22 14z" fill="#fff"/></g></g><g id="s20-168" transform="translate(20, 168)"><g transform="translate(-0.0, -0.0)"><style>.cl2 {
    opacity: 0.75
    }
.cl3 {
    fill: #fff
    }</style><g id="uid_6"><g id="uid_7"><g id="uid_8"><path d="M29 15h10v28H29z"/><path class="cl3" d="M31 13h10v28H31z"/></g><g id="uid_9"><path d="M11 43V15l16 14z"/><path class="cl3" d="M13 41V13l16 14z"/></g></g></g></g></g><g id="s20-242" transform="translate(20, 242)"><g transform="translate(-0.0, -0.0)"><path d="M33.5 14.9L25 23.3l-8.5-8.4-5.6 5.6 8.4 8.5-8.4 8.5 5.6 5.6 8.5-8.4 8.5 8.4 5.6-5.6-8.4-8.5 8.4-8.5z" opacity=".8"/><path d="M35.5 12.9L27 21.3l-8.5-8.4-5.6 5.6 8.4 8.5-8.4 8.5 5.6 5.6 8.5-8.4 8.5 8.4 5.6-5.6-8.4-8.5 8.4-8.5z" fill="#fff"/></g></g></svg>