<svg xmlns="http://www.w3.org/2000/svg" viewBox="0 0 65 73.09"><defs><style>.cls-1{fill:#c56101;}.cls-2{fill:#a45200;}</style></defs><title>control_repeat</title><path class="cls-1" d="M48.8 11.2a3.34 3.34 0 1 0-.88 6.61 11.81 11.81 0 0 1-1.58 23.51h-27.68a11.81 11.81 0 0 1 0-23.62h9.67l-5.33 5.35a3.34 3.34 0 0 0 4.72 4.72l11-11a3.34 3.34 0 0 0-.05-4.95l-10.97-10.82a3.34 3.34 0 0 0-4.7 4.69l5.33 5.31h-9.67a18.48 18.48 0 0 0 0 37h27.68a18.48 18.48 0 0 0 2.46-36.8z"/><path class="cls-2" d="M18.66 42.66h27.68a11.82 11.82 0 0 0 11.81-11.81v-.7a11.81 11.81 0 0 1-11.81 11.18h-27.68a11.81 11.81 0 0 1-11.77-11.14v.67a11.82 11.82 0 0 0 11.77 11.8zM22.08 26.08a3.32 3.32 0 0 1 .92-1.69l5.33-5.39v-1.29l-1.33 1.29-4 4a3.33 3.33 0 0 0-.92 3.08zM48.8 12.54a18.52 18.52 0 0 1 16 17.62v-.64a18.53 18.53 0 0 0-16-18.32 3.3 3.3 0 0 0-3.7 4 3.33 3.33 0 0 1 3.7-2.66zM18.66 12.37h9.67v-1.37h-9.67a18.5 18.5 0 0 0-18.48 18.52v.67a18.49 18.49 0 0 1 18.48-17.82zM23 2.31a3.34 3.34 0 0 1 4.72 0l10.9 10.9a3.33 3.33 0 0 1 1.03 1.79 3.32 3.32 0 0 0-1.05-3.17l-10.9-10.83a3.33 3.33 0 0 0-5.62 3 3.32 3.32 0 0 1 .92-1.69z"/></svg>