<?xml version="1.0" encoding="UTF-8" ?>
<!DOCTYPE svg PUBLIC "-//W3C//DTD SVG 1.1//EN" "http://www.w3.org/Graphics/SVG/1.1/DTD/svg11.dtd">
<svg width="1406pt" height="688pt" viewBox="0 0 1406 688" version="1.1" xmlns="http://www.w3.org/2000/svg">
<g id="#98e9e0ff">
<path fill="#98e9e0" opacity="1.00" d=" M 0.00 0.00 L 1406.00 0.00 L 1406.00 688.00 L 0.00 688.00 L 0.00 0.00 M 54.54 47.12 L 54.19 46.95 C 53.87 51.62 53.89 56.32 54.19 60.99 C 58.72 63.34 63.26 65.72 68.05 67.49 C 72.58 65.20 77.50 63.58 81.71 60.76 C 82.58 56.41 82.59 51.64 81.71 47.30 C 77.66 44.18 72.68 42.52 67.97 40.64 C 63.44 42.68 58.56 44.12 54.54 47.12 M 156.67 60.61 C 154.45 61.81 151.67 62.54 150.44 64.97 C 150.12 64.86 149.50 64.64 149.18 64.53 C 148.93 71.33 148.53 78.18 149.43 84.95 C 144.62 87.94 139.47 90.30 134.24 92.46 C 134.41 92.87 134.76 93.69 134.93 94.10 C 134.48 94.03 133.57 93.89 133.11 93.82 C 133.18 100.36 132.78 106.93 133.31 113.46 C 139.98 116.23 146.25 119.83 152.82 122.80 C 153.41 116.22 152.68 109.61 153.10 103.02 L 153.74 103.35 C 153.99 109.85 153.64 116.36 153.98 122.86 C 160.86 120.46 167.16 116.74 173.73 113.65 C 174.20 106.51 173.25 99.29 174.16 92.21 C 179.17 89.24 185.33 87.80 189.54 83.65 C 189.85 77.25 189.77 70.82 189.62 64.42 C 184.13 61.48 178.51 58.81 172.94 56.02 C 171.42 55.37 169.72 54.35 168.05 55.15 C 164.12 56.67 160.52 58.90 156.67 60.61 M 1340.75 68.71 C 1336.84 70.65 1332.59 72.16 1329.29 75.10 C 1329.13 75.25 1328.81 75.54 1328.65 75.69 C 1328.03 80.05 1328.46 84.49 1328.87 88.86 C 1328.15 88.20 1327.46 87.52 1326.82 86.82 C 1321.58 89.01 1316.56 91.70 1311.71 94.63 C 1310.89 103.27 1311.50 111.99 1311.41 120.67 C 1319.88 124.88 1328.22 129.43 1336.92 133.13 C 1337.43 124.47 1337.36 115.76 1336.96 107.09 C 1337.16 107.32 1337.57 107.79 1337.77 108.02 C 1338.26 116.40 1337.55 124.82 1338.07 133.21 C 1346.83 129.47 1355.14 124.78 1363.71 120.64 C 1364.08 113.46 1363.77 106.28 1363.89 99.10 C 1363.66 97.49 1364.21 95.38 1362.75 94.24 C 1360.48 92.49 1357.82 91.38 1355.35 89.98 C 1357.69 85.32 1356.86 79.79 1356.32 74.82 C 1353.34 72.94 1350.05 71.64 1346.99 69.93 C 1345.03 69.03 1342.88 67.32 1340.75 68.71 M 1031.16 90.88 C 1031.04 93.46 1031.08 96.04 1031.27 98.61 C 1033.69 99.78 1036.16 100.84 1038.69 101.78 C 1038.70 99.25 1038.68 96.73 1038.64 94.21 C 1036.21 92.94 1033.72 91.81 1031.16 90.88 M 438.95 96.03 C 434.72 98.55 429.70 99.64 425.91 102.89 L 425.47 102.71 C 425.90 109.24 425.16 115.81 425.68 122.31 C 431.71 126.13 438.38 128.86 444.75 132.07 C 445.56 125.45 445.10 118.77 445.10 112.12 L 445.79 112.45 C 446.17 119.01 445.52 125.58 446.09 132.13 C 449.65 131.47 452.49 129.10 455.75 127.68 C 459.00 125.97 462.62 124.92 465.65 122.81 C 466.15 116.02 465.90 109.18 465.73 102.38 C 459.59 99.62 453.71 96.35 447.61 93.54 C 444.42 91.92 441.63 94.73 438.95 96.03 M 1059.53 99.57 C 1058.53 103.80 1058.37 108.52 1059.45 112.68 C 1063.40 115.26 1067.95 116.77 1072.03 119.13 C 1076.42 117.37 1080.83 115.45 1084.69 112.70 C 1085.28 108.18 1085.87 103.15 1084.33 98.80 C 1080.29 96.81 1076.43 94.08 1072.04 93.05 C 1067.39 94.03 1063.28 96.76 1059.53 99.57 M 183.58 100.66 C 182.76 105.26 183.18 109.93 183.28 114.57 C 187.82 116.80 192.32 119.15 197.06 120.96 L 197.07 119.94 C 197.33 120.13 197.84 120.51 198.10 120.70 C 202.40 118.98 206.56 116.83 210.61 114.57 C 211.61 110.05 211.77 104.87 210.52 100.42 C 206.24 97.89 201.60 96.02 197.10 93.92 C 192.56 96.10 188.05 98.35 183.58 100.66 M 1108.70 100.62 C 1103.25 103.49 1097.63 106.04 1092.27 109.08 C 1091.76 116.34 1092.02 123.62 1092.12 130.89 C 1096.37 133.40 1100.88 135.44 1105.29 137.68 C 1108.08 139.06 1110.80 140.76 1113.92 141.34 L 1113.94 141.86 C 1120.87 138.45 1127.87 135.17 1134.69 131.54 C 1136.36 130.72 1135.58 128.49 1135.86 127.03 C 1135.67 121.11 1136.11 115.17 1135.63 109.27 C 1129.21 105.55 1122.56 102.11 1115.71 99.26 C 1113.28 98.02 1110.85 99.59 1108.70 100.62 M 105.68 107.70 C 100.03 110.71 94.05 113.11 88.63 116.55 C 88.17 123.22 88.27 129.95 88.49 136.63 C 94.93 140.58 102.09 143.46 108.78 147.06 C 115.36 143.51 122.44 140.79 128.61 136.56 C 129.34 130.10 128.95 123.51 128.95 117.01 C 125.43 113.93 120.59 112.81 116.69 110.23 C 113.39 108.50 109.44 105.50 105.68 107.70 M 61.64 138.62 C 59.39 140.03 56.30 140.41 54.79 142.78 L 54.05 142.50 C 53.99 147.22 53.91 151.94 54.22 156.65 C 58.83 158.73 63.32 161.10 68.02 162.97 C 72.73 161.19 77.26 158.96 81.65 156.52 C 82.82 152.24 82.25 147.49 81.98 143.06 C 78.92 139.76 74.30 138.54 70.37 136.58 C 67.33 134.76 64.37 137.43 61.64 138.62 M 1160.68 142.64 C 1150.93 147.64 1140.97 152.27 1131.37 157.53 C 1130.16 164.83 1130.75 172.37 1130.97 179.75 C 1129.02 178.75 1126.64 178.28 1124.77 179.69 C 1118.90 183.25 1112.25 185.30 1106.56 189.16 L 1106.19 188.98 C 1106.09 196.18 1105.44 203.48 1106.46 210.62 C 1113.29 214.87 1120.96 217.62 1127.83 221.84 L 1127.83 221.29 C 1132.14 220.14 1135.79 217.46 1139.89 215.78 C 1143.11 214.10 1146.54 212.71 1149.60 210.74 C 1150.11 207.46 1149.85 204.12 1149.83 200.81 C 1154.75 202.70 1159.22 205.57 1164.16 207.45 L 1164.17 208.12 C 1175.58 203.14 1186.36 196.83 1197.71 191.70 C 1198.21 181.47 1197.78 171.23 1197.95 160.99 C 1197.86 159.44 1198.26 157.24 1196.32 156.70 C 1186.38 151.57 1176.27 146.74 1166.32 141.64 C 1164.41 140.36 1162.41 141.85 1160.68 142.64 M 1327.38 163.82 C 1323.42 166.09 1320.61 170.34 1320.56 174.98 C 1320.57 181.65 1319.47 188.26 1319.53 194.93 C 1319.60 199.67 1318.37 204.31 1318.47 209.06 C 1317.57 225.48 1316.15 241.85 1315.30 258.29 C 1314.92 258.29 1314.16 258.28 1313.78 258.28 C 1311.54 255.44 1308.50 253.44 1305.78 251.14 C 1301.42 247.77 1297.25 244.15 1292.73 240.99 C 1274.65 225.41 1255.61 210.96 1237.28 195.67 C 1231.22 189.51 1219.60 192.41 1216.04 199.86 C 1214.15 214.13 1214.09 228.62 1212.41 242.93 C 1212.41 253.68 1210.59 264.30 1210.31 275.03 C 1209.43 282.23 1209.67 289.49 1208.52 296.66 C 1208.89 302.58 1205.83 310.03 1210.85 314.68 C 1212.87 318.14 1214.86 321.63 1217.03 325.01 C 1219.13 327.52 1222.77 326.89 1225.56 326.17 C 1228.34 325.21 1231.38 324.31 1233.21 321.83 C 1234.35 321.32 1234.84 320.11 1235.61 319.20 C 1236.76 313.82 1236.38 308.29 1237.22 302.87 C 1238.85 277.74 1240.81 252.63 1242.51 227.51 C 1255.66 238.73 1269.22 249.51 1282.47 260.63 C 1296.44 271.76 1309.87 283.58 1323.97 294.54 C 1328.45 297.59 1334.04 296.02 1338.41 293.58 C 1339.47 292.16 1341.00 290.93 1341.46 289.15 C 1342.16 286.83 1342.43 284.42 1342.46 282.00 C 1344.41 250.66 1346.44 219.32 1348.40 187.98 C 1348.33 184.29 1349.43 180.20 1347.29 176.89 C 1345.04 173.40 1343.50 169.44 1340.69 166.33 C 1340.75 164.92 1339.86 163.75 1339.27 162.56 C 1335.26 161.04 1331.23 162.62 1327.38 163.82 M 380.27 170.29 C 372.45 174.62 364.00 177.76 356.49 182.63 C 356.02 186.98 355.96 191.40 356.39 195.77 C 360.09 198.64 364.75 200.15 369.05 201.98 C 368.78 197.41 370.58 191.98 367.87 188.00 C 368.38 188.17 369.39 188.52 369.90 188.70 C 370.21 193.15 369.94 197.62 370.15 202.08 C 378.30 199.16 385.46 193.96 393.74 191.40 C 394.20 186.46 394.11 181.48 393.68 176.54 C 389.05 174.78 385.00 171.81 380.27 170.29 M 135.79 205.45 C 136.80 210.25 136.34 215.17 136.43 220.04 C 136.54 221.59 136.14 223.14 135.10 224.32 C 130.56 224.76 125.98 224.32 121.43 224.41 C 118.82 231.11 121.83 238.65 119.38 245.46 C 118.27 245.56 117.17 245.67 116.06 245.78 C 111.82 245.93 107.52 245.29 103.34 246.26 C 103.36 257.03 103.33 267.80 103.34 278.58 C 99.82 278.58 96.29 278.57 92.77 278.60 C 92.70 284.68 92.81 290.76 92.65 296.84 L 91.31 296.71 C 91.43 297.06 91.68 297.76 91.80 298.11 C 85.96 303.04 83.36 310.41 80.04 317.04 C 77.53 321.77 76.46 327.06 74.96 332.15 C 72.82 338.22 73.75 344.74 73.50 351.05 C 73.29 354.33 75.25 357.14 75.83 360.28 C 76.87 365.34 80.45 369.25 83.54 373.18 L 83.76 373.26 C 86.01 376.67 88.37 380.02 90.73 383.36 C 93.43 387.45 98.19 389.33 102.40 391.46 C 102.54 391.62 102.81 391.94 102.95 392.10 C 107.77 393.67 112.97 393.81 117.99 394.38 C 127.19 393.37 136.51 391.95 144.92 387.85 C 151.56 385.77 157.36 381.96 163.03 378.05 C 167.04 375.63 171.08 372.98 173.81 369.09 C 178.05 365.96 181.79 362.14 185.08 358.04 C 188.85 352.49 193.39 347.38 196.14 341.20 C 198.66 335.58 202.00 330.21 202.82 323.99 C 205.84 316.66 205.39 308.74 205.47 301.00 C 203.86 293.30 200.56 286.05 195.55 279.96 C 195.44 278.71 194.84 277.71 193.73 276.95 C 193.56 275.75 192.69 274.81 192.08 273.83 C 189.06 269.81 186.33 265.28 181.67 262.97 C 178.89 267.40 181.25 273.01 180.17 277.93 C 180.56 267.47 180.33 256.98 180.22 246.52 C 173.65 246.06 167.04 246.78 160.50 245.82 L 161.50 245.26 C 161.36 239.48 161.52 233.71 161.38 227.94 C 161.12 227.33 160.61 226.11 160.35 225.51 C 154.79 225.47 149.23 225.64 143.68 225.47 C 143.38 225.19 142.78 224.61 142.47 224.33 C 142.19 219.04 142.56 213.73 142.28 208.43 C 147.87 206.74 153.89 208.01 159.66 207.68 C 159.96 206.36 160.15 205.02 160.25 203.67 C 160.07 203.14 159.71 202.09 159.53 201.56 C 152.72 201.76 145.91 201.47 139.11 201.63 C 137.20 201.58 135.30 203.51 135.79 205.45 M 953.97 221.00 C 951.14 222.57 947.79 223.43 945.64 225.99 L 945.05 225.73 C 944.66 232.17 944.74 238.65 944.88 245.10 C 950.77 249.05 957.60 251.60 963.92 254.91 C 964.60 248.31 964.28 241.68 964.18 235.06 L 964.86 235.41 C 965.12 242.22 964.61 249.04 965.10 255.85 C 970.94 252.12 977.52 249.82 983.60 246.54 C 985.12 246.01 984.71 244.18 984.88 242.95 C 984.80 237.96 984.88 232.97 984.80 227.99 C 985.09 224.80 981.45 223.87 979.28 222.60 C 974.44 220.54 970.01 217.55 965.02 215.89 C 960.98 216.70 957.63 219.28 953.97 221.00 M 1104.87 277.94 C 1100.86 282.65 1098.44 288.44 1095.55 293.85 C 1087.12 309.56 1078.87 325.35 1070.24 340.94 C 1058.86 362.04 1047.80 383.31 1036.47 404.42 C 1035.85 406.71 1036.45 409.09 1036.71 411.40 C 1036.90 411.40 1037.29 411.39 1037.48 411.38 C 1041.04 415.99 1042.74 422.30 1047.89 425.48 C 1052.19 424.94 1056.74 424.20 1060.08 421.15 C 1063.07 418.22 1064.66 414.29 1066.67 410.70 C 1069.28 405.97 1071.65 401.09 1074.54 396.52 C 1102.13 388.90 1129.62 380.89 1157.24 373.34 L 1156.53 372.14 C 1157.43 373.65 1158.39 375.15 1159.31 376.66 C 1162.58 381.10 1164.60 386.45 1168.49 390.41 C 1173.00 391.93 1177.39 389.52 1181.43 387.79 C 1183.72 385.86 1185.95 383.20 1185.49 379.99 C 1183.53 375.15 1180.83 370.64 1177.86 366.37 C 1177.66 365.03 1176.84 363.91 1176.19 362.78 C 1172.20 356.03 1168.67 348.94 1164.30 342.45 C 1162.97 337.70 1159.64 333.83 1157.55 329.40 C 1153.50 322.90 1150.41 315.77 1145.73 309.70 C 1145.67 309.45 1145.55 308.94 1145.49 308.69 L 1145.13 308.41 C 1142.21 301.75 1138.22 295.62 1134.68 289.29 C 1131.39 284.52 1129.39 278.89 1125.30 274.70 L 1125.17 274.14 C 1124.26 273.37 1123.45 272.21 1122.11 272.35 C 1115.92 271.88 1109.78 274.29 1104.87 277.94 M 895.90 374.96 C 890.55 379.76 892.33 387.56 890.91 393.86 C 887.93 427.06 884.53 460.21 881.40 493.40 L 881.64 493.31 C 884.46 497.76 887.27 502.21 890.13 506.64 C 923.63 497.51 957.01 487.93 990.47 478.63 C 993.80 477.32 998.01 476.82 1000.13 473.58 L 1001.26 473.85 C 1002.27 471.05 1003.64 467.76 1002.02 464.92 C 999.93 461.35 997.52 457.98 995.50 454.37 C 995.31 452.24 992.89 450.71 991.23 449.52 C 981.22 450.60 971.71 454.26 961.98 456.69 C 945.50 461.35 929.04 466.17 912.45 470.42 C 914.83 444.64 917.19 418.84 919.68 393.06 C 919.81 390.48 919.90 387.69 918.26 385.53 C 916.02 382.19 914.14 378.60 911.65 375.43 C 911.56 374.55 911.46 373.68 911.34 372.82 C 906.30 370.09 900.43 372.26 895.90 374.96 M 314.06 377.31 C 295.24 382.88 276.31 388.08 257.54 393.81 C 255.20 394.52 252.36 394.16 250.63 396.21 C 246.48 428.53 241.33 460.72 237.09 493.03 C 236.05 499.17 234.76 505.47 236.00 511.70 L 236.81 511.63 C 240.07 515.65 242.26 520.54 245.93 524.21 C 250.10 526.13 254.74 523.59 258.53 521.77 C 259.21 521.12 259.90 520.50 260.60 519.89 C 261.94 518.19 262.84 516.20 263.21 514.07 C 265.52 499.32 267.19 484.45 269.64 469.73 C 280.23 466.85 290.81 463.89 301.27 460.58 C 306.62 463.89 311.05 468.48 315.92 472.45 C 323.23 478.71 330.67 484.82 337.95 491.11 C 340.55 493.23 342.94 495.69 345.99 497.19 C 349.34 496.99 352.57 496.11 355.43 494.32 C 358.24 492.08 361.74 489.10 360.54 485.04 C 357.99 480.94 355.17 477.00 352.49 472.98 L 352.85 472.35 C 345.53 465.15 336.82 459.62 329.16 452.85 C 333.53 451.19 337.97 449.56 341.88 446.94 C 349.87 442.89 356.31 436.37 362.33 429.86 C 364.57 425.80 368.27 422.23 368.79 417.46 C 371.54 411.70 372.28 404.95 370.19 398.88 C 367.91 394.87 365.38 390.99 362.60 387.32 C 361.28 384.24 360.04 380.66 356.97 378.90 C 354.38 377.32 352.26 374.63 349.06 374.34 C 337.36 371.62 325.39 374.17 314.06 377.31 M 761.74 415.68 C 747.58 432.91 734.33 450.89 720.10 468.05 C 706.72 456.79 694.65 444.08 681.53 432.54 C 676.07 429.48 669.18 432.91 665.83 437.69 C 663.63 439.92 664.04 443.81 666.51 445.67 C 669.68 451.47 672.99 457.55 678.29 461.71 C 681.61 464.56 684.68 467.73 688.34 470.18 L 688.27 470.56 C 695.36 476.57 702.04 483.03 708.81 489.39 C 707.66 500.62 706.38 511.83 705.26 523.07 C 704.58 527.86 703.53 532.89 705.20 537.62 L 705.75 537.62 C 708.95 541.69 711.07 546.60 714.53 550.43 C 719.55 553.03 725.55 549.58 729.70 546.56 C 732.25 543.30 732.28 539.03 732.72 535.11 C 733.90 525.78 734.70 516.41 735.77 507.07 C 736.47 501.76 736.47 496.34 737.89 491.14 C 741.56 487.97 744.12 483.81 747.20 480.12 C 762.11 461.73 776.94 443.26 791.73 424.78 C 792.97 423.16 794.20 420.91 793.06 418.91 C 790.72 414.80 788.03 410.89 785.62 406.82 C 785.14 403.06 780.20 401.86 776.97 402.47 C 769.94 403.99 765.82 410.34 761.74 415.68 M 524.96 427.28 C 517.70 427.95 511.03 431.16 503.87 432.32 C 494.18 435.29 484.41 438.00 474.67 440.79 C 474.40 449.32 472.57 457.69 471.79 466.16 C 470.04 479.11 468.38 492.07 466.93 505.05 C 464.41 523.21 462.00 541.43 460.16 559.66 L 460.59 559.13 C 463.43 563.37 466.23 567.64 469.07 571.88 C 483.62 567.87 498.16 563.79 512.66 559.60 C 521.42 556.31 530.53 553.61 538.32 548.24 C 547.05 544.29 553.66 537.25 561.20 531.55 C 565.01 527.92 568.17 523.68 571.91 519.97 C 575.08 517.01 577.20 513.22 579.20 509.43 C 582.02 503.77 585.92 498.47 586.88 492.08 C 588.15 485.19 591.41 478.35 590.00 471.23 C 590.04 466.58 590.72 461.25 587.56 457.39 C 585.39 454.20 583.55 450.81 581.41 447.61 C 580.17 444.23 577.72 441.24 575.95 438.07 C 561.91 426.82 542.38 422.60 524.96 427.28 M 1230.45 557.15 C 1233.59 558.96 1236.83 560.61 1240.16 562.10 C 1243.60 561.04 1246.83 559.39 1249.87 557.45 C 1246.63 557.05 1243.38 556.58 1240.12 556.77 C 1236.90 557.06 1233.67 557.09 1230.45 557.15 M 239.72 570.72 C 234.57 573.28 229.27 575.58 224.46 578.75 C 223.08 582.33 223.87 586.24 223.70 589.98 C 223.83 593.24 223.30 596.61 224.14 599.80 C 230.88 603.60 237.91 606.92 244.90 610.26 C 252.09 607.15 259.09 603.57 265.99 599.86 C 266.25 592.68 266.43 585.46 265.80 578.30 C 259.55 575.74 253.72 572.33 247.64 569.44 C 245.00 568.01 242.18 569.74 239.72 570.72 M 282.68 603.67 C 282.50 607.22 282.02 610.84 282.63 614.37 C 285.70 616.90 289.53 618.28 293.10 619.93 C 293.40 616.27 293.43 612.61 293.32 608.95 L 294.07 609.31 C 294.05 613.13 293.94 616.94 294.20 620.76 C 297.76 619.19 301.21 617.39 304.69 615.64 C 304.85 611.87 305.26 608.04 304.64 604.30 C 301.39 601.52 297.28 599.30 293.03 598.71 C 289.39 599.93 286.13 602.03 282.68 603.67 M 1285.06 601.92 C 1284.73 605.60 1284.44 609.31 1284.87 613.00 C 1288.24 615.93 1292.72 617.35 1296.74 619.24 C 1296.94 615.32 1296.97 611.40 1296.74 607.49 C 1292.85 605.62 1289.14 603.37 1285.06 601.92 M 143.19 611.45 C 135.41 615.42 127.21 618.61 119.58 622.90 C 119.14 627.47 119.33 632.07 119.39 636.66 C 123.83 638.98 128.41 641.01 132.93 643.16 C 139.29 641.25 144.83 637.47 150.87 634.82 C 152.96 633.63 155.52 632.87 157.05 630.95 C 157.99 626.47 157.94 621.77 156.71 617.36 C 152.12 615.59 148.01 612.41 143.19 611.45 M 1328.35 615.50 C 1321.28 618.81 1314.08 622.02 1307.40 626.05 L 1308.40 626.71 L 1306.78 626.56 C 1306.73 633.64 1306.13 640.84 1306.98 647.87 C 1313.75 651.67 1320.76 655.16 1327.89 658.27 C 1328.28 651.14 1328.00 644.00 1328.17 636.88 C 1329.21 637.90 1328.58 639.67 1328.87 641.01 C 1328.95 646.68 1328.52 652.37 1329.16 658.03 C 1335.05 656.54 1340.19 653.19 1345.60 650.56 C 1347.32 649.35 1350.31 648.66 1350.14 646.07 C 1350.37 639.40 1351.46 632.50 1350.07 625.95 C 1346.84 624.03 1343.23 622.84 1339.98 620.97 C 1336.14 619.08 1332.54 616.50 1328.35 615.50 M 1206.32 628.03 C 1206.28 631.86 1206.32 635.69 1206.36 639.52 C 1210.12 641.47 1213.92 643.39 1217.89 644.94 C 1218.17 641.62 1218.29 638.27 1217.85 634.97 C 1217.89 633.86 1217.42 633.10 1216.44 632.69 C 1213.20 630.88 1209.97 628.90 1206.32 628.03 M 237.41 634.82 C 236.31 638.67 236.67 642.71 237.29 646.61 C 240.79 648.13 244.21 649.84 247.78 651.19 C 251.45 649.76 255.19 648.44 258.64 646.54 C 259.90 642.72 259.64 638.26 258.71 634.36 C 255.65 631.99 251.91 630.10 248.14 629.23 C 244.32 630.56 240.70 632.47 237.41 634.82 Z" />
<path fill="#98e9e0" opacity="1.00" d=" M 1120.31 307.15 C 1122.07 307.31 1122.42 309.22 1123.20 310.48 C 1129.71 322.72 1136.76 334.67 1143.40 346.83 C 1142.32 347.47 1141.28 348.22 1140.01 348.35 C 1132.38 349.81 1125.16 352.81 1117.56 354.37 C 1112.72 355.79 1107.98 357.58 1103.01 358.46 C 1099.75 359.20 1096.41 359.69 1093.08 359.26 C 1102.32 341.97 1111.17 324.49 1120.31 307.15 Z" />
<path fill="#98e9e0" opacity="1.00" d=" M 110.18 319.92 C 114.88 319.75 119.58 319.69 124.28 319.76 C 124.35 330.16 124.32 340.56 124.28 350.97 C 126.14 350.97 128.00 350.98 129.87 350.99 C 129.82 340.58 129.83 330.17 129.86 319.76 C 137.63 319.75 145.41 319.69 153.18 319.89 C 153.30 330.30 153.26 340.70 153.21 351.10 C 154.90 351.11 156.59 351.12 158.29 351.08 C 156.21 351.40 154.09 351.42 152.04 351.94 C 147.92 353.91 144.70 357.39 140.49 359.22 C 135.11 361.46 129.84 364.25 123.99 365.03 C 116.58 366.22 108.22 366.64 101.80 362.07 C 100.96 355.96 101.59 349.81 101.88 343.69 C 103.26 338.83 104.05 333.76 106.21 329.16 C 107.59 326.10 108.99 323.05 110.18 319.92 Z" />
<path fill="#98e9e0" opacity="1.00" d=" M 324.06 403.82 C 330.31 402.06 336.85 400.27 343.37 401.55 L 343.67 401.58 C 342.08 406.87 340.17 412.37 335.97 416.18 C 330.72 421.89 323.52 425.58 315.94 427.02 C 302.22 431.78 287.90 434.51 274.26 439.54 L 274.28 438.97 C 274.43 431.71 276.08 424.61 276.82 417.40 C 292.56 412.86 308.31 408.33 324.06 403.82 Z" />
<path fill="#98e9e0" opacity="1.00" d=" M 500.85 462.72 C 517.03 458.69 533.16 451.48 550.18 453.70 C 554.00 454.49 557.89 455.42 561.19 457.62 C 563.25 461.68 562.46 466.58 562.12 470.95 C 560.35 476.31 560.29 482.19 557.50 487.20 C 556.23 489.64 555.00 492.11 553.84 494.61 C 551.72 499.23 547.94 502.74 544.92 506.74 C 541.20 511.73 536.09 515.34 531.42 519.34 C 519.93 528.04 505.88 532.26 492.12 535.81 C 492.29 529.86 493.43 524.02 494.05 518.13 C 496.26 499.65 498.81 481.21 500.85 462.72 Z" />
</g>
<g id="#b0f8edff">
<path fill="#b0f8ed" opacity="1.00" d=" M 54.54 47.12 C 58.56 44.12 63.44 42.68 67.97 40.64 C 72.68 42.52 77.66 44.18 81.71 47.30 C 82.59 51.64 82.58 56.41 81.71 60.76 C 77.50 63.58 72.58 65.20 68.05 67.49 C 68.14 62.98 68.14 58.47 68.00 53.96 C 63.52 51.68 59.04 49.37 54.54 47.12 Z" />
<path fill="#b0f8ed" opacity="1.00" d=" M 156.67 60.61 C 160.52 58.90 164.12 56.67 168.05 55.15 C 169.72 54.35 171.42 55.37 172.94 56.02 C 178.51 58.81 184.13 61.48 189.62 64.42 C 189.77 70.82 189.85 77.25 189.54 83.65 C 185.33 87.80 179.17 89.24 174.16 92.21 C 173.25 99.29 174.20 106.51 173.73 113.65 C 167.16 116.74 160.86 120.46 153.98 122.86 C 153.64 116.36 153.99 109.85 153.74 103.35 L 153.10 103.02 C 147.08 99.98 141.03 96.98 134.93 94.10 C 134.76 93.69 134.41 92.87 134.24 92.46 C 139.47 90.30 144.62 87.94 149.43 84.95 C 156.16 87.52 162.33 91.28 168.97 94.03 C 169.27 88.00 169.44 81.94 169.14 75.91 C 169.30 73.51 166.68 72.83 165.02 71.88 C 160.10 69.70 155.48 66.88 150.44 64.97 C 151.67 62.54 154.45 61.81 156.67 60.61 Z" />
<path fill="#b0f8ed" opacity="1.00" d=" M 1340.75 68.71 C 1342.88 67.32 1345.03 69.03 1346.99 69.93 C 1350.05 71.64 1353.34 72.94 1356.32 74.82 C 1356.86 79.79 1357.69 85.32 1355.35 89.98 C 1357.82 91.38 1360.48 92.49 1362.75 94.24 C 1364.21 95.38 1363.66 97.49 1363.89 99.10 C 1363.77 106.28 1364.08 113.46 1363.71 120.64 C 1355.14 124.78 1346.83 129.47 1338.07 133.21 C 1337.55 124.82 1338.26 116.40 1337.77 108.02 C 1337.57 107.79 1337.16 107.32 1336.96 107.09 C 1328.53 102.96 1320.22 98.59 1311.71 94.63 C 1316.56 91.70 1321.58 89.01 1326.82 86.82 C 1327.46 87.52 1328.15 88.20 1328.87 88.86 C 1333.18 91.30 1337.71 93.34 1342.24 95.33 C 1342.32 90.81 1342.32 86.29 1342.46 81.77 C 1338.19 79.30 1333.75 77.17 1329.29 75.10 C 1332.59 72.16 1336.84 70.65 1340.75 68.71 Z" />
<path fill="#b0f8ed" opacity="1.00" d=" M 438.95 96.03 C 441.63 94.73 444.42 91.92 447.61 93.54 C 453.71 96.35 459.59 99.62 465.73 102.38 C 465.90 109.18 466.15 116.02 465.65 122.81 C 462.62 124.92 459.00 125.97 455.75 127.68 C 452.49 129.10 449.65 131.47 446.09 132.13 C 445.52 125.58 446.17 119.01 445.79 112.45 L 445.10 112.12 C 438.63 109.19 432.47 105.62 425.91 102.89 C 429.70 99.64 434.72 98.55 438.95 96.03 Z" />
<path fill="#b0f8ed" opacity="1.00" d=" M 1059.53 99.57 C 1063.28 96.76 1067.39 94.03 1072.04 93.05 C 1076.43 94.08 1080.29 96.81 1084.33 98.80 C 1085.87 103.15 1085.28 108.18 1084.69 112.70 C 1080.83 115.45 1076.42 117.37 1072.03 119.13 C 1071.81 114.80 1072.19 110.44 1071.73 106.12 C 1067.97 103.41 1063.51 101.90 1059.53 99.57 Z" />
<path fill="#b0f8ed" opacity="1.00" d=" M 183.58 100.66 C 188.05 98.35 192.56 96.10 197.10 93.92 C 201.60 96.02 206.24 97.89 210.52 100.42 C 211.77 104.87 211.61 110.05 210.61 114.57 C 206.56 116.83 202.40 118.98 198.10 120.70 C 197.84 120.51 197.33 120.13 197.07 119.94 C 197.13 115.67 197.19 111.40 196.93 107.13 C 192.52 104.89 188.09 102.68 183.58 100.66 Z" />
<path fill="#b0f8ed" opacity="1.00" d=" M 1108.70 100.62 C 1110.85 99.59 1113.28 98.02 1115.71 99.26 C 1122.56 102.11 1129.21 105.55 1135.63 109.27 C 1136.11 115.17 1135.67 121.11 1135.86 127.03 C 1135.58 128.49 1136.36 130.72 1134.69 131.54 C 1127.87 135.17 1120.87 138.45 1113.94 141.86 L 1113.92 141.34 C 1113.59 134.57 1113.94 127.80 1113.70 121.04 C 1113.86 119.67 1112.09 119.42 1111.31 118.73 C 1105.01 115.42 1098.54 112.45 1092.27 109.08 C 1097.63 106.04 1103.25 103.49 1108.70 100.62 Z" />
<path fill="#b0f8ed" opacity="1.00" d=" M 105.68 107.70 C 109.44 105.50 113.39 108.50 116.69 110.23 C 120.59 112.81 125.43 113.93 128.95 117.01 C 128.95 123.51 129.34 130.10 128.61 136.56 C 122.44 140.79 115.36 143.51 108.78 147.06 C 108.76 140.20 108.89 133.34 108.70 126.48 C 102.01 123.16 95.35 119.79 88.63 116.55 C 94.05 113.11 100.03 110.71 105.68 107.70 Z" />
<path fill="#b0f8ed" opacity="1.00" d=" M 61.64 138.62 C 64.37 137.43 67.33 134.76 70.37 136.58 C 74.30 138.54 78.92 139.76 81.98 143.06 C 82.25 147.49 82.82 152.24 81.65 156.52 C 77.26 158.96 72.73 161.19 68.02 162.97 C 68.13 158.33 68.12 153.69 67.93 149.05 C 63.58 146.90 59.33 144.53 54.79 142.78 C 56.30 140.41 59.39 140.03 61.64 138.62 Z" />
<path fill="#b0f8ed" opacity="1.00" d=" M 1160.68 142.64 C 1162.41 141.85 1164.41 140.36 1166.32 141.64 C 1176.27 146.74 1186.38 151.57 1196.32 156.70 C 1198.26 157.24 1197.86 159.44 1197.95 160.99 C 1197.78 171.23 1198.21 181.47 1197.71 191.70 C 1186.36 196.83 1175.58 203.14 1164.17 208.12 L 1164.16 207.45 C 1163.98 196.29 1164.42 185.13 1163.96 173.98 C 1153.17 168.37 1142.20 163.09 1131.37 157.53 C 1140.97 152.27 1150.93 147.64 1160.68 142.64 Z" />
<path fill="#b0f8ed" opacity="1.00" d=" M 380.27 170.29 C 385.00 171.81 389.05 174.78 393.68 176.54 C 394.11 181.48 394.20 186.46 393.74 191.40 C 385.46 193.96 378.30 199.16 370.15 202.08 C 369.94 197.62 370.21 193.15 369.90 188.70 C 369.39 188.52 368.38 188.17 367.87 188.00 C 363.96 186.46 360.24 184.51 356.49 182.63 C 364.00 177.76 372.45 174.62 380.27 170.29 Z" />
<path fill="#b0f8ed" opacity="1.00" d=" M 1124.77 179.69 C 1126.64 178.28 1129.02 178.75 1130.97 179.75 C 1137.21 182.91 1143.47 186.05 1149.72 189.22 C 1149.73 193.08 1149.74 196.94 1149.83 200.81 C 1149.85 204.12 1150.11 207.46 1149.60 210.74 C 1146.54 212.71 1143.11 214.10 1139.89 215.78 C 1135.79 217.46 1132.14 220.14 1127.83 221.29 C 1127.88 214.17 1127.88 207.06 1127.82 199.94 C 1120.87 196.09 1113.69 192.66 1106.56 189.16 C 1112.25 185.30 1118.90 183.25 1124.77 179.69 Z" />
<path fill="#b0f8ed" opacity="1.00" d=" M 953.97 221.00 C 957.63 219.28 960.98 216.70 965.02 215.89 C 970.01 217.55 974.44 220.54 979.28 222.60 C 981.45 223.87 985.09 224.80 984.80 227.99 C 984.88 232.97 984.80 237.96 984.88 242.95 C 984.71 244.18 985.12 246.01 983.60 246.54 C 977.52 249.82 970.94 252.12 965.10 255.85 C 964.61 249.04 965.12 242.22 964.86 235.41 L 964.18 235.06 C 957.99 232.05 951.96 228.71 945.64 225.99 C 947.79 223.43 951.14 222.57 953.97 221.00 Z" />
<path fill="#b0f8ed" opacity="1.00" d=" M 239.72 570.72 C 242.18 569.74 245.00 568.01 247.64 569.44 C 253.72 572.33 259.55 575.74 265.80 578.30 C 266.43 585.46 266.25 592.68 265.99 599.86 C 259.09 603.57 252.09 607.15 244.90 610.26 C 244.82 603.20 244.95 596.14 244.80 589.08 C 238.08 585.52 231.18 582.31 224.46 578.75 C 229.27 575.58 234.57 573.28 239.72 570.72 Z" />
<path fill="#b0f8ed" opacity="1.00" d=" M 143.19 611.45 C 148.01 612.41 152.12 615.59 156.71 617.36 C 157.94 621.77 157.99 626.47 157.05 630.95 C 155.52 632.87 152.96 633.63 150.87 634.82 C 144.83 637.47 139.29 641.25 132.93 643.16 C 133.15 638.54 133.17 633.91 132.88 629.29 C 128.41 627.24 123.98 625.10 119.58 622.90 C 127.21 618.61 135.41 615.42 143.19 611.45 Z" />
<path fill="#b0f8ed" opacity="1.00" d=" M 1328.35 615.50 C 1332.54 616.50 1336.14 619.08 1339.98 620.97 C 1343.23 622.84 1346.84 624.03 1350.07 625.95 C 1351.46 632.50 1350.37 639.40 1350.14 646.07 C 1350.31 648.66 1347.32 649.35 1345.60 650.56 C 1340.19 653.19 1335.05 656.54 1329.16 658.03 C 1328.52 652.37 1328.95 646.68 1328.87 641.01 C 1328.58 639.67 1329.21 637.90 1328.17 636.88 C 1321.76 633.14 1314.86 630.34 1308.40 626.71 L 1307.40 626.05 C 1314.08 622.02 1321.28 618.81 1328.35 615.50 Z" />
</g>
<g id="#60d5c9ff">
<path fill="#60d5c9" opacity="1.00" d=" M 54.19 46.95 L 54.54 47.12 C 59.04 49.37 63.52 51.68 68.00 53.96 C 68.14 58.47 68.14 62.98 68.05 67.49 C 63.26 65.72 58.72 63.34 54.19 60.99 C 53.89 56.32 53.87 51.62 54.19 46.95 Z" />
<path fill="#60d5c9" opacity="1.00" d=" M 1285.06 601.92 C 1289.14 603.37 1292.85 605.62 1296.74 607.49 C 1296.97 611.40 1296.94 615.32 1296.74 619.24 C 1292.72 617.35 1288.24 615.93 1284.87 613.00 C 1284.44 609.31 1284.73 605.60 1285.06 601.92 Z" />
</g>
<g id="#5fd5c9ff">
<path fill="#5fd5c9" opacity="1.00" d=" M 149.18 64.53 C 149.50 64.64 150.12 64.86 150.44 64.97 C 155.48 66.88 160.10 69.70 165.02 71.88 C 166.68 72.83 169.30 73.51 169.14 75.91 C 169.44 81.94 169.27 88.00 168.97 94.03 C 162.33 91.28 156.16 87.52 149.43 84.95 C 148.53 78.18 148.93 71.33 149.18 64.53 Z" />
<path fill="#5fd5c9" opacity="1.00" d=" M 133.11 93.82 C 133.57 93.89 134.48 94.03 134.93 94.10 C 141.03 96.98 147.08 99.98 153.10 103.02 C 152.68 109.61 153.41 116.22 152.82 122.80 C 146.25 119.83 139.98 116.23 133.31 113.46 C 132.78 106.93 133.18 100.36 133.11 93.82 Z" />
<path fill="#5fd5c9" opacity="1.00" d=" M 1311.41 120.67 C 1311.50 111.99 1310.89 103.27 1311.71 94.63 C 1320.22 98.59 1328.53 102.96 1336.96 107.09 C 1337.36 115.76 1337.43 124.47 1336.92 133.13 C 1328.22 129.43 1319.88 124.88 1311.41 120.67 Z" />
<path fill="#5fd5c9" opacity="1.00" d=" M 1092.12 130.89 C 1092.02 123.62 1091.76 116.34 1092.27 109.08 C 1098.54 112.45 1105.01 115.42 1111.31 118.73 C 1112.09 119.42 1113.86 119.67 1113.70 121.04 C 1113.94 127.80 1113.59 134.57 1113.92 141.34 C 1110.80 140.76 1108.08 139.06 1105.29 137.68 C 1100.88 135.44 1096.37 133.40 1092.12 130.89 Z" />
<path fill="#5fd5c9" opacity="1.00" d=" M 1130.97 179.75 C 1130.75 172.37 1130.16 164.83 1131.37 157.53 C 1142.20 163.09 1153.17 168.37 1163.96 173.98 C 1164.42 185.13 1163.98 196.29 1164.16 207.45 C 1159.22 205.57 1154.75 202.70 1149.83 200.81 C 1149.74 196.94 1149.73 193.08 1149.72 189.22 C 1143.47 186.05 1137.21 182.91 1130.97 179.75 Z" />
<path fill="#5fd5c9" opacity="1.00" d=" M 1106.19 188.98 L 1106.56 189.16 C 1113.69 192.66 1120.87 196.09 1127.82 199.94 C 1127.88 207.06 1127.88 214.17 1127.83 221.29 L 1127.83 221.84 C 1120.96 217.62 1113.29 214.87 1106.46 210.62 C 1105.44 203.48 1106.09 196.18 1106.19 188.98 Z" />
<path fill="#5fd5c9" opacity="1.00" d=" M 945.05 225.73 L 945.64 225.99 C 951.96 228.71 957.99 232.05 964.18 235.06 C 964.28 241.68 964.60 248.31 963.92 254.91 C 957.60 251.60 950.77 249.05 944.88 245.10 C 944.74 238.65 944.66 232.17 945.05 225.73 Z" />
<path fill="#5fd5c9" opacity="1.00" d=" M 223.70 589.98 C 223.87 586.24 223.08 582.33 224.46 578.75 C 231.18 582.31 238.08 585.52 244.80 589.08 C 244.95 596.14 244.82 603.20 244.90 610.26 C 237.91 606.92 230.88 603.60 224.14 599.80 C 223.30 596.61 223.83 593.24 223.70 589.98 Z" />
</g>
<g id="#60d4c8ff">
<path fill="#60d4c8" opacity="1.00" d=" M 1328.65 75.69 C 1328.81 75.54 1329.13 75.25 1329.29 75.10 C 1333.75 77.17 1338.19 79.30 1342.46 81.77 C 1342.32 86.29 1342.32 90.81 1342.24 95.33 C 1337.71 93.34 1333.18 91.30 1328.87 88.86 C 1328.46 84.49 1328.03 80.05 1328.65 75.69 Z" />
<path fill="#60d4c8" opacity="1.00" d=" M 183.28 114.57 C 183.18 109.93 182.76 105.26 183.58 100.66 C 188.09 102.68 192.52 104.89 196.93 107.13 C 197.19 111.40 197.13 115.67 197.07 119.94 L 197.06 120.96 C 192.32 119.15 187.82 116.80 183.28 114.57 Z" />
<path fill="#60d4c8" opacity="1.00" d=" M 282.63 614.37 C 282.02 610.84 282.50 607.22 282.68 603.67 C 286.25 605.37 289.77 607.20 293.32 608.95 C 293.43 612.61 293.40 616.27 293.10 619.93 C 289.53 618.28 285.70 616.90 282.63 614.37 Z" />
<path fill="#60d4c8" opacity="1.00" d=" M 1206.32 628.03 C 1209.97 628.90 1213.20 630.88 1216.44 632.69 C 1217.42 633.10 1217.89 633.86 1217.85 634.97 C 1218.29 638.27 1218.17 641.62 1217.89 644.94 C 1213.92 643.39 1210.12 641.47 1206.36 639.52 C 1206.32 635.69 1206.28 631.86 1206.32 628.03 Z" />
</g>
<g id="#62d4c6ff">
<path fill="#62d4c6" opacity="1.00" d=" M 1031.16 90.88 C 1033.72 91.81 1036.21 92.94 1038.64 94.21 C 1038.68 96.73 1038.70 99.25 1038.69 101.78 C 1036.16 100.84 1033.69 99.78 1031.27 98.61 C 1031.08 96.04 1031.04 93.46 1031.16 90.88 Z" />
</g>
<g id="#5ed5c8ff">
<path fill="#5ed5c8" opacity="1.00" d=" M 1059.45 112.68 C 1058.37 108.52 1058.53 103.80 1059.53 99.57 C 1063.51 101.90 1067.97 103.41 1071.73 106.12 C 1072.19 110.44 1071.81 114.80 1072.03 119.13 C 1067.95 116.77 1063.40 115.26 1059.45 112.68 Z" />
</g>
<g id="#5fd5c8ff">
<path fill="#5fd5c8" opacity="1.00" d=" M 425.47 102.71 L 425.91 102.89 C 432.47 105.62 438.63 109.19 445.10 112.12 C 445.10 118.77 445.56 125.45 444.75 132.07 C 438.38 128.86 431.71 126.13 425.68 122.31 C 425.16 115.81 425.90 109.24 425.47 102.71 Z" />
<path fill="#5fd5c8" opacity="1.00" d=" M 356.39 195.77 C 355.96 191.40 356.02 186.98 356.49 182.63 C 360.24 184.51 363.96 186.46 367.87 188.00 C 370.58 191.98 368.78 197.41 369.05 201.98 C 364.75 200.15 360.09 198.64 356.39 195.77 Z" />
</g>
<g id="#5fd4c9ff">
<path fill="#5fd4c9" opacity="1.00" d=" M 88.49 136.63 C 88.27 129.95 88.17 123.22 88.63 116.55 C 95.35 119.79 102.01 123.16 108.70 126.48 C 108.89 133.34 108.76 140.20 108.78 147.06 C 102.09 143.46 94.93 140.58 88.49 136.63 Z" />
<path fill="#5fd4c9" opacity="1.00" d=" M 1306.78 626.56 L 1308.40 626.71 C 1314.86 630.34 1321.76 633.14 1328.17 636.88 C 1328.00 644.00 1328.28 651.14 1327.89 658.27 C 1320.76 655.16 1313.75 651.67 1306.98 647.87 C 1306.13 640.84 1306.73 633.64 1306.78 626.56 Z" />
</g>
<g id="#60d4c9ff">
<path fill="#60d4c9" opacity="1.00" d=" M 54.05 142.50 L 54.79 142.78 C 59.33 144.53 63.58 146.90 67.93 149.05 C 68.12 153.69 68.13 158.33 68.02 162.97 C 63.32 161.10 58.83 158.73 54.22 156.65 C 53.91 151.94 53.99 147.22 54.05 142.50 Z" />
<path fill="#60d4c9" opacity="1.00" d=" M 119.39 636.66 C 119.33 632.07 119.14 627.47 119.58 622.90 C 123.98 625.10 128.41 627.24 132.88 629.29 C 133.17 633.91 133.15 638.54 132.93 643.16 C 128.41 641.01 123.83 638.98 119.39 636.66 Z" />
<path fill="#60d4c9" opacity="1.00" d=" M 237.29 646.61 C 236.67 642.71 236.31 638.67 237.41 634.82 C 240.80 636.69 244.26 638.45 247.74 640.15 C 247.76 643.83 247.77 647.51 247.78 651.19 C 244.21 649.84 240.79 648.13 237.29 646.61 Z" />
</g>
<g id="#46ff63ff">
<path fill="#46ff63" opacity="1.00" d=" M 1327.38 163.82 C 1331.23 162.62 1335.26 161.04 1339.27 162.56 C 1339.86 163.75 1340.75 164.92 1340.69 166.33 C 1338.21 202.44 1336.08 238.58 1333.43 274.68 C 1332.31 277.42 1329.97 279.31 1327.54 280.83 C 1324.16 282.10 1320.49 282.48 1316.97 281.60 C 1290.40 260.00 1263.98 238.21 1237.57 216.41 C 1236.49 215.54 1235.41 214.70 1234.33 213.87 C 1231.51 244.01 1230.22 274.28 1227.30 304.40 C 1226.31 306.06 1225.24 307.68 1224.07 309.21 C 1219.73 311.43 1215.02 312.96 1210.10 312.92 C 1210.29 313.36 1210.66 314.24 1210.85 314.68 C 1205.83 310.03 1208.89 302.58 1208.52 296.66 C 1209.67 289.49 1209.43 282.23 1210.31 275.03 C 1210.59 264.30 1212.41 253.68 1212.41 242.93 C 1214.09 228.62 1214.15 214.13 1216.04 199.86 C 1219.60 192.41 1231.22 189.51 1237.28 195.67 C 1255.61 210.96 1274.65 225.41 1292.73 240.99 C 1297.25 244.15 1301.42 247.77 1305.78 251.14 C 1308.50 253.44 1311.54 255.44 1313.78 258.28 C 1314.16 258.28 1314.92 258.29 1315.30 258.29 C 1316.15 241.85 1317.57 225.48 1318.47 209.06 C 1318.37 204.31 1319.60 199.67 1319.53 194.93 C 1319.47 188.26 1320.57 181.65 1320.56 174.98 C 1320.61 170.34 1323.42 166.09 1327.38 163.82 Z" />
</g>
<g id="#38c758ff">
<path fill="#38c758" opacity="1.00" d=" M 1333.43 274.68 C 1336.08 238.58 1338.21 202.44 1340.69 166.33 C 1343.50 169.44 1345.04 173.40 1347.29 176.89 C 1349.43 180.20 1348.33 184.29 1348.40 187.98 C 1346.44 219.32 1344.41 250.66 1342.46 282.00 C 1342.43 284.42 1342.16 286.83 1341.46 289.15 C 1339.26 284.09 1336.75 279.10 1333.43 274.68 Z" />
</g>
<g id="#aaf38aff">
<path fill="#aaf38a" opacity="1.00" d=" M 135.79 205.45 C 135.30 203.51 137.20 201.58 139.11 201.63 C 145.91 201.47 152.72 201.76 159.53 201.56 C 159.71 202.09 160.07 203.14 160.25 203.67 C 152.95 203.55 145.59 203.11 138.34 204.16 C 137.78 211.21 139.34 218.53 137.43 225.39 C 132.84 227.47 127.32 225.85 122.36 226.37 C 122.34 233.07 122.05 239.77 122.50 246.46 C 120.37 246.11 118.22 245.84 116.06 245.78 C 117.17 245.67 118.27 245.56 119.38 245.46 C 121.83 238.65 118.82 231.11 121.43 224.41 C 125.98 224.32 130.56 224.76 135.10 224.32 C 136.14 223.14 136.54 221.59 136.43 220.04 C 136.34 215.17 136.80 210.25 135.79 205.45 Z" />
</g>
<g id="#c3fd2dff">
<path fill="#c3fd2d" opacity="1.00" d=" M 138.34 204.16 C 145.59 203.11 152.95 203.55 160.25 203.67 C 160.15 205.02 159.96 206.36 159.66 207.68 C 153.89 208.01 147.87 206.74 142.28 208.43 C 142.56 213.73 142.19 219.04 142.47 224.33 C 142.78 224.61 143.38 225.19 143.68 225.47 C 149.23 225.64 154.79 225.47 160.35 225.51 C 160.61 226.11 161.12 227.33 161.38 227.94 C 161.52 233.71 161.36 239.48 161.50 245.26 L 160.50 245.82 C 147.89 247.08 135.15 245.82 122.50 246.46 C 122.05 239.77 122.34 233.07 122.36 226.37 C 127.32 225.85 132.84 227.47 137.43 225.39 C 139.34 218.53 137.78 211.21 138.34 204.16 Z" />
</g>
<g id="#36c455ff">
<path fill="#36c455" opacity="1.00" d=" M 1234.33 213.87 C 1235.41 214.70 1236.49 215.54 1237.57 216.41 C 1236.95 220.81 1240.52 224.00 1242.51 227.51 C 1240.81 252.63 1238.85 277.74 1237.22 302.87 C 1236.38 308.29 1236.76 313.82 1235.61 319.20 C 1233.71 313.84 1230.53 309.04 1227.30 304.40 C 1230.22 274.28 1231.51 244.01 1234.33 213.87 Z" />
</g>
<g id="#459e4eff">
<path fill="#459e4e" opacity="1.00" d=" M 1242.51 227.51 C 1240.52 224.00 1236.95 220.81 1237.57 216.41 C 1263.98 238.21 1290.40 260.00 1316.97 281.60 C 1318.96 286.11 1322.50 289.79 1323.97 294.54 C 1309.87 283.58 1296.44 271.76 1282.47 260.63 C 1269.22 249.51 1255.66 238.73 1242.51 227.51 Z" />
</g>
<g id="#d39963ff">
<path fill="#d39963" opacity="1.00" d=" M 103.34 246.26 C 107.52 245.29 111.82 245.93 116.06 245.78 C 118.22 245.84 120.37 246.11 122.50 246.46 C 116.81 248.49 110.69 246.80 104.82 247.66 C 104.14 260.09 105.04 272.55 104.20 284.97 L 103.72 283.78 C 103.45 282.05 103.38 280.31 103.34 278.58 C 103.33 267.80 103.36 257.03 103.34 246.26 Z" />
</g>
<g id="#fd8137ff">
<path fill="#fd8137" opacity="1.00" d=" M 122.50 246.46 C 135.15 245.82 147.89 247.08 160.50 245.82 C 167.04 246.78 173.65 246.06 180.22 246.52 C 178.58 246.77 176.96 247.03 175.33 247.30 C 175.85 247.73 176.88 248.60 177.40 249.04 C 177.40 272.62 177.70 296.20 177.25 319.77 C 176.48 319.82 174.94 319.91 174.17 319.96 C 169.05 319.72 163.93 319.68 158.80 319.76 C 156.93 319.80 155.05 319.87 153.18 319.89 C 145.41 319.69 137.63 319.75 129.86 319.76 C 128.00 319.76 126.14 319.76 124.28 319.76 C 119.58 319.69 114.88 319.75 110.18 319.92 C 108.05 319.89 105.92 319.76 103.80 319.54 C 103.44 308.01 104.88 296.51 104.20 284.97 C 105.04 272.55 104.14 260.09 104.82 247.66 C 110.69 246.80 116.81 248.49 122.50 246.46 M 122.60 266.54 L 121.75 266.56 C 121.32 269.03 120.54 272.34 123.16 273.92 C 125.78 275.79 128.69 273.91 130.68 272.08 C 130.77 269.79 130.60 266.82 128.12 265.81 C 126.30 264.76 124.17 265.32 122.60 266.54 M 151.03 265.95 C 147.89 266.37 147.60 270.25 148.44 272.67 C 150.09 275.45 155.03 275.73 156.58 272.71 C 159.22 269.39 154.80 264.15 151.03 265.95 M 121.63 288.55 C 121.64 293.57 121.62 298.59 121.63 303.62 C 134.00 303.70 146.39 303.81 158.76 303.58 C 159.86 298.92 158.88 293.56 159.17 288.64 C 157.64 288.63 156.10 288.62 154.58 288.61 C 154.53 292.20 154.54 295.79 154.44 299.38 C 145.09 299.35 135.73 299.21 126.39 299.45 C 125.37 295.87 125.97 292.13 125.76 288.47 C 124.38 288.49 123.00 288.52 121.63 288.55 Z" />
</g>
<g id="#bd7142ff">
<path fill="#bd7142" opacity="1.00" d=" M 175.33 247.30 C 176.96 247.03 178.58 246.77 180.22 246.52 C 180.33 256.98 180.56 267.47 180.17 277.93 L 180.06 278.60 C 178.32 280.19 178.40 282.85 180.01 284.51 C 180.77 296.10 180.09 307.77 180.36 319.40 C 179.32 319.53 178.28 319.66 177.25 319.77 C 177.70 296.20 177.40 272.62 177.40 249.04 C 176.88 248.60 175.85 247.73 175.33 247.30 Z" />
</g>
<g id="#4cfc68ff">
<path fill="#4cfc68" opacity="1.00" d=" M 180.17 277.93 C 181.25 273.01 178.89 267.40 181.67 262.97 C 186.33 265.28 189.06 269.81 192.08 273.83 C 192.69 274.81 193.56 275.75 193.73 276.95 C 193.45 280.41 192.94 283.85 192.37 287.28 C 192.03 284.44 191.71 281.61 191.32 278.78 C 187.56 278.81 183.81 278.74 180.06 278.60 L 180.17 277.93 Z" />
</g>
<g id="#6e3a1cff">
<path fill="#6e3a1c" opacity="1.00" d=" M 122.60 266.54 C 124.17 265.32 126.30 264.76 128.12 265.81 C 130.60 266.82 130.77 269.79 130.68 272.08 C 129.66 270.20 129.19 267.71 127.17 266.60 C 125.65 266.49 124.13 266.47 122.60 266.54 Z" />
</g>
<g id="#2f2926ff">
<path fill="#2f2926" opacity="1.00" d=" M 151.03 265.95 C 154.80 264.15 159.22 269.39 156.58 272.71 C 155.03 275.73 150.09 275.45 148.44 272.67 C 147.60 270.25 147.89 266.37 151.03 265.95 Z" />
</g>
<g id="#2a2a28ff">
<path fill="#2a2a28" opacity="1.00" d=" M 121.75 266.56 L 122.60 266.54 C 124.13 266.47 125.65 266.49 127.17 266.60 C 129.19 267.71 129.66 270.20 130.68 272.08 C 128.69 273.91 125.78 275.79 123.16 273.92 C 120.54 272.34 121.32 269.03 121.75 266.56 Z" />
</g>
<g id="#47ff63ff">
<path fill="#47ff63" opacity="1.00" d=" M 1104.87 277.94 C 1109.78 274.29 1115.92 271.88 1122.11 272.35 C 1123.45 272.21 1124.26 273.37 1125.17 274.14 L 1125.30 274.70 C 1126.11 279.18 1129.36 282.63 1131.15 286.72 C 1133.46 291.88 1137.17 296.22 1139.82 301.19 C 1141.31 303.77 1142.40 306.83 1145.13 308.41 L 1145.49 308.69 C 1145.55 308.94 1145.67 309.45 1145.73 309.70 C 1146.20 311.89 1146.82 314.10 1148.01 316.04 C 1152.36 323.35 1156.83 330.61 1160.73 338.17 C 1161.52 339.89 1162.93 341.17 1164.30 342.45 C 1168.67 348.94 1172.20 356.03 1176.19 362.78 C 1176.84 363.91 1177.66 365.03 1177.86 366.37 C 1176.88 368.59 1175.72 370.74 1174.34 372.74 C 1169.97 375.77 1164.66 377.60 1159.31 376.66 C 1158.39 375.15 1157.43 373.65 1156.53 372.14 C 1154.00 367.85 1151.58 363.50 1148.91 359.30 C 1121.19 367.10 1093.45 374.85 1065.78 382.81 C 1062.22 388.96 1058.97 395.28 1055.56 401.51 C 1054.17 404.05 1052.54 406.49 1050.34 408.40 C 1046.49 410.79 1041.92 411.43 1037.48 411.38 C 1037.29 411.39 1036.90 411.40 1036.71 411.40 C 1036.45 409.09 1035.85 406.71 1036.47 404.42 C 1047.80 383.31 1058.86 362.04 1070.24 340.94 C 1078.87 325.35 1087.12 309.56 1095.55 293.85 C 1098.44 288.44 1100.86 282.65 1104.87 277.94 M 1112.50 292.07 C 1102.52 310.95 1092.70 329.90 1082.84 348.84 C 1080.03 354.90 1076.28 360.49 1073.88 366.75 C 1079.87 365.24 1085.80 363.48 1091.73 361.76 C 1095.51 361.40 1100.45 361.82 1103.01 358.46 C 1107.98 357.58 1112.72 355.79 1117.56 354.37 C 1125.16 352.81 1132.38 349.81 1140.01 348.35 C 1141.28 348.22 1142.32 347.47 1143.40 346.83 C 1136.76 334.67 1129.71 322.72 1123.20 310.48 C 1122.42 309.22 1122.07 307.31 1120.31 307.15 L 1120.42 306.05 C 1118.20 301.18 1115.61 296.43 1112.50 292.07 Z" />
</g>
<g id="#5ce486ff">
<path fill="#5ce486" opacity="1.00" d=" M 1131.15 286.72 C 1129.36 282.63 1126.11 279.18 1125.30 274.70 C 1129.39 278.89 1131.39 284.52 1134.68 289.29 C 1138.22 295.62 1142.21 301.75 1145.13 308.41 C 1142.40 306.83 1141.31 303.77 1139.82 301.19 C 1137.17 296.22 1133.46 291.88 1131.15 286.72 Z" />
</g>
<g id="#2bab43ff">
<path fill="#2bab43" opacity="1.00" d=" M 1333.43 274.68 C 1336.75 279.10 1339.26 284.09 1341.46 289.15 C 1341.00 290.93 1339.47 292.16 1338.41 293.58 C 1335.86 290.02 1334.28 285.87 1331.56 282.43 C 1330.72 281.02 1328.95 281.06 1327.54 280.83 C 1329.97 279.31 1332.31 277.42 1333.43 274.68 Z" />
</g>
<g id="#4afe65ff">
<path fill="#4afe65" opacity="1.00" d=" M 192.37 287.28 C 192.94 283.85 193.45 280.41 193.73 276.95 C 194.84 277.71 195.44 278.71 195.55 279.96 C 196.43 288.02 197.00 296.25 195.30 304.25 C 194.45 307.54 193.61 310.84 192.93 314.17 C 190.88 320.04 187.99 325.56 185.13 331.07 C 182.45 335.82 178.83 339.93 175.81 344.46 C 172.47 348.91 168.03 352.32 164.25 356.35 C 161.14 359.71 157.31 362.23 153.48 364.67 C 147.65 368.92 141.30 372.37 134.45 374.69 C 127.31 378.18 119.39 379.21 111.64 380.51 C 106.19 381.16 100.77 379.77 95.37 379.27 C 91.46 377.32 88.00 374.48 83.76 373.26 L 83.54 373.18 C 80.45 369.25 76.87 365.34 75.83 360.28 C 75.25 357.14 73.29 354.33 73.50 351.05 C 73.75 344.74 72.82 338.22 74.96 332.15 C 76.46 327.06 77.53 321.77 80.04 317.04 C 83.36 310.41 85.96 303.04 91.80 298.11 L 92.29 299.59 C 92.08 300.63 91.67 302.71 91.47 303.74 C 94.01 304.12 96.61 304.19 99.12 303.54 C 98.67 298.72 98.17 293.83 98.88 289.01 C 99.60 287.71 101.21 287.36 102.36 286.56 C 102.51 292.27 102.47 297.99 102.52 303.71 C 95.48 316.68 90.41 331.56 92.72 346.48 C 92.84 351.40 95.60 355.51 98.80 359.00 C 99.76 360.06 100.75 361.10 101.80 362.07 C 108.22 366.64 116.58 366.22 123.99 365.03 C 129.84 364.25 135.11 361.46 140.49 359.22 C 144.70 357.39 147.92 353.91 152.04 351.94 C 154.09 351.42 156.21 351.40 158.29 351.08 C 158.44 350.83 158.74 350.32 158.89 350.07 C 159.40 347.44 159.21 344.42 161.46 342.54 C 167.53 336.22 171.26 328.13 174.17 319.96 C 174.94 319.91 176.48 319.82 177.25 319.77 C 178.28 319.66 179.32 319.53 180.36 319.40 C 180.09 307.77 180.77 296.10 180.01 284.51 C 181.88 284.41 183.76 284.29 185.64 284.19 C 185.77 290.71 185.54 297.23 185.81 303.75 C 187.59 303.73 189.38 303.73 191.17 303.72 C 191.31 295.41 191.05 287.09 191.32 278.78 C 191.71 281.61 192.03 284.44 192.37 287.28 Z" />
</g>
<g id="#282a2aff">
<path fill="#282a2a" opacity="1.00" d=" M 92.77 278.60 C 96.29 278.57 99.82 278.58 103.34 278.58 C 103.38 280.31 103.45 282.05 103.72 283.78 C 101.91 283.90 100.10 283.99 98.29 284.06 C 98.24 284.67 98.16 285.89 98.12 286.51 C 96.49 291.93 96.96 297.65 96.96 303.24 L 96.50 303.69 C 92.33 303.99 92.52 299.76 92.65 296.84 C 92.81 290.76 92.70 284.68 92.77 278.60 Z" />
</g>
<g id="#282c29ff">
<path fill="#282c29" opacity="1.00" d=" M 180.01 284.51 C 178.40 282.85 178.32 280.19 180.06 278.60 C 183.81 278.74 187.56 278.81 191.32 278.78 C 191.05 287.09 191.31 295.41 191.17 303.72 C 189.38 303.73 187.59 303.73 185.81 303.75 C 185.54 297.23 185.77 290.71 185.64 284.19 C 183.76 284.29 181.88 284.41 180.01 284.51 Z" />
</g>
<g id="#36c856ff">
<path fill="#36c856" opacity="1.00" d=" M 195.55 279.96 C 200.56 286.05 203.86 293.30 205.47 301.00 C 205.39 308.74 205.84 316.66 202.82 323.99 C 202.00 322.24 201.10 320.54 200.19 318.84 C 200.72 318.62 201.25 318.42 201.79 318.21 C 201.79 317.78 201.80 316.91 201.81 316.47 C 200.91 316.45 200.01 316.43 199.11 316.42 C 198.98 315.07 198.85 313.72 198.73 312.38 C 198.26 312.82 197.80 313.26 197.34 313.70 C 196.92 312.35 196.50 311.00 196.09 309.66 C 195.01 311.15 193.93 312.63 192.93 314.17 C 193.61 310.84 194.45 307.54 195.30 304.25 C 197.00 296.25 196.43 288.02 195.55 279.96 Z" />
</g>
<g id="#228b35ff">
<path fill="#228b35" opacity="1.00" d=" M 1316.97 281.60 C 1320.49 282.48 1324.16 282.10 1327.54 280.83 C 1328.95 281.06 1330.72 281.02 1331.56 282.43 C 1334.28 285.87 1335.86 290.02 1338.41 293.58 C 1334.04 296.02 1328.45 297.59 1323.97 294.54 C 1322.50 289.79 1318.96 286.11 1316.97 281.60 Z" />
</g>
<g id="#92eabcff">
<path fill="#92eabc" opacity="1.00" d=" M 98.29 284.06 C 100.10 283.99 101.91 283.90 103.72 283.78 C 103.24 284.69 102.79 285.62 102.36 286.56 C 101.21 287.36 99.60 287.71 98.88 289.01 C 98.17 293.83 98.67 298.72 99.12 303.54 C 96.61 304.19 94.01 304.12 91.47 303.74 C 91.67 302.71 92.08 300.63 92.29 299.59 L 91.80 298.11 C 91.68 297.76 91.43 297.06 91.31 296.71 L 92.65 296.84 C 92.52 299.76 92.33 303.99 96.50 303.69 L 96.96 303.24 C 98.08 302.16 98.18 300.52 98.31 299.07 C 98.48 294.88 98.30 290.69 98.12 286.51 C 98.16 285.89 98.24 284.67 98.29 284.06 Z" />
</g>
<g id="#8ac453ff">
<path fill="#8ac453" opacity="1.00" d=" M 103.72 283.78 L 104.20 284.97 C 104.88 296.51 103.44 308.01 103.80 319.54 L 103.27 319.47 C 101.85 314.27 103.97 308.91 102.52 303.71 C 102.47 297.99 102.51 292.27 102.36 286.56 C 102.79 285.62 103.24 284.69 103.72 283.78 Z" />
</g>
<g id="#143819ff">
<path fill="#143819" opacity="1.00" d=" M 96.96 303.24 C 96.96 297.65 96.49 291.93 98.12 286.51 C 98.30 290.69 98.48 294.88 98.31 299.07 C 98.18 300.52 98.08 302.16 96.96 303.24 Z" />
</g>
<g id="#35261fff">
<path fill="#35261f" opacity="1.00" d=" M 121.63 288.55 C 123.00 288.52 124.38 288.49 125.76 288.47 C 125.97 292.13 125.37 295.87 126.39 299.45 C 135.73 299.21 145.09 299.35 154.44 299.38 C 154.54 295.79 154.53 292.20 154.58 288.61 C 156.10 288.62 157.64 288.63 159.17 288.64 C 158.88 293.56 159.86 298.92 158.76 303.58 C 146.39 303.81 134.00 303.70 121.63 303.62 C 121.62 298.59 121.64 293.57 121.63 288.55 Z" />
</g>
<g id="#30b54cff">
<path fill="#30b54c" opacity="1.00" d=" M 1112.50 292.07 C 1115.61 296.43 1118.20 301.18 1120.42 306.05 L 1120.31 307.15 C 1111.17 324.49 1102.32 341.97 1093.08 359.26 C 1092.62 360.09 1092.15 360.91 1091.73 361.76 C 1085.80 363.48 1079.87 365.24 1073.88 366.75 C 1076.28 360.49 1080.03 354.90 1082.84 348.84 C 1092.70 329.90 1102.52 310.95 1112.50 292.07 Z" />
</g>
<g id="#31c050ff">
<path fill="#31c050" opacity="1.00" d=" M 102.52 303.71 C 103.97 308.91 101.85 314.27 103.27 319.47 L 103.80 319.54 C 105.92 319.76 108.05 319.89 110.18 319.92 C 108.99 323.05 107.59 326.10 106.21 329.16 C 104.05 333.76 103.26 338.83 101.88 343.69 C 100.89 347.11 100.19 350.61 99.64 354.13 C 98.23 350.87 95.46 348.59 92.72 346.48 C 90.41 331.56 95.48 316.68 102.52 303.71 Z" />
</g>
<g id="#29ae45ff">
<path fill="#29ae45" opacity="1.00" d=" M 1227.30 304.40 C 1230.53 309.04 1233.71 313.84 1235.61 319.20 C 1234.84 320.11 1234.35 321.32 1233.21 321.83 C 1230.38 318.29 1228.05 314.39 1225.62 310.58 C 1225.97 309.81 1226.32 309.04 1226.70 308.27 C 1225.80 308.57 1224.93 308.88 1224.07 309.21 C 1225.24 307.68 1226.31 306.06 1227.30 304.40 Z" />
</g>
<g id="#228d36ff">
<path fill="#228d36" opacity="1.00" d=" M 1224.07 309.21 C 1224.93 308.88 1225.80 308.57 1226.70 308.27 C 1226.32 309.04 1225.97 309.81 1225.62 310.58 C 1228.05 314.39 1230.38 318.29 1233.21 321.83 C 1231.38 324.31 1228.34 325.21 1225.56 326.17 C 1222.77 326.89 1219.13 327.52 1217.03 325.01 C 1214.86 321.63 1212.87 318.14 1210.85 314.68 C 1210.66 314.24 1210.29 313.36 1210.10 312.92 C 1215.02 312.96 1219.73 311.43 1224.07 309.21 Z" />
<path fill="#228d36" opacity="1.00" d=" M 705.75 537.62 C 711.27 537.94 716.97 536.46 721.15 532.72 C 724.02 537.32 726.68 542.06 729.70 546.56 C 725.55 549.58 719.55 553.03 714.53 550.43 C 711.07 546.60 708.95 541.69 705.75 537.62 Z" />
</g>
<g id="#2eb54bff">
<path fill="#2eb54b" opacity="1.00" d=" M 192.93 314.17 C 193.93 312.63 195.01 311.15 196.09 309.66 C 196.50 311.00 196.92 312.35 197.34 313.70 C 197.80 313.26 198.26 312.82 198.73 312.38 C 198.85 313.72 198.98 315.07 199.11 316.42 C 200.01 316.43 200.91 316.45 201.81 316.47 C 201.80 316.91 201.79 317.78 201.79 318.21 C 201.25 318.42 200.72 318.62 200.19 318.84 C 201.10 320.54 202.00 322.24 202.82 323.99 C 202.00 330.21 198.66 335.58 196.14 341.20 C 193.39 347.38 188.85 352.49 185.08 358.04 C 181.79 362.14 178.05 365.96 173.81 369.09 C 176.14 363.41 182.14 360.47 184.58 354.96 C 183.50 353.82 182.48 352.64 181.53 351.40 C 182.63 351.77 183.73 352.16 184.82 352.57 C 184.68 351.70 184.51 350.83 184.37 349.97 C 184.97 349.39 185.58 348.82 186.17 348.24 C 184.24 348.26 182.30 348.27 180.37 348.30 C 179.54 347.00 178.71 345.71 177.89 344.43 C 177.37 344.43 176.33 344.45 175.81 344.46 C 178.83 339.93 182.45 335.82 185.13 331.07 C 187.99 325.56 190.88 320.04 192.93 314.17 Z" />
</g>
<g id="#5ee589ff">
<path fill="#5ee589" opacity="1.00" d=" M 1145.73 309.70 C 1150.41 315.77 1153.50 322.90 1157.55 329.40 C 1159.64 333.83 1162.97 337.70 1164.30 342.45 C 1162.93 341.17 1161.52 339.89 1160.73 338.17 C 1156.83 330.61 1152.36 323.35 1148.01 316.04 C 1146.82 314.10 1146.20 311.89 1145.73 309.70 Z" />
</g>
<g id="#282a2dff">
<path fill="#282a2d" opacity="1.00" d=" M 124.28 319.76 C 126.14 319.76 128.00 319.76 129.86 319.76 C 129.83 330.17 129.82 340.58 129.87 350.99 C 128.00 350.98 126.14 350.97 124.28 350.97 C 124.32 340.56 124.35 330.16 124.28 319.76 Z" />
</g>
<g id="#272b2dff">
<path fill="#272b2d" opacity="1.00" d=" M 153.18 319.89 C 155.05 319.87 156.93 319.80 158.80 319.76 C 158.76 329.87 158.75 339.97 158.89 350.07 C 158.74 350.32 158.44 350.83 158.29 351.08 C 156.59 351.12 154.90 351.11 153.21 351.10 C 153.26 340.70 153.30 330.30 153.18 319.89 Z" />
</g>
<g id="#98eadeff">
<path fill="#98eade" opacity="1.00" d=" M 158.80 319.76 C 163.93 319.68 169.05 319.72 174.17 319.96 C 171.26 328.13 167.53 336.22 161.46 342.54 C 159.21 344.42 159.40 347.44 158.89 350.07 C 158.75 339.97 158.76 329.87 158.80 319.76 Z" />
</g>
<g id="#4ec47dff">
<path fill="#4ec47d" opacity="1.00" d=" M 99.64 354.13 C 100.19 350.61 100.89 347.11 101.88 343.69 C 101.59 349.81 100.96 355.96 101.80 362.07 C 100.75 361.10 99.76 360.06 98.80 359.00 C 99.09 357.37 99.39 355.75 99.64 354.13 Z" />
</g>
<g id="#28a23fff">
<path fill="#28a23f" opacity="1.00" d=" M 175.81 344.46 C 176.33 344.45 177.37 344.43 177.89 344.43 C 178.71 345.71 179.54 347.00 180.37 348.30 C 182.30 348.27 184.24 348.26 186.17 348.24 C 185.58 348.82 184.97 349.39 184.37 349.97 C 184.51 350.83 184.68 351.70 184.82 352.57 C 183.73 352.16 182.63 351.77 181.53 351.40 C 182.48 352.64 183.50 353.82 184.58 354.96 C 182.14 360.47 176.14 363.41 173.81 369.09 C 171.08 372.98 167.04 375.63 163.03 378.05 C 160.35 375.60 160.10 372.03 160.21 368.64 C 157.88 367.47 155.60 366.19 153.48 364.67 C 157.31 362.23 161.14 359.71 164.25 356.35 C 168.03 352.32 172.47 348.91 175.81 344.46 Z" />
</g>
<g id="#3bd762ff">
<path fill="#3bd762" opacity="1.00" d=" M 92.72 346.48 C 95.46 348.59 98.23 350.87 99.64 354.13 C 99.39 355.75 99.09 357.37 98.80 359.00 C 95.60 355.51 92.84 351.40 92.72 346.48 Z" />
</g>
<g id="#69f39aff">
<path fill="#69f39a" opacity="1.00" d=" M 1091.73 361.76 C 1092.15 360.91 1092.62 360.09 1093.08 359.26 C 1096.41 359.69 1099.75 359.20 1103.01 358.46 C 1100.45 361.82 1095.51 361.40 1091.73 361.76 Z" />
</g>
<g id="#1e8a34ff">
<path fill="#1e8a34" opacity="1.00" d=" M 1065.78 382.81 C 1093.45 374.85 1121.19 367.10 1148.91 359.30 C 1151.58 363.50 1154.00 367.85 1156.53 372.14 L 1157.24 373.34 C 1129.62 380.89 1102.13 388.90 1074.54 396.52 C 1071.35 392.12 1068.71 387.37 1065.78 382.81 Z" />
<path fill="#1e8a34" opacity="1.00" d=" M 313.74 390.62 C 320.28 388.77 327.11 386.64 333.97 387.75 C 340.17 388.84 344.65 395.35 343.37 401.55 C 336.85 400.27 330.31 402.06 324.06 403.82 C 308.31 408.33 292.56 412.86 276.82 417.40 C 274.12 413.00 271.12 408.79 268.22 404.53 L 267.79 403.90 C 283.08 399.38 298.42 395.03 313.74 390.62 Z" />
</g>
<g id="#218d36ff">
<path fill="#218d36" opacity="1.00" d=" M 134.45 374.69 C 141.30 372.37 147.65 368.92 153.48 364.67 C 155.60 366.19 157.88 367.47 160.21 368.64 C 160.10 372.03 160.35 375.60 163.03 378.05 C 157.36 381.96 151.56 385.77 144.92 387.85 C 136.51 391.95 127.19 393.37 117.99 394.38 C 112.97 393.81 107.77 393.67 102.95 392.10 C 102.81 391.94 102.54 391.62 102.40 391.46 C 101.18 386.64 95.21 384.68 95.37 379.27 C 100.77 379.77 106.19 381.16 111.64 380.51 C 119.39 379.21 127.31 378.18 134.45 374.69 Z" />
</g>
<g id="#30b44bff">
<path fill="#30b44b" opacity="1.00" d=" M 1174.34 372.74 C 1175.72 370.74 1176.88 368.59 1177.86 366.37 C 1180.83 370.64 1183.53 375.15 1185.49 379.99 C 1185.95 383.20 1183.72 385.86 1181.43 387.79 C 1182.36 381.84 1177.68 377.09 1174.34 372.74 Z" />
<path fill="#30b44b" opacity="1.00" d=" M 348.06 479.28 C 349.82 477.40 351.24 475.22 352.49 472.98 C 355.17 477.00 357.99 480.94 360.54 485.04 C 361.74 489.10 358.24 492.08 355.43 494.32 C 356.03 492.61 356.67 490.92 357.34 489.24 C 355.19 486.63 352.93 484.08 351.26 481.12 C 350.61 479.97 349.15 479.80 348.06 479.28 Z" />
</g>
<g id="#47fe64ff">
<path fill="#47fe64" opacity="1.00" d=" M 895.90 374.96 C 900.43 372.26 906.30 370.09 911.34 372.82 C 911.46 373.68 911.56 374.55 911.65 375.43 C 908.33 407.99 905.20 440.58 902.20 473.18 C 905.76 472.88 909.14 471.70 912.45 470.42 C 929.04 466.17 945.50 461.35 961.98 456.69 C 971.71 454.26 981.22 450.60 991.23 449.52 C 992.89 450.71 995.31 452.24 995.50 454.37 C 994.17 456.61 992.71 458.76 991.15 460.84 C 986.66 463.71 981.43 464.99 976.36 466.41 C 949.27 473.92 922.21 481.58 895.13 489.15 C 890.60 490.43 885.97 491.43 881.64 493.31 L 881.40 493.40 C 884.53 460.21 887.93 427.06 890.91 393.86 C 892.33 387.56 890.55 379.76 895.90 374.96 Z" />
<path fill="#47fe64" opacity="1.00" d=" M 761.74 415.68 C 765.82 410.34 769.94 403.99 776.97 402.47 C 780.20 401.86 785.14 403.06 785.62 406.82 C 783.21 411.47 779.54 415.27 776.34 419.37 C 762.43 436.78 748.48 454.17 734.53 471.55 C 732.55 474.13 730.04 476.40 728.68 479.39 C 727.55 485.37 727.50 491.51 726.66 497.53 C 725.44 506.33 724.67 515.18 723.79 524.01 C 723.49 527.05 722.51 529.99 721.15 532.72 C 716.97 536.46 711.27 537.94 705.75 537.62 L 705.20 537.62 C 703.53 532.89 704.58 527.86 705.26 523.07 C 706.38 511.83 707.66 500.62 708.81 489.39 C 709.08 487.19 710.23 484.49 708.06 482.87 C 700.67 475.79 692.99 468.98 685.10 462.48 C 679.14 456.63 673.12 450.77 666.51 445.67 C 664.04 443.81 663.63 439.92 665.83 437.69 C 669.18 432.91 676.07 429.48 681.53 432.54 C 694.65 444.08 706.72 456.79 720.10 468.05 C 734.33 450.89 747.58 432.91 761.74 415.68 Z" />
</g>
<g id="#3f9b4bff">
<path fill="#3f9b4b" opacity="1.00" d=" M 83.76 373.26 C 88.00 374.48 91.46 377.32 95.37 379.27 C 95.21 384.68 101.18 386.64 102.40 391.46 C 98.19 389.33 93.43 387.45 90.73 383.36 C 88.37 380.02 86.01 376.67 83.76 373.26 Z" />
</g>
<g id="#218d37ff">
<path fill="#218d37" opacity="1.00" d=" M 1159.31 376.66 C 1164.66 377.60 1169.97 375.77 1174.34 372.74 C 1177.68 377.09 1182.36 381.84 1181.43 387.79 C 1177.39 389.52 1173.00 391.93 1168.49 390.41 C 1164.60 386.45 1162.58 381.10 1159.31 376.66 Z" />
</g>
<g id="#48ff64ff">
<path fill="#48ff64" opacity="1.00" d=" M 314.06 377.31 C 325.39 374.17 337.36 371.62 349.06 374.34 C 352.26 374.63 354.38 377.32 356.97 378.90 C 360.04 380.66 361.28 384.24 362.60 387.32 C 362.69 392.82 361.92 398.31 360.13 403.53 C 358.94 407.97 356.21 411.73 353.76 415.55 C 349.92 420.64 344.95 424.77 340.05 428.79 C 334.25 433.09 327.81 436.62 320.89 438.75 C 318.69 439.43 316.54 440.29 314.45 441.24 C 319.27 445.21 324.25 448.98 329.16 452.85 C 336.82 459.62 345.53 465.15 352.85 472.35 L 352.49 472.98 C 351.24 475.22 349.82 477.40 348.06 479.28 C 345.53 481.57 342.31 482.85 339.01 483.56 C 337.24 483.42 335.44 483.08 334.08 481.87 C 328.98 477.82 324.23 473.36 319.15 469.29 C 310.34 461.95 301.61 454.49 292.91 447.03 C 282.08 450.06 271.30 453.27 260.44 456.20 C 258.84 466.82 257.36 477.46 255.89 488.09 C 255.04 493.98 254.72 500.10 252.15 505.57 C 251.17 506.54 250.17 507.49 249.10 508.36 C 245.40 510.63 241.08 511.42 236.81 511.63 L 236.00 511.70 C 234.76 505.47 236.05 499.17 237.09 493.03 C 241.33 460.72 246.48 428.53 250.63 396.21 C 252.36 394.16 255.20 394.52 257.54 393.81 C 276.31 388.08 295.24 382.88 314.06 377.31 M 313.74 390.62 C 298.42 395.03 283.08 399.38 267.79 403.90 L 268.22 404.53 C 267.72 405.96 267.25 407.41 267.03 408.92 C 265.52 419.97 264.06 431.03 262.29 442.04 C 266.47 441.91 270.38 440.30 274.28 438.97 L 274.26 439.54 C 287.90 434.51 302.22 431.78 315.94 427.02 C 323.52 425.58 330.72 421.89 335.97 416.18 C 340.17 412.37 342.08 406.87 343.67 401.58 L 343.37 401.55 C 344.65 395.35 340.17 388.84 333.97 387.75 C 327.11 386.64 320.28 388.77 313.74 390.62 Z" />
<path fill="#48ff64" opacity="1.00" d=" M 524.96 427.28 C 542.38 422.60 561.91 426.82 575.95 438.07 C 577.72 441.24 580.17 444.23 581.41 447.61 C 581.06 453.14 581.32 458.67 581.44 464.20 C 580.38 469.42 578.84 474.53 577.68 479.72 C 576.16 486.67 571.53 492.29 568.80 498.74 C 565.04 505.18 559.16 510.02 554.44 515.74 C 549.11 520.91 543.02 525.22 537.41 530.09 C 530.02 534.18 523.06 539.22 514.94 541.82 C 497.58 548.88 479.03 552.31 461.31 558.25 C 461.13 558.47 460.77 558.91 460.59 559.13 L 460.16 559.66 C 462.00 541.43 464.41 523.21 466.93 505.05 C 468.38 492.07 470.04 479.11 471.79 466.16 C 472.57 457.69 474.40 449.32 474.67 440.79 C 484.41 438.00 494.18 435.29 503.87 432.32 C 511.03 431.16 517.70 427.95 524.96 427.28 M 491.92 449.33 L 492.26 449.80 C 491.48 453.14 491.05 456.54 490.64 459.94 C 488.48 477.62 486.20 495.29 484.07 512.98 C 483.05 521.58 481.58 530.14 481.11 538.80 C 484.82 537.98 488.47 536.90 492.12 535.81 C 505.88 532.26 519.93 528.04 531.42 519.34 C 536.09 515.34 541.20 511.73 544.92 506.74 C 547.94 502.74 551.72 499.23 553.84 494.61 C 555.00 492.11 556.23 489.64 557.50 487.20 C 560.29 482.19 560.35 476.31 562.12 470.95 C 562.46 466.58 563.25 461.68 561.19 457.62 L 562.10 458.15 C 561.05 454.71 559.56 451.39 557.54 448.41 C 555.56 446.24 552.90 444.86 550.56 443.13 C 543.29 439.53 534.91 439.13 526.98 440.12 C 515.05 442.13 503.47 445.78 491.92 449.33 Z" />
</g>
<g id="#38c958ff">
<path fill="#38c958" opacity="1.00" d=" M 902.20 473.18 C 905.20 440.58 908.33 407.99 911.65 375.43 C 914.14 378.60 916.02 382.19 918.26 385.53 C 919.90 387.69 919.81 390.48 919.68 393.06 C 917.19 418.84 914.83 444.64 912.45 470.42 C 909.14 471.70 905.76 472.88 902.20 473.18 Z" />
</g>
<g id="#2db148ff">
<path fill="#2db148" opacity="1.00" d=" M 1055.56 401.51 C 1058.97 395.28 1062.22 388.96 1065.78 382.81 C 1068.71 387.37 1071.35 392.12 1074.54 396.52 C 1071.65 401.09 1069.28 405.97 1066.67 410.70 C 1064.66 414.29 1063.07 418.22 1060.08 421.15 C 1058.91 420.34 1057.77 419.54 1056.62 418.74 C 1056.81 418.46 1057.19 417.90 1057.38 417.62 C 1055.15 414.45 1053.24 411.02 1050.34 408.40 C 1052.54 406.49 1054.17 404.05 1055.56 401.51 Z" />
</g>
<g id="#35c657ff">
<path fill="#35c657" opacity="1.00" d=" M 360.13 403.53 C 361.92 398.31 362.69 392.82 362.60 387.32 C 365.38 390.99 367.91 394.87 370.19 398.88 C 372.28 404.95 371.54 411.70 368.79 417.46 C 368.61 412.05 365.58 407.71 362.69 403.41 C 361.83 403.40 360.98 403.43 360.13 403.53 Z" />
</g>
<g id="#2eb74bff">
<path fill="#2eb74b" opacity="1.00" d=" M 360.13 403.53 C 360.98 403.43 361.83 403.40 362.69 403.41 C 365.58 407.71 368.61 412.05 368.79 417.46 C 368.27 422.23 364.57 425.80 362.33 429.86 C 361.96 429.17 361.21 427.79 360.83 427.10 C 361.70 426.26 362.57 425.43 363.44 424.60 C 359.33 423.10 357.82 418.94 356.68 415.11 C 356.25 415.96 355.82 416.82 355.40 417.69 C 354.99 417.16 354.17 416.08 353.76 415.55 C 356.21 411.73 358.94 407.97 360.13 403.53 Z" />
</g>
<g id="#34c453ff">
<path fill="#34c453" opacity="1.00" d=" M 268.22 404.53 C 271.12 408.79 274.12 413.00 276.82 417.40 C 276.08 424.61 274.43 431.71 274.28 438.97 C 270.38 440.30 266.47 441.91 262.29 442.04 C 264.06 431.03 265.52 419.97 267.03 408.92 C 267.25 407.41 267.72 405.96 268.22 404.53 Z" />
</g>
<g id="#2db249ff">
<path fill="#2db249" opacity="1.00" d=" M 776.34 419.37 C 779.54 415.27 783.21 411.47 785.62 406.82 C 788.03 410.89 790.72 414.80 793.06 418.91 C 794.20 420.91 792.97 423.16 791.73 424.78 C 776.94 443.26 762.11 461.73 747.20 480.12 C 744.12 483.81 741.56 487.97 737.89 491.14 C 736.72 492.24 735.45 493.43 735.28 495.13 C 734.51 499.06 733.83 503.02 732.58 506.84 C 732.33 506.19 731.85 504.89 731.61 504.24 C 731.09 505.48 730.59 506.74 730.07 507.99 C 729.87 503.92 731.45 500.15 732.28 496.25 C 733.00 493.94 731.47 491.86 730.58 489.86 C 729.98 492.78 730.26 496.60 726.66 497.53 C 727.50 491.51 727.55 485.37 728.68 479.39 C 730.04 476.40 732.55 474.13 734.53 471.55 C 748.48 454.17 762.43 436.78 776.34 419.37 Z" />
</g>
<g id="#218b36ff">
<path fill="#218b36" opacity="1.00" d=" M 1037.48 411.38 C 1041.92 411.43 1046.49 410.79 1050.34 408.40 C 1053.24 411.02 1055.15 414.45 1057.38 417.62 C 1057.19 417.90 1056.81 418.46 1056.62 418.74 C 1057.77 419.54 1058.91 420.34 1060.08 421.15 C 1056.74 424.20 1052.19 424.94 1047.89 425.48 C 1042.74 422.30 1041.04 415.99 1037.48 411.38 Z" />
</g>
<g id="#29a540ff">
<path fill="#29a540" opacity="1.00" d=" M 356.68 415.11 C 357.82 418.94 359.33 423.10 363.44 424.60 C 362.57 425.43 361.70 426.26 360.83 427.10 C 361.21 427.79 361.96 429.17 362.33 429.86 C 356.31 436.37 349.87 442.89 341.88 446.94 C 343.94 444.89 345.56 442.37 345.78 439.40 C 346.75 438.71 347.73 438.03 348.72 437.36 C 346.05 434.28 342.95 431.63 340.05 428.79 C 344.95 424.77 349.92 420.64 353.76 415.55 C 354.17 416.08 354.99 417.16 355.40 417.69 C 355.82 416.82 356.25 415.96 356.68 415.11 Z" />
</g>
<g id="#228f37ff">
<path fill="#228f37" opacity="1.00" d=" M 320.89 438.75 C 327.81 436.62 334.25 433.09 340.05 428.79 C 342.95 431.63 346.05 434.28 348.72 437.36 C 347.73 438.03 346.75 438.71 345.78 439.40 C 345.56 442.37 343.94 444.89 341.88 446.94 C 337.97 449.56 333.53 451.19 329.16 452.85 C 324.25 448.98 319.27 445.21 314.45 441.24 C 316.54 440.29 318.69 439.43 320.89 438.75 Z" />
</g>
<g id="#208b34ff">
<path fill="#208b34" opacity="1.00" d=" M 491.92 449.33 C 503.47 445.78 515.05 442.13 526.98 440.12 C 534.91 439.13 543.29 439.53 550.56 443.13 C 550.36 443.46 549.98 444.12 549.78 444.45 C 548.72 444.08 547.68 443.66 546.64 443.27 C 546.31 444.30 545.98 445.34 545.66 446.39 C 547.10 447.55 548.65 448.62 549.85 450.05 C 550.31 451.20 550.05 452.48 550.18 453.70 C 533.16 451.48 517.03 458.69 500.85 462.72 C 498.13 458.32 495.28 454.00 492.26 449.80 L 491.92 449.33 Z" />
</g>
<g id="#399342ff">
<path fill="#399342" opacity="1.00" d=" M 546.64 443.27 C 547.68 443.66 548.72 444.08 549.78 444.45 C 549.98 444.12 550.36 443.46 550.56 443.13 C 552.90 444.86 555.56 446.24 557.54 448.41 C 559.56 451.39 561.05 454.71 562.10 458.15 L 561.19 457.62 C 557.89 455.42 554.00 454.49 550.18 453.70 C 550.05 452.48 550.31 451.20 549.85 450.05 C 548.65 448.62 547.10 447.55 545.66 446.39 C 545.98 445.34 546.31 444.30 546.64 443.27 Z" />
</g>
<g id="#60ae6cff">
<path fill="#60ae6c" opacity="1.00" d=" M 666.51 445.67 C 673.12 450.77 679.14 456.63 685.10 462.48 C 686.32 464.30 687.51 466.14 688.76 467.94 C 688.65 468.50 688.45 469.62 688.34 470.18 C 684.68 467.73 681.61 464.56 678.29 461.71 C 672.99 457.55 669.68 451.47 666.51 445.67 Z" />
</g>
<g id="#228c35ff">
<path fill="#228c35" opacity="1.00" d=" M 260.44 456.20 C 271.30 453.27 282.08 450.06 292.91 447.03 C 301.61 454.49 310.34 461.95 319.15 469.29 C 318.07 470.34 316.99 471.39 315.92 472.45 C 311.05 468.48 306.62 463.89 301.27 460.58 C 290.81 463.89 280.23 466.85 269.64 469.73 C 266.51 465.26 263.17 460.94 260.44 456.20 Z" />
</g>
<g id="#45d162ff">
<path fill="#45d162" opacity="1.00" d=" M 581.44 464.20 C 581.32 458.67 581.06 453.14 581.41 447.61 C 583.55 450.81 585.39 454.20 587.56 457.39 C 590.72 461.25 590.04 466.58 590.00 471.23 C 588.62 465.53 583.13 462.05 582.42 456.09 C 582.22 458.80 581.95 461.52 581.44 464.20 Z" />
</g>
<g id="#32c553ff">
<path fill="#32c553" opacity="1.00" d=" M 492.26 449.80 C 495.28 454.00 498.13 458.32 500.85 462.72 C 498.81 481.21 496.26 499.65 494.05 518.13 C 493.43 524.02 492.29 529.86 492.12 535.81 C 488.47 536.90 484.82 537.98 481.11 538.80 C 481.58 530.14 483.05 521.58 484.07 512.98 C 486.20 495.29 488.48 477.62 490.64 459.94 C 491.05 456.54 491.48 453.14 492.26 449.80 Z" />
</g>
<g id="#2cb448ff">
<path fill="#2cb448" opacity="1.00" d=" M 991.15 460.84 C 992.71 458.76 994.17 456.61 995.50 454.37 C 997.52 457.98 999.93 461.35 1002.02 464.92 C 1003.64 467.76 1002.27 471.05 1001.26 473.85 L 1000.13 473.58 C 996.79 469.59 994.07 465.13 991.15 460.84 Z" />
</g>
<g id="#33c153ff">
<path fill="#33c153" opacity="1.00" d=" M 255.89 488.09 C 257.36 477.46 258.84 466.82 260.44 456.20 C 263.17 460.94 266.51 465.26 269.64 469.73 C 267.19 484.45 265.52 499.32 263.21 514.07 C 262.84 516.20 261.94 518.19 260.60 519.89 C 260.31 514.16 256.71 508.86 252.15 505.57 C 254.72 500.10 255.04 493.98 255.89 488.09 Z" />
</g>
<g id="#31bd51ff">
<path fill="#31bd51" opacity="1.00" d=" M 582.42 456.09 C 583.13 462.05 588.62 465.53 590.00 471.23 C 591.41 478.35 588.15 485.19 586.88 492.08 C 585.92 498.47 582.02 503.77 579.20 509.43 C 577.96 507.22 577.25 504.80 576.93 502.30 C 576.41 502.64 575.90 502.98 575.39 503.33 C 574.51 500.97 573.26 498.78 571.55 496.93 C 571.30 497.60 570.80 498.94 570.55 499.61 C 570.12 499.40 569.24 498.96 568.80 498.74 C 571.53 492.29 576.16 486.67 577.68 479.72 C 578.84 474.53 580.38 469.42 581.44 464.20 C 581.95 461.52 582.22 458.80 582.42 456.09 Z" />
</g>
<g id="#1f8a34ff">
<path fill="#1f8a34" opacity="1.00" d=" M 976.36 466.41 C 981.43 464.99 986.66 463.71 991.15 460.84 C 994.07 465.13 996.79 469.59 1000.13 473.58 C 998.01 476.82 993.80 477.32 990.47 478.63 C 957.01 487.93 923.63 497.51 890.13 506.64 C 887.27 502.21 884.46 497.76 881.64 493.31 C 885.97 491.43 890.60 490.43 895.13 489.15 C 922.21 481.58 949.27 473.92 976.36 466.41 Z" />
</g>
<g id="#5ab163ff">
<path fill="#5ab163" opacity="1.00" d=" M 685.10 462.48 C 692.99 468.98 700.67 475.79 708.06 482.87 C 710.23 484.49 709.08 487.19 708.81 489.39 C 702.04 483.03 695.36 476.57 688.27 470.56 L 688.34 470.18 C 688.45 469.62 688.65 468.50 688.76 467.94 C 687.51 466.14 686.32 464.30 685.10 462.48 Z" />
</g>
<g id="#379645ff">
<path fill="#379645" opacity="1.00" d=" M 319.15 469.29 C 324.23 473.36 328.98 477.82 334.08 481.87 C 335.44 483.08 337.24 483.42 339.01 483.56 C 338.10 483.77 337.19 483.98 336.28 484.19 C 340.23 487.95 342.86 492.78 345.99 497.19 C 342.94 495.69 340.55 493.23 337.95 491.11 C 330.67 484.82 323.23 478.71 315.92 472.45 C 316.99 471.39 318.07 470.34 319.15 469.29 Z" />
</g>
<g id="#218e36ff">
<path fill="#218e36" opacity="1.00" d=" M 348.06 479.28 C 349.15 479.80 350.61 479.97 351.26 481.12 C 352.93 484.08 355.19 486.63 357.34 489.24 C 356.67 490.92 356.03 492.61 355.43 494.32 C 352.57 496.11 349.34 496.99 345.99 497.19 C 342.86 492.78 340.23 487.95 336.28 484.19 C 337.19 483.98 338.10 483.77 339.01 483.56 C 342.31 482.85 345.53 481.57 348.06 479.28 Z" />
</g>
<g id="#32bd50ff">
<path fill="#32bd50" opacity="1.00" d=" M 726.66 497.53 C 730.26 496.60 729.98 492.78 730.58 489.86 C 731.47 491.86 733.00 493.94 732.28 496.25 C 731.45 500.15 729.87 503.92 730.07 507.99 C 730.59 506.74 731.09 505.48 731.61 504.24 C 731.85 504.89 732.33 506.19 732.58 506.84 C 733.83 503.02 734.51 499.06 735.28 495.13 C 735.45 493.43 736.72 492.24 737.89 491.14 C 736.47 496.34 736.47 501.76 735.77 507.07 C 734.70 516.41 733.90 525.78 732.72 535.11 C 732.28 539.03 732.25 543.30 729.70 546.56 C 726.68 542.06 724.02 537.32 721.15 532.72 C 722.51 529.99 723.49 527.05 723.79 524.01 C 724.67 515.18 725.44 506.33 726.66 497.53 Z" />
</g>
<g id="#2aab44ff">
<path fill="#2aab44" opacity="1.00" d=" M 571.55 496.93 C 573.26 498.78 574.51 500.97 575.39 503.33 C 575.90 502.98 576.41 502.64 576.93 502.30 C 577.25 504.80 577.96 507.22 579.20 509.43 C 577.20 513.22 575.08 517.01 571.91 519.97 C 568.17 523.68 565.01 527.92 561.20 531.55 C 560.87 530.05 560.54 528.56 560.22 527.06 C 561.65 526.75 563.03 526.28 564.47 525.96 C 563.03 523.44 561.29 521.12 559.31 519.02 C 560.02 518.16 560.72 517.31 561.44 516.47 C 560.89 515.83 560.34 515.18 559.80 514.56 C 558.82 515.24 557.85 515.93 556.88 516.63 C 556.27 516.40 555.05 515.96 554.44 515.74 C 559.16 510.02 565.04 505.18 568.80 498.74 C 569.24 498.96 570.12 499.40 570.55 499.61 C 570.80 498.94 571.30 497.60 571.55 496.93 Z" />
</g>
<g id="#28a743ff">
<path fill="#28a743" opacity="1.00" d=" M 249.10 508.36 C 250.17 507.49 251.17 506.54 252.15 505.57 C 256.71 508.86 260.31 514.16 260.60 519.89 C 259.90 520.50 259.21 521.12 258.53 521.77 C 258.32 520.14 257.97 518.45 256.78 517.24 C 254.11 514.36 252.54 510.49 249.10 508.36 Z" />
</g>
<g id="#218c35ff">
<path fill="#218c35" opacity="1.00" d=" M 236.81 511.63 C 241.08 511.42 245.40 510.63 249.10 508.36 C 252.54 510.49 254.11 514.36 256.78 517.24 C 257.97 518.45 258.32 520.14 258.53 521.77 C 254.74 523.59 250.10 526.13 245.93 524.21 C 242.26 520.54 240.07 515.65 236.81 511.63 Z" />
</g>
<g id="#269d3eff">
<path fill="#269d3e" opacity="1.00" d=" M 556.88 516.63 C 557.85 515.93 558.82 515.24 559.80 514.56 C 560.34 515.18 560.89 515.83 561.44 516.47 C 560.72 517.31 560.02 518.16 559.31 519.02 C 561.29 521.12 563.03 523.44 564.47 525.96 C 563.03 526.28 561.65 526.75 560.22 527.06 C 560.54 528.56 560.87 530.05 561.20 531.55 C 553.66 537.25 547.05 544.29 538.32 548.24 C 538.33 545.79 539.02 543.45 540.76 541.66 C 540.24 538.50 538.28 536.08 535.38 534.78 C 536.25 533.31 537.11 531.80 537.41 530.09 C 543.02 525.22 549.11 520.91 554.44 515.74 C 555.05 515.96 556.27 516.40 556.88 516.63 Z" />
</g>
<g id="#208b35ff">
<path fill="#208b35" opacity="1.00" d=" M 514.94 541.82 C 523.06 539.22 530.02 534.18 537.41 530.09 C 537.11 531.80 536.25 533.31 535.38 534.78 C 538.28 536.08 540.24 538.50 540.76 541.66 C 539.02 543.45 538.33 545.79 538.32 548.24 C 530.53 553.61 521.42 556.31 512.66 559.60 C 498.16 563.79 483.62 567.87 469.07 571.88 C 466.23 567.64 463.43 563.37 460.59 559.13 C 460.77 558.91 461.13 558.47 461.31 558.25 C 479.03 552.31 497.58 548.88 514.94 541.82 Z" />
</g>
<g id="#0a944eff">
<path fill="#0a944e" opacity="1.00" d=" M 1230.45 557.15 C 1233.67 557.09 1236.90 557.06 1240.12 556.77 C 1240.12 558.54 1240.13 560.32 1240.16 562.10 C 1236.83 560.61 1233.59 558.96 1230.45 557.15 Z" />
</g>
<g id="#8fc664ff">
<path fill="#8fc664" opacity="1.00" d=" M 1240.12 556.77 C 1243.38 556.58 1246.63 557.05 1249.87 557.45 C 1246.83 559.39 1243.60 561.04 1240.16 562.10 C 1240.13 560.32 1240.12 558.54 1240.12 556.77 Z" />
</g>
<g id="#b0f7edff">
<path fill="#b0f7ed" opacity="1.00" d=" M 282.68 603.67 C 286.13 602.03 289.39 599.93 293.03 598.71 C 297.28 599.30 301.39 601.52 304.64 604.30 C 305.26 608.04 304.85 611.87 304.69 615.64 C 301.21 617.39 297.76 619.19 294.20 620.76 C 293.94 616.94 294.05 613.13 294.07 609.31 L 293.32 608.95 C 289.77 607.20 286.25 605.37 282.68 603.67 Z" />
<path fill="#b0f7ed" opacity="1.00" d=" M 237.41 634.82 C 240.70 632.47 244.32 630.56 248.14 629.23 C 251.91 630.10 255.65 631.99 258.71 634.36 C 259.64 638.26 259.90 642.72 258.64 646.54 C 255.19 648.44 251.45 649.76 247.78 651.19 C 247.77 647.51 247.76 643.83 247.74 640.15 C 244.26 638.45 240.80 636.69 237.41 634.82 Z" />
</g>
</svg>
