<?xml version="1.0" encoding="UTF-8" ?>
<!DOCTYPE svg PUBLIC "-//W3C//DTD SVG 1.1//EN" "http://www.w3.org/Graphics/SVG/1.1/DTD/svg11.dtd">
<svg width="640pt" height="540pt" viewBox="0 0 640 540" version="1.1" xmlns="http://www.w3.org/2000/svg">
<g id="#fff200ff">
<path fill="#fff200" opacity="1.00" d=" M 0.00 0.00 L 640.00 0.00 L 640.00 540.00 L 0.00 540.00 L 0.00 0.00 M 124.03 18.06 C 123.80 30.20 123.54 42.35 123.36 54.50 C 126.65 55.44 129.84 56.72 133.18 57.44 C 136.59 57.79 140.02 57.49 143.43 57.55 C 143.28 64.04 143.49 70.53 143.36 77.02 C 142.12 80.23 140.91 83.45 139.76 86.70 C 140.97 87.17 142.18 87.64 143.39 88.11 C 143.40 95.75 143.38 103.39 143.40 111.03 C 143.37 113.75 143.70 116.55 142.84 119.20 C 135.90 109.17 128.87 99.20 121.88 89.21 C 125.13 86.79 128.64 84.73 131.65 82.00 C 133.82 81.23 135.49 79.58 137.21 78.13 C 130.18 68.24 123.37 58.19 116.25 48.37 C 113.20 50.09 110.15 51.79 107.10 53.50 C 98.66 59.36 90.56 65.71 81.88 71.20 C 77.97 70.82 74.04 70.88 70.13 70.96 C 69.93 78.48 70.41 86.01 69.85 93.51 C 66.27 93.42 62.69 93.44 59.11 93.42 C 56.82 93.54 54.53 93.71 52.25 93.91 C 52.24 100.66 52.24 107.42 52.25 114.17 C 48.45 114.14 44.64 114.19 40.86 114.57 C 37.68 114.50 34.52 114.88 31.36 115.05 C 31.39 125.59 31.37 136.14 31.37 146.68 C 29.80 146.70 28.22 146.73 26.65 146.78 C 26.62 155.04 26.68 163.30 26.61 171.56 C 28.20 171.59 29.78 171.61 31.37 171.63 C 31.47 177.00 31.20 182.38 31.45 187.75 C 34.90 188.87 39.05 188.19 42.76 188.21 C 47.68 188.50 52.62 188.06 57.53 188.53 C 57.41 198.76 57.38 208.99 57.53 219.22 C 59.65 219.24 61.76 219.25 63.88 219.28 C 63.88 208.88 63.87 198.49 63.88 188.10 C 71.13 188.50 78.41 188.57 85.66 188.22 C 85.75 198.38 85.88 208.55 85.60 218.70 C 87.67 219.54 89.94 219.30 92.13 219.31 C 92.15 208.92 92.08 198.53 92.17 188.15 C 101.25 188.85 110.36 188.04 119.45 187.91 C 119.56 176.14 119.47 164.37 119.50 152.60 C 121.20 152.47 123.14 152.88 124.53 151.64 C 129.64 148.08 134.86 144.69 139.96 141.10 C 142.68 139.30 145.17 136.85 148.59 136.55 C 148.99 135.46 149.31 134.34 149.57 133.20 L 149.96 134.39 C 152.41 133.26 151.78 131.37 150.43 129.73 C 154.52 118.35 159.43 107.23 163.06 95.70 C 166.18 96.89 169.25 98.21 172.40 99.32 C 175.64 100.38 178.91 101.38 182.19 102.31 C 186.47 90.96 190.88 79.65 195.11 68.27 C 191.95 67.14 188.76 66.06 185.57 65.02 L 185.72 64.65 C 179.76 62.46 173.83 60.17 167.95 57.79 C 169.04 45.62 168.57 33.34 169.02 21.13 C 165.75 20.02 162.47 18.95 159.18 17.90 C 147.47 17.94 135.75 18.05 124.03 18.06 M 472.82 23.19 C 472.64 140.80 472.81 258.41 472.73 376.01 C 472.65 378.83 472.65 381.66 473.16 384.45 C 494.16 384.37 515.16 384.87 536.17 384.98 C 539.65 385.02 543.14 384.97 546.62 384.83 C 546.53 263.91 546.54 142.98 546.62 22.06 C 543.14 21.73 539.66 21.66 536.18 21.74 C 515.06 22.17 493.94 22.69 472.82 23.19 M 556.65 23.16 C 556.28 75.77 556.66 128.39 556.46 181.00 C 556.40 182.90 556.62 184.80 557.14 186.64 C 555.27 189.49 554.16 192.76 553.72 196.13 C 553.72 197.93 553.92 199.72 554.10 201.52 L 554.38 200.83 C 554.62 203.15 555.64 205.36 556.84 207.34 C 556.20 212.53 556.60 217.77 556.51 222.99 C 556.54 276.72 556.43 330.45 556.56 384.19 C 577.97 384.74 599.41 384.72 620.84 384.99 C 624.15 385.03 627.46 385.00 630.78 384.89 C 630.72 263.93 630.76 142.97 630.76 22.02 C 627.45 21.78 624.14 21.70 620.84 21.76 C 599.44 22.12 578.05 22.78 556.65 23.16 M 77.75 236.05 C 77.28 240.32 76.78 244.58 76.42 248.86 C 77.85 249.77 79.27 250.70 80.70 251.62 C 80.53 290.52 80.66 329.43 80.64 368.34 C 85.08 368.43 89.53 368.44 93.97 368.48 L 95.15 368.44 C 99.77 368.45 104.38 368.43 109.00 368.35 C 109.00 335.11 109.00 301.87 109.00 268.62 C 119.22 274.87 129.50 281.01 139.69 287.32 C 140.80 288.07 142.11 288.45 143.39 288.84 C 143.58 290.22 143.76 291.61 143.82 293.01 C 143.81 330.21 143.82 367.40 143.81 404.60 C 148.52 404.67 153.24 404.68 157.95 404.75 C 162.76 404.70 167.57 404.62 172.38 404.61 C 172.37 365.97 172.38 327.32 172.38 288.68 C 233.73 280.96 295.07 273.15 356.40 265.33 C 356.48 284.19 356.42 303.04 356.44 321.90 C 361.00 321.96 365.56 321.93 370.13 321.96 C 374.88 321.93 379.63 321.94 384.38 321.94 C 384.34 301.91 384.43 281.88 384.34 261.85 C 397.58 260.15 410.82 258.40 424.07 256.74 C 424.05 293.99 424.09 331.24 424.06 368.49 C 428.73 368.57 433.42 368.57 438.10 368.63 C 442.79 368.55 447.49 368.59 452.19 368.49 C 452.14 330.08 452.27 291.67 452.13 253.26 C 453.93 253.02 455.74 252.76 457.55 252.49 C 458.03 248.22 458.57 243.96 459.01 239.69 L 458.63 239.75 C 434.89 225.54 410.81 211.89 386.96 197.85 C 283.88 210.51 180.83 223.38 77.75 236.05 Z" />
<path fill="#fff200" opacity="1.00" d=" M 76.04 75.95 C 77.49 76.03 78.94 76.12 80.39 76.19 C 84.30 82.00 88.44 87.65 92.35 93.46 C 86.91 93.48 81.46 93.58 76.02 93.36 C 75.97 87.56 75.96 81.75 76.04 75.95 Z" />
<path fill="#fff200" opacity="1.00" d=" M 149.11 90.30 C 152.04 91.36 154.90 92.61 157.77 93.80 C 154.86 101.20 152.17 108.67 149.16 116.04 C 149.07 107.46 149.16 98.88 149.11 90.30 Z" />
<path fill="#fff200" opacity="1.00" d=" M 106.67 99.68 C 109.92 97.70 113.04 95.53 116.11 93.28 C 124.90 106.11 134.05 118.69 142.76 131.58 C 142.62 131.83 142.35 132.33 142.22 132.57 C 134.56 137.42 127.51 143.25 119.51 147.53 C 119.48 136.48 119.53 125.44 119.49 114.39 C 112.07 114.36 104.65 114.36 97.24 114.30 C 97.24 109.77 97.27 105.23 97.27 100.69 C 98.09 101.69 98.91 102.70 99.73 103.70 C 102.08 102.43 104.45 101.17 106.67 99.68 Z" />
</g>
<g id="#ff8639ff">
<path fill="#ff8639" opacity="1.00" d=" M 124.03 18.06 C 135.75 18.05 147.47 17.94 159.18 17.90 C 158.92 30.03 159.00 42.18 158.33 54.30 C 146.68 54.42 135.02 54.38 123.36 54.50 C 123.54 42.35 123.80 30.20 124.03 18.06 Z" />
<path fill="#ff8639" opacity="1.00" d=" M 150.13 56.62 C 152.70 55.49 155.45 54.86 158.27 55.19 C 161.55 55.81 164.78 56.73 167.95 57.79 C 173.83 60.17 179.76 62.46 185.72 64.65 L 185.57 65.02 C 181.05 76.40 176.83 87.90 172.40 99.32 C 169.25 98.21 166.18 96.89 163.06 95.70 C 161.30 95.05 159.52 94.48 157.77 93.80 C 154.90 92.61 152.04 91.36 149.11 90.30 C 147.20 89.59 145.29 88.86 143.39 88.11 C 142.18 87.64 140.97 87.17 139.76 86.70 C 140.91 83.45 142.12 80.23 143.36 77.02 C 145.33 71.73 147.61 66.55 149.18 61.13 C 150.35 59.95 151.43 58.14 150.13 56.62 Z" />
</g>
<g id="#be6e40ff">
<path fill="#be6e40" opacity="1.00" d=" M 159.18 17.90 C 162.47 18.95 165.75 20.02 169.02 21.13 C 168.57 33.34 169.04 45.62 167.95 57.79 C 164.78 56.73 161.55 55.81 158.27 55.19 L 158.33 54.30 C 159.00 42.18 158.92 30.03 159.18 17.90 Z" />
</g>
<g id="#fcc438ff">
<path fill="#fcc438" opacity="1.00" d=" M 472.82 23.19 C 493.94 22.69 515.06 22.17 536.18 21.74 C 536.34 124.82 536.20 227.90 536.23 330.97 C 536.20 348.97 536.36 366.98 536.17 384.98 C 515.16 384.87 494.16 384.37 473.16 384.45 C 472.65 381.66 472.65 378.83 472.73 376.01 C 472.81 258.41 472.64 140.80 472.82 23.19 M 521.32 181.49 C 515.40 182.09 511.42 187.44 509.45 192.62 C 509.30 194.01 509.10 195.40 508.87 196.79 C 509.02 200.31 509.42 203.90 511.31 206.97 C 513.95 210.31 517.43 214.08 522.06 213.93 C 526.57 213.15 529.28 208.82 530.29 204.67 L 530.79 204.68 C 531.33 201.20 531.59 197.67 531.32 194.15 C 530.95 192.75 530.63 191.35 530.33 189.94 C 528.79 186.02 526.03 181.62 521.32 181.49 Z" />
<path fill="#fcc438" opacity="1.00" d=" M 556.65 23.16 C 578.05 22.78 599.44 22.12 620.84 21.76 C 620.67 126.85 620.85 231.94 620.74 337.03 C 620.87 353.02 620.63 369.00 620.84 384.99 C 599.41 384.72 577.97 384.74 556.56 384.19 C 556.43 330.45 556.54 276.72 556.51 222.99 C 556.60 217.77 556.20 212.53 556.84 207.34 C 557.30 207.82 558.24 208.78 558.71 209.26 C 562.76 213.19 568.65 215.61 574.30 214.27 C 579.22 212.64 582.19 207.87 583.67 203.16 C 584.34 199.86 584.42 196.47 584.14 193.13 C 583.51 190.61 582.57 188.17 581.37 185.88 C 579.37 183.06 576.68 180.29 573.06 179.89 C 566.95 178.99 561.17 182.29 557.14 186.64 C 556.62 184.80 556.40 182.90 556.46 181.00 C 556.66 128.39 556.28 75.77 556.65 23.16 Z" />
</g>
<g id="#e7bc2fff">
<path fill="#e7bc2f" opacity="1.00" d=" M 536.18 21.74 C 539.66 21.66 543.14 21.73 546.62 22.06 C 546.54 142.98 546.53 263.91 546.62 384.83 C 543.14 384.97 539.65 385.02 536.17 384.98 C 536.36 366.98 536.20 348.97 536.23 330.97 C 536.20 227.90 536.34 124.82 536.18 21.74 Z" />
<path fill="#e7bc2f" opacity="1.00" d=" M 620.84 21.76 C 624.14 21.70 627.45 21.78 630.76 22.02 C 630.76 142.97 630.72 263.93 630.78 384.89 C 627.46 385.00 624.15 385.03 620.84 384.99 C 620.63 369.00 620.87 353.02 620.74 337.03 C 620.85 231.94 620.67 126.85 620.84 21.76 Z" />
</g>
<g id="#fc8f4bff">
<path fill="#fc8f4b" opacity="1.00" d=" M 107.10 53.50 C 110.15 51.79 113.20 50.09 116.25 48.37 C 123.37 58.19 130.18 68.24 137.21 78.13 C 135.49 79.58 133.82 81.23 131.65 82.00 C 130.51 82.40 129.38 82.83 128.26 83.27 C 120.94 73.54 114.37 63.27 107.10 53.50 Z" />
</g>
<g id="#ee7a34ff">
<path fill="#ee7a34" opacity="1.00" d=" M 81.88 71.20 C 90.56 65.71 98.66 59.36 107.10 53.50 C 114.37 63.27 120.94 73.54 128.26 83.27 C 125.32 85.15 122.62 87.38 119.76 89.37 C 115.38 92.78 110.21 95.28 106.67 99.68 C 104.45 101.17 102.08 102.43 99.73 103.70 C 98.91 102.70 98.09 101.69 97.27 100.69 C 97.27 98.35 97.28 96.01 97.29 93.67 C 95.64 93.59 93.99 93.50 92.35 93.46 C 88.44 87.65 84.30 82.00 80.39 76.19 C 80.82 74.51 81.22 72.81 81.88 71.20 Z" />
</g>
<g id="#b06e53ff">
<path fill="#b06e53" opacity="1.00" d=" M 123.36 54.50 C 135.02 54.38 146.68 54.42 158.33 54.30 L 158.27 55.19 C 155.45 54.86 152.70 55.49 150.13 56.62 L 149.55 56.79 C 147.55 56.48 145.56 56.11 143.55 55.87 C 143.52 56.29 143.46 57.13 143.43 57.55 C 140.02 57.49 136.59 57.79 133.18 57.44 C 129.84 56.72 126.65 55.44 123.36 54.50 Z" />
</g>
<g id="#b67b5bff">
<path fill="#b67b5b" opacity="1.00" d=" M 143.55 55.87 C 145.56 56.11 147.55 56.48 149.55 56.79 C 148.99 58.19 148.87 59.63 149.18 61.13 C 147.61 66.55 145.33 71.73 143.36 77.02 C 143.49 70.53 143.28 64.04 143.43 57.55 C 143.46 57.13 143.52 56.29 143.55 55.87 Z" />
<path fill="#b67b5b" opacity="1.00" d=" M 143.39 88.11 C 145.29 88.86 147.20 89.59 149.11 90.30 C 149.16 98.88 149.07 107.46 149.16 116.04 C 152.17 108.67 154.86 101.20 157.77 93.80 C 159.52 94.48 161.30 95.05 163.06 95.70 C 160.16 99.04 159.13 103.42 157.54 107.44 C 154.89 114.40 152.43 121.43 149.41 128.24 C 147.22 125.23 144.92 122.29 142.84 119.20 C 143.70 116.55 143.37 113.75 143.40 111.03 C 143.38 103.39 143.40 95.75 143.39 88.11 Z" />
</g>
<g id="#f0c61bff">
<path fill="#f0c61b" opacity="1.00" d=" M 149.55 56.79 L 150.13 56.62 C 151.43 58.14 150.35 59.95 149.18 61.13 C 148.87 59.63 148.99 58.19 149.55 56.79 Z" />
</g>
<g id="#aa6038ff">
<path fill="#aa6038" opacity="1.00" d=" M 172.40 99.32 C 176.83 87.90 181.05 76.40 185.57 65.02 C 188.76 66.06 191.95 67.14 195.11 68.27 C 190.88 79.65 186.47 90.96 182.19 102.31 C 178.91 101.38 175.64 100.38 172.40 99.32 Z" />
</g>
<g id="#c0f82dff">
<path fill="#c0f82d" opacity="1.00" d=" M 70.13 70.96 C 74.04 70.88 77.97 70.82 81.88 71.20 C 81.22 72.81 80.82 74.51 80.39 76.19 C 78.94 76.12 77.49 76.03 76.04 75.95 C 75.96 81.75 75.97 87.56 76.02 93.36 C 81.46 93.58 86.91 93.48 92.35 93.46 C 93.99 93.50 95.64 93.59 97.29 93.67 C 97.28 96.01 97.27 98.35 97.27 100.69 C 97.27 105.23 97.24 109.77 97.24 114.30 C 84.52 114.32 71.80 114.23 59.08 114.23 C 59.12 107.29 59.17 100.36 59.11 93.42 C 62.69 93.44 66.27 93.42 69.85 93.51 C 70.41 86.01 69.93 78.48 70.13 70.96 Z" />
</g>
<g id="#bf8e62ff">
<path fill="#bf8e62" opacity="1.00" d=" M 128.26 83.27 C 129.38 82.83 130.51 82.40 131.65 82.00 C 128.64 84.73 125.13 86.79 121.88 89.21 C 128.87 99.20 135.90 109.17 142.84 119.20 C 144.92 122.29 147.22 125.23 149.41 128.24 C 149.67 128.61 150.18 129.36 150.43 129.73 C 151.78 131.37 152.41 133.26 149.96 134.39 L 149.57 133.20 C 148.93 131.39 148.16 129.60 147.06 128.01 C 137.80 115.25 129.22 101.99 119.76 89.37 C 122.62 87.38 125.32 85.15 128.26 83.27 Z" />
</g>
<g id="#ae7557ff">
<path fill="#ae7557" opacity="1.00" d=" M 106.67 99.68 C 110.21 95.28 115.38 92.78 119.76 89.37 C 129.22 101.99 137.80 115.25 147.06 128.01 C 148.16 129.60 148.93 131.39 149.57 133.20 C 148.93 134.39 148.52 136.22 146.80 135.96 C 145.18 135.56 144.60 133.76 143.52 132.68 C 143.20 132.65 142.54 132.60 142.22 132.57 C 142.35 132.33 142.62 131.83 142.76 131.58 C 134.05 118.69 124.90 106.11 116.11 93.28 C 113.04 95.53 109.92 97.70 106.67 99.68 Z" />
</g>
<g id="#c6e83cff">
<path fill="#c6e83c" opacity="1.00" d=" M 52.25 93.91 C 54.53 93.71 56.82 93.54 59.11 93.42 C 59.17 100.36 59.12 107.29 59.08 114.23 C 56.81 114.21 54.53 114.19 52.25 114.17 C 52.24 107.42 52.24 100.66 52.25 93.91 Z" />
</g>
<g id="#845841ff">
<path fill="#845841" opacity="1.00" d=" M 157.54 107.44 C 159.13 103.42 160.16 99.04 163.06 95.70 C 159.43 107.23 154.52 118.35 150.43 129.73 C 150.18 129.36 149.67 128.61 149.41 128.24 C 152.43 121.43 154.89 114.40 157.54 107.44 Z" />
<path fill="#845841" opacity="1.00" d=" M 511.31 206.97 C 511.78 205.79 512.26 204.61 512.75 203.44 C 518.49 204.83 524.43 204.53 530.29 204.67 C 529.28 208.82 526.57 213.15 522.06 213.93 C 517.43 214.08 513.95 210.31 511.31 206.97 Z" />
</g>
<g id="#f88038ff">
<path fill="#f88038" opacity="1.00" d=" M 40.86 114.57 C 44.64 114.19 48.45 114.14 52.25 114.17 C 54.53 114.19 56.81 114.21 59.08 114.23 C 71.80 114.23 84.52 114.32 97.24 114.30 C 104.65 114.36 112.07 114.36 119.49 114.39 C 119.53 125.44 119.48 136.48 119.51 147.53 C 119.51 149.22 119.50 150.91 119.50 152.60 C 119.47 164.37 119.56 176.14 119.45 187.91 C 110.36 188.04 101.25 188.85 92.17 188.15 C 90.00 188.04 87.83 188.08 85.66 188.22 C 78.41 188.57 71.13 188.50 63.88 188.10 C 61.77 188.02 59.65 188.04 57.53 188.05 C 57.60 198.44 57.61 208.83 57.53 219.22 C 57.38 208.99 57.41 198.76 57.53 188.53 C 52.62 188.06 47.68 188.50 42.76 188.21 C 44.13 187.69 45.46 187.11 46.80 186.54 C 47.38 173.05 46.83 159.53 47.02 146.03 C 46.86 135.80 47.38 125.56 46.79 115.34 C 44.81 115.06 42.84 114.77 40.86 114.57 M 65.46 138.00 C 65.82 142.33 71.45 144.59 74.54 141.49 C 77.57 138.86 75.13 132.98 71.04 133.60 C 68.25 133.48 66.59 135.80 65.46 138.00 M 95.15 134.24 C 92.18 135.13 92.10 138.26 92.10 140.83 C 94.49 143.57 99.56 144.21 101.46 140.60 C 103.71 136.80 98.98 132.20 95.15 134.24 M 65.36 171.66 C 77.85 171.79 90.34 171.75 102.83 171.80 C 102.77 166.78 102.73 161.77 102.75 156.75 C 101.00 156.75 99.24 156.75 97.49 156.75 C 97.49 160.29 97.48 163.83 97.47 167.37 C 88.44 167.40 79.41 167.31 70.37 167.42 C 70.22 163.81 70.22 160.19 70.24 156.58 C 68.62 156.57 67.00 156.55 65.39 156.54 C 65.32 161.58 65.35 166.62 65.36 171.66 Z" />
</g>
<g id="#fe7e42ff">
<path fill="#fe7e42" opacity="1.00" d=" M 31.36 115.05 C 34.52 114.88 37.68 114.50 40.86 114.57 C 42.84 114.77 44.81 115.06 46.79 115.34 C 47.38 125.56 46.86 135.80 47.02 146.03 C 46.83 159.53 47.38 173.05 46.80 186.54 C 45.46 187.11 44.13 187.69 42.76 188.21 C 39.05 188.19 34.90 188.87 31.45 187.75 C 31.20 182.38 31.47 177.00 31.37 171.63 C 31.77 171.63 32.58 171.64 32.98 171.65 C 33.02 165.14 32.98 158.63 33.01 152.11 C 35.24 152.13 37.46 152.14 39.68 152.16 C 39.68 150.34 39.68 148.52 39.68 146.71 C 36.91 146.68 34.14 146.66 31.37 146.68 C 31.37 136.14 31.39 125.59 31.36 115.05 Z" />
</g>
<g id="#2a2a2bff">
<path fill="#2a2a2b" opacity="1.00" d=" M 119.51 147.53 C 127.51 143.25 134.56 137.42 142.22 132.57 C 142.54 132.60 143.20 132.65 143.52 132.68 C 144.60 133.76 145.18 135.56 146.80 135.96 C 148.52 136.22 148.93 134.39 149.57 133.20 C 149.31 134.34 148.99 135.46 148.59 136.55 C 145.17 136.85 142.68 139.30 139.96 141.10 C 134.86 144.69 129.64 148.08 124.53 151.64 C 123.14 152.88 121.20 152.47 119.50 152.60 C 119.50 150.91 119.51 149.22 119.51 147.53 Z" />
<path fill="#2a2a2b" opacity="1.00" d=" M 65.46 138.00 C 66.59 135.80 68.25 133.48 71.04 133.60 C 75.13 132.98 77.57 138.86 74.54 141.49 C 71.45 144.59 65.82 142.33 65.46 138.00 Z" />
<path fill="#2a2a2b" opacity="1.00" d=" M 95.15 134.24 C 98.98 132.20 103.71 136.80 101.46 140.60 C 99.56 144.21 94.49 143.57 92.10 140.83 C 92.10 138.26 92.18 135.13 95.15 134.24 Z" />
<path fill="#2a2a2b" opacity="1.00" d=" M 26.65 146.78 C 28.22 146.73 29.80 146.70 31.37 146.68 C 34.14 146.66 36.91 146.68 39.68 146.71 C 39.68 148.52 39.68 150.34 39.68 152.16 C 37.46 152.14 35.24 152.13 33.01 152.11 C 32.98 158.63 33.02 165.14 32.98 171.65 C 32.58 171.64 31.77 171.63 31.37 171.63 C 29.78 171.61 28.20 171.59 26.61 171.56 C 26.68 163.30 26.62 155.04 26.65 146.78 Z" />
<path fill="#2a2a2b" opacity="1.00" d=" M 65.36 171.66 C 65.35 166.62 65.32 161.58 65.39 156.54 C 67.00 156.55 68.62 156.57 70.24 156.58 C 70.22 160.19 70.22 163.81 70.37 167.42 C 79.41 167.31 88.44 167.40 97.47 167.37 C 97.48 163.83 97.49 160.29 97.49 156.75 C 99.24 156.75 101.00 156.75 102.75 156.75 C 102.73 161.77 102.77 166.78 102.83 171.80 C 90.34 171.75 77.85 171.79 65.36 171.66 Z" />
<path fill="#2a2a2b" opacity="1.00" d=" M 57.53 188.05 C 59.65 188.04 61.77 188.02 63.88 188.10 C 63.87 198.49 63.88 208.88 63.88 219.28 C 61.76 219.25 59.65 219.24 57.53 219.22 C 57.61 208.83 57.60 198.44 57.53 188.05 Z" />
<path fill="#2a2a2b" opacity="1.00" d=" M 85.66 188.22 C 87.83 188.08 90.00 188.04 92.17 188.15 C 92.08 198.53 92.15 208.92 92.13 219.31 C 89.94 219.30 87.67 219.54 85.60 218.70 C 85.88 208.55 85.75 198.38 85.66 188.22 Z" />
</g>
<g id="#e29a72ff">
<path fill="#e29a72" opacity="1.00" d=" M 557.14 186.64 C 561.17 182.29 566.95 178.99 573.06 179.89 C 576.68 180.29 579.37 183.06 581.37 185.88 C 575.89 192.46 566.60 191.27 558.97 191.77 C 556.18 191.49 554.87 194.09 553.72 196.13 C 554.16 192.76 555.27 189.49 557.14 186.64 Z" />
</g>
<g id="#e59a72ff">
<path fill="#e59a72" opacity="1.00" d=" M 521.32 181.49 C 526.03 181.62 528.79 186.02 530.33 189.94 C 523.42 191.42 516.02 189.53 509.45 192.62 C 511.42 187.44 515.40 182.09 521.32 181.49 Z" />
</g>
<g id="#c48562ff">
<path fill="#c48562" opacity="1.00" d=" M 558.97 191.77 C 566.60 191.27 575.89 192.46 581.37 185.88 C 582.57 188.17 583.51 190.61 584.14 193.13 C 575.81 199.20 565.14 198.43 555.40 198.31 C 555.14 198.94 554.63 200.20 554.38 200.83 L 554.10 201.52 C 553.92 199.72 553.72 197.93 553.72 196.13 C 554.87 194.09 556.18 191.49 558.97 191.77 Z" />
</g>
<g id="#cf8c67ff">
<path fill="#cf8c67" opacity="1.00" d=" M 509.45 192.62 C 516.02 189.53 523.42 191.42 530.33 189.94 C 530.63 191.35 530.95 192.75 531.32 194.15 C 527.55 194.73 523.77 195.38 519.96 195.46 C 516.24 195.62 512.28 194.94 508.87 196.79 C 509.10 195.40 509.30 194.01 509.45 192.62 Z" />
</g>
<g id="#a36e52ff">
<path fill="#a36e52" opacity="1.00" d=" M 555.40 198.31 C 565.14 198.43 575.81 199.20 584.14 193.13 C 584.42 196.47 584.34 199.86 583.67 203.16 C 575.53 206.31 566.72 205.99 558.24 204.70 C 558.39 206.22 558.54 207.74 558.71 209.26 C 558.24 208.78 557.30 207.82 556.84 207.34 C 555.64 205.36 554.62 203.15 554.38 200.83 C 554.63 200.20 555.14 198.94 555.40 198.31 Z" />
</g>
<g id="#b07658ff">
<path fill="#b07658" opacity="1.00" d=" M 519.96 195.46 C 523.77 195.38 527.55 194.73 531.32 194.15 C 531.59 197.67 531.33 201.20 530.79 204.68 L 530.29 204.67 C 524.43 204.53 518.49 204.83 512.75 203.44 C 512.26 204.61 511.78 205.79 511.31 206.97 C 509.42 203.90 509.02 200.31 508.87 196.79 C 512.28 194.94 516.24 195.62 519.96 195.46 Z" />
</g>
<g id="#eaa27cff">
<path fill="#eaa27c" opacity="1.00" d=" M 77.75 236.05 C 180.83 223.38 283.88 210.51 386.96 197.85 C 410.81 211.89 434.89 225.54 458.63 239.75 C 433.74 243.19 408.78 246.08 383.86 249.27 C 305.51 259.24 227.14 269.07 148.78 278.98 C 125.09 264.70 101.42 250.36 77.75 236.05 M 262.06 219.86 C 250.67 220.29 239.45 222.52 228.11 223.53 C 219.59 223.79 211.20 225.44 202.73 226.24 C 213.21 233.54 224.36 239.77 234.94 246.91 C 239.03 249.40 243.31 251.59 247.15 254.48 C 258.92 253.35 270.57 251.09 282.39 250.59 C 291.21 249.52 300.03 248.30 308.86 247.31 C 317.08 247.09 325.18 245.61 333.34 244.72 C 318.33 235.25 303.42 225.64 288.10 216.67 C 279.41 217.62 270.75 218.87 262.06 219.86 Z" />
</g>
<g id="#7e543eff">
<path fill="#7e543e" opacity="1.00" d=" M 558.24 204.70 C 566.72 205.99 575.53 206.31 583.67 203.16 C 582.19 207.87 579.22 212.64 574.30 214.27 C 568.65 215.61 562.76 213.19 558.71 209.26 C 558.54 207.74 558.39 206.22 558.24 204.70 Z" />
</g>
<g id="#ffffffff">
<path fill="#ffffff" opacity="1.00" d=" M 262.06 219.86 C 270.75 218.87 279.41 217.62 288.10 216.67 C 303.42 225.64 318.33 235.25 333.34 244.72 C 325.18 245.61 317.08 247.09 308.86 247.31 C 300.03 248.30 291.21 249.52 282.39 250.59 C 270.57 251.09 258.92 253.35 247.15 254.48 C 243.31 251.59 239.03 249.40 234.94 246.91 C 224.36 239.77 213.21 233.54 202.73 226.24 C 211.20 225.44 219.59 223.79 228.11 223.53 C 239.45 222.52 250.67 220.29 262.06 219.86 M 243.14 224.71 C 236.41 225.97 229.46 225.87 222.86 227.71 C 223.31 228.35 223.77 228.99 224.24 229.64 C 226.79 230.06 229.38 230.67 231.98 230.23 C 245.65 228.42 259.35 226.88 273.01 225.07 C 277.13 224.50 281.32 224.34 285.32 223.15 C 284.52 220.56 281.33 220.66 279.12 220.58 C 267.07 221.47 255.17 223.65 243.14 224.71 M 286.10 229.73 C 269.73 231.35 253.34 232.80 236.97 234.38 C 235.86 234.36 235.50 235.56 234.92 236.27 C 239.01 238.27 243.60 237.48 247.95 237.12 C 265.25 235.40 282.61 234.25 299.87 232.14 C 299.68 231.69 299.30 230.77 299.11 230.32 C 294.98 228.71 290.40 229.46 286.10 229.73 M 297.81 236.66 C 283.89 238.70 269.98 240.80 256.06 242.85 C 253.26 243.34 250.19 243.23 247.84 245.08 C 251.47 247.75 256.16 247.10 260.32 246.47 C 276.05 244.16 291.77 241.75 307.49 239.39 C 308.04 239.07 309.15 238.44 309.70 238.12 C 306.21 235.58 301.83 235.94 297.81 236.66 Z" />
</g>
<g id="#474646ff">
<path fill="#474646" opacity="1.00" d=" M 243.14 224.71 C 255.17 223.65 267.07 221.47 279.12 220.58 C 281.33 220.66 284.52 220.56 285.32 223.15 C 281.32 224.34 277.13 224.50 273.01 225.07 C 259.35 226.88 245.65 228.42 231.98 230.23 C 229.38 230.67 226.79 230.06 224.24 229.64 C 223.77 228.99 223.31 228.35 222.86 227.71 C 229.46 225.87 236.41 225.97 243.14 224.71 Z" />
<path fill="#474646" opacity="1.00" d=" M 286.10 229.73 C 290.40 229.46 294.98 228.71 299.11 230.32 C 299.30 230.77 299.68 231.69 299.87 232.14 C 282.61 234.25 265.25 235.40 247.95 237.12 C 243.60 237.48 239.01 238.27 234.92 236.27 C 235.50 235.56 235.86 234.36 236.97 234.38 C 253.34 232.80 269.73 231.35 286.10 229.73 Z" />
<path fill="#474646" opacity="1.00" d=" M 297.81 236.66 C 301.83 235.94 306.21 235.58 309.70 238.12 C 309.15 238.44 308.04 239.07 307.49 239.39 C 291.77 241.75 276.05 244.16 260.32 246.47 C 256.16 247.10 251.47 247.75 247.84 245.08 C 250.19 243.23 253.26 243.34 256.06 242.85 C 269.98 240.80 283.89 238.70 297.81 236.66 Z" />
</g>
<g id="#b17657ff">
<path fill="#b17657" opacity="1.00" d=" M 76.42 248.86 C 76.78 244.58 77.28 240.32 77.75 236.05 C 101.42 250.36 125.09 264.70 148.78 278.98 C 148.19 282.14 148.21 285.36 148.48 288.56 C 148.32 289.65 148.15 290.75 147.98 291.85 C 146.56 290.70 145.16 289.41 143.39 288.84 C 142.11 288.45 140.80 288.07 139.69 287.32 C 129.50 281.01 119.22 274.87 109.00 268.62 C 104.45 265.75 99.88 262.92 95.20 260.26 C 95.13 296.32 95.28 332.38 95.15 368.44 L 93.97 368.48 C 93.82 338.32 93.96 308.15 93.86 277.98 C 93.80 271.82 94.23 265.65 93.67 259.51 C 89.37 256.84 84.96 254.35 80.70 251.62 C 79.27 250.70 77.85 249.77 76.42 248.86 Z" />
</g>
<g id="#91634aff">
<path fill="#91634a" opacity="1.00" d=" M 383.86 249.27 C 408.78 246.08 433.74 243.19 458.63 239.75 L 459.01 239.69 C 458.57 243.96 458.03 248.22 457.55 252.49 C 455.74 252.76 453.93 253.02 452.13 253.26 C 447.45 253.85 442.78 254.40 438.11 255.01 C 433.43 255.60 428.75 256.16 424.07 256.74 C 410.82 258.40 397.58 260.15 384.34 261.85 C 379.54 262.43 374.74 263.02 369.94 263.64 C 365.43 264.23 360.92 264.76 356.40 265.33 C 295.07 273.15 233.73 280.96 172.38 288.68 C 172.24 286.86 172.06 285.05 171.89 283.24 C 167.24 283.09 162.60 283.11 157.95 283.16 C 155.31 283.18 152.67 283.21 150.04 283.27 C 149.52 285.03 148.98 286.79 148.48 288.56 C 148.21 285.36 148.19 282.14 148.78 278.98 C 227.14 269.07 305.51 259.24 383.86 249.27 Z" />
</g>
<g id="#ba7d5dff">
<path fill="#ba7d5d" opacity="1.00" d=" M 80.70 251.62 C 84.96 254.35 89.37 256.84 93.67 259.51 C 94.23 265.65 93.80 271.82 93.86 277.98 C 93.96 308.15 93.82 338.32 93.97 368.48 C 89.53 368.44 85.08 368.43 80.64 368.34 C 80.66 329.43 80.53 290.52 80.70 251.62 Z" />
<path fill="#ba7d5d" opacity="1.00" d=" M 424.07 256.74 C 428.75 256.16 433.43 255.60 438.11 255.01 C 438.18 292.88 438.25 330.75 438.10 368.63 C 433.42 368.57 428.73 368.57 424.06 368.49 C 424.09 331.24 424.05 293.99 424.07 256.74 Z" />
<path fill="#ba7d5d" opacity="1.00" d=" M 356.40 265.33 C 360.92 264.76 365.43 264.23 369.94 263.64 C 370.21 267.75 370.35 271.86 370.30 275.98 C 370.18 291.31 370.47 306.63 370.13 321.96 C 365.56 321.93 361.00 321.96 356.44 321.90 C 356.42 303.04 356.48 284.19 356.40 265.33 Z" />
<path fill="#ba7d5d" opacity="1.00" d=" M 150.04 283.27 C 152.67 283.21 155.31 283.18 157.95 283.16 C 157.94 323.69 157.93 364.22 157.95 404.75 C 153.24 404.68 148.52 404.67 143.81 404.60 C 143.82 367.40 143.81 330.21 143.82 293.01 C 143.76 291.61 143.58 290.22 143.39 288.84 C 145.16 289.41 146.56 290.70 147.98 291.85 C 148.15 290.75 148.32 289.65 148.48 288.56 C 148.98 286.79 149.52 285.03 150.04 283.27 Z" />
</g>
<g id="#a57258ff">
<path fill="#a57258" opacity="1.00" d=" M 438.11 255.01 C 442.78 254.40 447.45 253.85 452.13 253.26 C 452.27 291.67 452.14 330.08 452.19 368.49 C 447.49 368.59 442.79 368.55 438.10 368.63 C 438.25 330.75 438.18 292.88 438.11 255.01 Z" />
<path fill="#a57258" opacity="1.00" d=" M 95.20 260.26 C 99.88 262.92 104.45 265.75 109.00 268.62 C 109.00 301.87 109.00 335.11 109.00 368.35 C 104.38 368.43 99.77 368.45 95.15 368.44 C 95.28 332.38 95.13 296.32 95.20 260.26 Z" />
<path fill="#a57258" opacity="1.00" d=" M 369.94 263.64 C 374.74 263.02 379.54 262.43 384.34 261.85 C 384.43 281.88 384.34 301.91 384.38 321.94 C 379.63 321.94 374.88 321.93 370.13 321.96 C 370.47 306.63 370.18 291.31 370.30 275.98 C 370.35 271.86 370.21 267.75 369.94 263.64 Z" />
<path fill="#a57258" opacity="1.00" d=" M 157.95 283.16 C 162.60 283.11 167.24 283.09 171.89 283.24 C 172.06 285.05 172.24 286.86 172.38 288.68 C 172.38 327.32 172.37 365.97 172.38 404.61 C 167.57 404.62 162.76 404.70 157.95 404.75 C 157.93 364.22 157.94 323.69 157.95 283.16 Z" />
</g>
</svg>
