<svg xmlns="http://www.w3.org/2000/svg" version="1.1" xmlns:xlink="http://www.w3.org/1999/xlink" width="0" height="0" style="position:absolute"><symbol viewBox="0 0 73.9 103" id="hpsvg-carrot_button"><path fill="#F7941D" d="M0 3.8v95.5c.1 2.1 1.8 3.8 3.9 3.7.8 0 1.5-.3 2.2-.7l66.2-47.7c1.7-1.2 2.1-3.5.9-5.2-.2-.3-.5-.6-.9-.9L6.1.7C4.4-.5 2-.1.7 1.6.3 2.2 0 3 0 3.8"/><path fill="#CE7819" d="M6.1 5.2L72.4 53c.3.2.6.5.8.8 1.2-1.6.9-4-.7-5.2l-.1-.1L6.1.7C4.4-.5 2-.1.7 1.6.3 2.2 0 3 0 3.7v4.5c.1-2.1 1.8-3.8 4-3.7.7 0 1.5.3 2.1.7z"/></symbol><symbol id="hpsvg-close_x" viewBox="0 0 41 41"><defs><style>.bcls-1{fill:#7c4484}.bcls-2{fill:#fff}</style></defs><path class="bcls-1" d="M38.3 3h-4.92v2.65c-.07.06-.14.1-.2.17L20.5 18.5 7.82 5.82c-.06-.06-.14-.11-.2-.17V3H2.7v4.88a3 3 0 0 0 .87 2.18l12.69 12.68L6 33H2.7v4.92a3 3 0 0 0 5.08 1.71L20.5 27l12.68 12.66a3 3 0 0 0 5.08-1.71V33H35L24.74 22.74l12.68-12.68a3 3 0 0 0 .87-2.18z"/><path class="bcls-2" d="M24.74 18.26L37.42 5.58a3 3 0 0 0-4.24-4.24L20.5 14 7.82 1.34a3 3 0 0 0-4.24 4.24l12.68 12.68L3.58 30.94a3 3 0 1 0 4.24 4.24L20.5 22.5l12.68 12.68a3 3 0 0 0 4.24-4.24z"/></symbol><symbol viewBox="0 0 35 28" id="hpsvg-email"><path d="M31.5 0h-28A3.488 3.488 0 0 0 0 3.5v21C0 26.432 1.568 28 3.5 28h28c1.932 0 3.5-1.568 3.5-3.5v-21C35 1.558 33.425 0 31.5 0m.5 7.429L18 16 4 7.429V4l14 8.571L32 4" fill="#24bbd0" fill-rule="evenodd"/></symbol><symbol viewBox="0 0 32 32" id="hpsvg-facebook"><path d="M30.667 0H1.334C.597 0 0 .597 0 1.333v29.334C0 31.403.597 32 1.334 32H17V20h-4v-5h4v-4c0-4.133 2.617-6.167 6.304-6.167 1.766 0 3.284.132 3.726.19v4.32l-2.557.001c-2.005 0-2.473.953-2.473 2.351V15h5l-1 5h-4l.08 12h8.587c.736 0 1.333-.597 1.333-1.333V1.333C32 .597 31.403 0 30.667 0" fill="#3B5998" fill-rule="evenodd"/></symbol><symbol viewBox="0 0 23 32" id="hpsvg-ios_share_icon"><g transform="translate(1 2)" stroke-width="2" fill="none" fill-rule="evenodd"><path stroke-linecap="round" d="M6 4.847L11.212 0 16 5M5.816 9H0v20h21V9h-5.839"/><path d="M11 19V0"/></g></symbol><symbol viewBox="0 0 26.27 52.55" id="hpsvg-left_arrow"><defs><style>.fcls-1{fill:#5dc8b8}.fcls-2{fill:#2f8c7b}</style></defs><g id="fLayer_1"><path class="fcls-1" d="M26.27 52.55a26.28 26.28 0 0 1 0-52.55z"/><path class="fcls-2" d="M11.03 26.27l8.24 3.78-1.1-3.78 1.1-3.77-8.24 3.77z"/></g></symbol><symbol viewBox="0 0 206.7 213.5" id="hpsvg-level_map_rabbit"><path fill="#333" d="M126.5 0h39.6v86.6h-39.6z"/><path fill="#FFA4DC" d="M134.4 8.1h23.8v81.4h-23.8z"/><path fill="#FFF" d="M44.5 0h39.6v86.6H44.5z"/><path fill="#FFA4DC" d="M52.5 8.1h23.8v81.4H52.5z"/><path fill="#FFF" d="M44.5 84.4h121.8V171H44.5z"/><path fill="#FFF" d="M62.8 157H145v56.5H62.8z"/><circle fill="#305282" cx="79" cy="117.7" r="8.8"/><circle fill="#305282" cx="132.5" cy="117.1" r="8.8"/><path fill="none" stroke="#231F20" stroke-width="1.651" stroke-linecap="round" stroke-linejoin="round" stroke-miterlimit="10" d="M105.9 125v18"/><path fill="#FF3381" d="M105.7 135L93 122.9h25.4"/><path fill="none" stroke="#231F20" stroke-width="1.651" stroke-linecap="round" stroke-linejoin="round" stroke-miterlimit="10" d="M123.3 129.2c-1.4 8.5-8.8 15-17.7 15-8 0-14.8-5.2-17.1-12.4m38.5.3l78.9-19.8m-78.9 26l78.9 2.2m-126.2-8.4L.8 112.3m78.9 26L.8 140.5"/></symbol><symbol preserveAspectRatio="none" viewBox="0 0 35 35" id="hpsvg-lock"><defs><path fill="#662424" d="M352 370.2v-10.3q0-4.25-3-7.25t-7.25-3q-4.25 0-7.3 3-3 3-3 7.25v10.3H352m-2.35-10.3v7.9h-15.8v-7.9q0-3.25 2.3-5.6 2.3-2.3 5.6-2.3 3.25 0 5.6 2.3 2.3 2.35 2.3 5.6z" id="ha"/><path fill="#EF4036" d="M350.2 376.05q.75 0 1.25-.5.5-.55.5-1.25l.05-14.8-20.55-.05v14.85q0 .7.5 1.25.55.5 1.25.5h17z" id="hb"/><path fill="#662424" d="M343.75 363.7q-.8-.8-1.95-.8-1.1 0-1.95.8-.8.85-.8 1.95 0 1.55 1.35 2.4l-2.55 5.6h8.05l-2.85-5.5q1.5-.75 1.5-2.5 0-1.15-.8-1.95z" id="hc"/></defs><use xlink:href="#ha" transform="translate(-323.4 -344.85)"/><use xlink:href="#hb" transform="translate(-323.4 -344.85)"/><use xlink:href="#hc" transform="translate(-323.4 -344.85)"/></symbol><symbol viewBox="0 0 30 30" id="hpsvg-map_icon"><path d="M19.333 6.646L9.666 3.247v19.107l9.667 3.398V6.646zM29 .83v24.318c0 .353-.202.604-.604.755l-9.063 3.096L9.666 25.6l-8.609 3.324a.578.578 0 0 1-.226.074c-.504-.049-.782-.327-.832-.831V3.849c0-.402.202-.653.605-.755L9.666-.002l9.667 3.399 8.61-3.399h.226c.503.05.78.328.831.831z"/></symbol><symbol viewBox="0 0 8 35" id="hpsvg-overflow_button"><g fill="none"><path d="M3.938 27c1.125.063 2.062.469 2.813 1.219.75.75 1.125 1.687 1.125 2.813 0 1.125-.375 2.062-1.125 2.813-.75.75-1.687 1.125-2.813 1.125-1.125 0-2.062-.375-2.813-1.125C.375 33.095 0 32.158 0 31.032c0-1.125.375-2.062 1.125-2.813.75-.75 1.687-1.156 2.813-1.219zm0-12c1.125.063 2.062.469 2.813 1.219.75.75 1.125 1.687 1.125 2.813 0 1.125-.375 2.062-1.125 2.813-.75.75-1.687 1.125-2.813 1.125-1.125 0-2.062-.375-2.813-1.125C.375 21.095 0 20.158 0 19.032c0-1.125.375-2.062 1.125-2.813.75-.75 1.687-1.156 2.813-1.219zm0-12c1.125.063 2.062.469 2.813 1.219.75.75 1.125 1.687 1.125 2.813 0 1.125-.375 2.062-1.125 2.813-.75.75-1.687 1.125-2.813 1.125-1.125 0-2.062-.375-2.813-1.125C.375 9.095 0 8.158 0 7.032 0 5.907.375 4.97 1.125 4.219c.75-.75 1.687-1.156 2.813-1.219z" fill="#58A69D"/><path d="M3.938 24c1.125.063 2.062.469 2.813 1.219.75.75 1.125 1.687 1.125 2.813 0 1.125-.375 2.062-1.125 2.813-.75.75-1.687 1.125-2.813 1.125-1.125 0-2.062-.375-2.813-1.125C.375 30.095 0 29.158 0 28.032c0-1.125.375-2.062 1.125-2.813.75-.75 1.687-1.156 2.813-1.219zm0-12c1.125.063 2.062.469 2.813 1.219.75.75 1.125 1.687 1.125 2.813 0 1.125-.375 2.062-1.125 2.813-.75.75-1.687 1.125-2.813 1.125-1.125 0-2.062-.375-2.813-1.125C.375 18.095 0 17.158 0 16.032c0-1.125.375-2.062 1.125-2.813.75-.75 1.687-1.156 2.813-1.219zm0-12C5.063.063 6 .469 6.751 1.219c.75.75 1.125 1.687 1.125 2.813 0 1.125-.375 2.062-1.125 2.813-.75.75-1.687 1.125-2.813 1.125-1.125 0-2.062-.375-2.813-1.125C.375 6.095 0 5.158 0 4.032 0 2.907.375 1.97 1.125 1.219 1.875.469 2.812.063 3.938 0z" fill="#fff"/></g></symbol><symbol viewBox="0 0 7.88 31.97" id="hpsvg-overflow_button_action"><defs><style>.kcls-1{fill:#58a69d}</style></defs><path class="kcls-1" d="M3.94 24a4.17 4.17 0 0 1 2.81 1.22A3.94 3.94 0 0 1 3.94 32a4 4 0 0 1-2.81-6.75A4.16 4.16 0 0 1 3.94 24zm0-12a4.17 4.17 0 0 1 2.81 1.22A3.82 3.82 0 0 1 7.88 16a3.84 3.84 0 0 1-3.94 4A3.84 3.84 0 0 1 0 16a3.82 3.82 0 0 1 1.13-2.81A4.16 4.16 0 0 1 3.94 12zm0-12a4.17 4.17 0 0 1 2.81 1.22A3.82 3.82 0 0 1 7.88 4a3.84 3.84 0 0 1-3.94 4A3.84 3.84 0 0 1 0 4a3.82 3.82 0 0 1 1.13-2.78A4.16 4.16 0 0 1 3.94 0z"/></symbol><symbol viewBox="0 0 33 48" id="hpsvg-play_icon"><g fill="none"><path d="M0 1.648v41.703c0 1.349 1.594 2.124 2.726 1.327l29.575-20.852a1.607 1.607 0 0 0 0-2.653L2.726.322C1.594-.476 0 .3 0 1.648" fill="#AB5E00"/><path d="M0 4.648v41.703c0 1.349 1.594 2.124 2.726 1.327l29.575-20.852a1.607 1.607 0 0 0 0-2.653L2.726 3.322C1.594 2.524 0 3.3 0 4.648" fill="#fff"/></g></symbol><symbol preserveAspectRatio="none" viewBox="0 0 35 35" id="hpsvg-ribbon_locked"><defs><path fill="#125C68" d="M387.3 358.65q1.05-1.95 1.05-4.15 0-3.6-2.55-6.15-2.55-2.55-6.15-2.55-3.6 0-6.15 2.55-2.55 2.55-2.55 6.15 0 2.15 1 4.05.95 1.8 2.6 3l-1.15 17.3 6.5-4.05 5.75 4.05-1.15-17.15q1.75-1.2 2.8-3.05z" id="ma"/></defs><use xlink:href="#ma" transform="translate(-361.15 -343.8)"/></symbol><symbol preserveAspectRatio="none" viewBox="0 0 35 35" id="hpsvg-ribbon_unlocked"><defs><path fill="#F7952A" d="M385.65 378.85l-1.7-26h-8.8l-1.75 26 6.5-4.05 5.75 4.05z" id="na"/><path fill="#F9EF49" d="M388.35 354.5q0-3.6-2.55-6.15-2.55-2.55-6.15-2.55-3.6 0-6.15 2.55-2.55 2.55-2.55 6.15 0 3.6 2.55 6.15 2.55 2.55 6.15 2.55 3.6 0 6.15-2.55 2.55-2.55 2.55-6.15z" id="nb"/><path fill="#F7952A" d="M386.25 354.6q0-2.75-1.95-4.65-1.9-1.95-4.65-1.95-2.75 0-4.65 1.95-1.95 1.9-1.95 4.65 0 2.75 1.95 4.65 1.9 1.95 4.65 1.95 2.75 0 4.65-1.95 1.95-1.9 1.95-4.65z" id="nc"/></defs><use xlink:href="#na" transform="translate(-361.15 -343.8)"/><use xlink:href="#nb" transform="translate(-361.15 -343.8)"/><use xlink:href="#nc" transform="translate(-361.15 -343.8)"/></symbol><symbol viewBox="0 0 26.27 52.55" id="hpsvg-right_arrow"><defs><style>.ocls-1{fill:#5dc8b8}.ocls-2{fill:#2f8c7b}</style></defs><g id="oLayer_1"><path class="ocls-1" d="M0 0a26.27 26.27 0 0 1 26.27 26.27A26.28 26.28 0 0 1 0 52.55z"/><path class="ocls-2" d="M17 26.27l-8.37-3.83 1.12 3.83-1.12 3.83L17 26.27z"/></g></symbol><symbol viewBox="0 0 30 30" id="hpsvg-search_icon"><path d="M11.139 3.446c-2.191.054-4.007.801-5.45 2.244-1.442 1.442-2.163 3.259-2.163 5.449 0 2.191.721 4.007 2.163 5.45 1.443 1.442 3.258 2.164 5.45 2.164 2.19 0 4.007-.721 5.45-2.164 1.442-1.442 2.164-3.258 2.164-5.45 0-2.19-.721-4.007-2.164-5.449-1.443-1.443-3.26-2.19-5.45-2.244m0-3.446c3.152.054 5.77 1.136 7.853 3.246 2.084 2.111 3.152 4.742 3.206 7.893 0 1.39-.228 2.699-.681 3.927a10.294 10.294 0 0 1-1.963 3.286l.48.48h.951a.99.99 0 0 1 .702.291l7.502 7.501a.994.994 0 0 1 0 1.404l-1.161 1.161a.994.994 0 0 1-1.404 0l-7.502-7.502a.994.994 0 0 1-.291-.702v-.951l-.481-.48a10.22 10.22 0 0 1-3.285 1.964c-1.23.454-2.538.681-3.927.681-3.153-.053-5.784-1.122-7.893-3.206-2.111-2.084-3.193-4.7-3.246-7.853.052-3.152 1.135-5.782 3.246-7.893C5.354 1.137 7.985.055 11.138.001"/></symbol><symbol viewBox="0 0 29 34" id="hpsvg-share_icon"><path d="M24.1 22.6c-1.3.1-2.3.5-3.2 1.2L9.4 17.2c.1-.4.2-.7.2-1.1 0-.4-.1-.8-.2-1.1l11.3-6.6c.9.9 2 1.3 3.4 1.3 1.3 0 2.5-.5 3.4-1.4.9-.9 1.4-2 1.4-3.4s-.5-2.5-1.4-3.4S25.4 0 24.1 0s-2.5.5-3.4 1.4-1.4 2.1-1.4 3.5c0 .4.1.7.2 1.1L8.1 12.5c-.9-.8-2-1.2-3.4-1.2s-2.5.5-3.4 1.4-1.3 2-1.3 3.4.5 2.5 1.4 3.4c.9.9 2 1.4 3.4 1.4s2.5-.4 3.4-1.2l11.4 6.6c-.1.4-.1.7-.1 1.1 0 1.4.5 2.5 1.4 3.4s2 1.3 3.3 1.3c1.3 0 2.4-.4 3.3-1.3s1.4-2 1.4-3.3-.5-2.4-1.4-3.3c-1-1.1-2.1-1.5-3.4-1.6z"/></symbol><symbol viewBox="0 0 500 587" id="hpsvg-share_image"><defs><path id="ra" d="M50.363.555H.255v25.33h50.108V.555z"/></defs><g fill="none" fill-rule="evenodd"><path fill="#EDB2EA" d="M0 274.5L125 337l125-62.5L125 212z"/><path fill="#9A789B" d="M0 399.343L125 462V336.656L0 274z"/><path fill="#B78BB7" d="M250 399l-125-62.5L250 274l125 62.5z"/><path fill="#EDB2EA" d="M125 337l125 62.657V525l-125-62.657zM250 399.5L375 462l125-62.5L375 337z"/><path fill="#9A789B" d="M250 524.343L375 587V461.656L250 399z"/><path fill="#B78BB7" d="M375 461.658V587l125-62.658V399z"/><g opacity=".581" transform="translate(49 235)" fill="#714B72"><path d="M55.216 78.723L.76 50.318 100.91.496 155.366 28.9zM322.1 177.739l-19.881-10.37 36.561-18.19 19.883 10.37zM197.668 114.86l-19.842-10.348 36.491-18.153 19.842 10.35z"/></g><g transform="translate(49)"><g transform="translate(168.244 162.122)"><g transform="translate(0 48.743)"><path fill="#CE7819" d="M.86.466l35.214 17.648v100.453l-12.499-6.383z"/><path fill="#F7941D" d="M33.878 64.067l-.292-2.824L12.47 50.756l.751 3.11zM33.878 97.41l-.151-2.685-13.29-6.702.75 3.11zM32.2 35.906l-.292-2.823L7.297 20.776l.75 3.11z"/></g><g transform="translate(35.977 48.743)"><path fill="#F7941D" d="M35.324.47L12.6 112.753.116 118.565.114 18.114z"/><path fill="#CE7819" d="M3.47 36.607l.292-2.823 23.545-11.356-.751 3.11zM1.873 64.977l.293-2.823 21.116-10.487-.752 3.11zM1.009 97.774L1.3 94.95l15.577-7.713-.749 3.11z"/></g><path fill="#F7941D" d="M36.091 66.857L.881 49.211l35.21-17.644 35.21 17.646z"/><path d="M36.159 53.392a3.289 3.289 0 0 1-3.286-3.293V3.453A3.289 3.289 0 0 1 36.16.16a3.289 3.289 0 0 1 3.285 3.293V50.1a3.289 3.289 0 0 1-3.285 3.293" fill="#135C68"/><path d="M36.155 52.295a3.288 3.288 0 0 1-3.262-2.944c-.084-.755-2.259-18.46-21.921-18.46a3.288 3.288 0 0 1-3.286-3.292 3.289 3.289 0 0 1 3.286-3.292c20.536 0 27.593 15.934 28.454 24.36a3.29 3.29 0 0 1-3.27 3.628" fill="#135C68"/><path d="M36.162 52.295a3.292 3.292 0 0 1-3.271-3.629c.862-8.425 7.918-24.36 28.455-24.36A3.29 3.29 0 0 1 64.63 27.6a3.29 3.29 0 0 1-3.285 3.291c-19.805 0-21.842 17.694-21.92 18.447a3.288 3.288 0 0 1-3.264 2.958" fill="#135C68"/></g><g transform="translate(292.047 223.58)"><g transform="translate(0 48.743)"><path fill="#CE7819" d="M.86.466l35.214 17.648v100.453l-12.499-6.383z"/><path fill="#F7941D" d="M33.878 64.067l-.292-2.824L12.47 50.756l.751 3.11zM33.878 97.41l-.151-2.685-13.29-6.702.75 3.11zM32.2 35.906l-.292-2.823L7.297 20.776l.75 3.11z"/></g><g transform="translate(35.977 48.743)"><path fill="#F7941D" d="M35.324.47L12.6 112.753.116 118.565.114 18.114z"/><path fill="#CE7819" d="M3.47 36.607l.292-2.823 23.545-11.356-.751 3.11zM1.873 64.977l.293-2.823 21.116-10.487-.752 3.11zM1.009 97.774L1.3 94.95l15.577-7.713-.749 3.11z"/></g><path fill="#F7941D" d="M36.091 66.857L.881 49.211l35.21-17.644 35.21 17.646z"/><path d="M36.159 53.392a3.289 3.289 0 0 1-3.286-3.293V3.453A3.289 3.289 0 0 1 36.16.16a3.289 3.289 0 0 1 3.285 3.293V50.1a3.289 3.289 0 0 1-3.285 3.293" fill="#135C68"/><path d="M36.155 52.295a3.288 3.288 0 0 1-3.262-2.944c-.084-.755-2.259-18.46-21.921-18.46a3.288 3.288 0 0 1-3.286-3.292 3.289 3.289 0 0 1 3.286-3.292c20.536 0 27.593 15.934 28.454 24.36a3.29 3.29 0 0 1-3.27 3.628" fill="#135C68"/><path d="M36.162 52.295a3.292 3.292 0 0 1-3.271-3.629c.862-8.425 7.918-24.36 28.455-24.36A3.29 3.29 0 0 1 64.63 27.6a3.29 3.29 0 0 1-3.285 3.291c-19.805 0-21.842 17.694-21.92 18.447a3.288 3.288 0 0 1-3.264 2.958" fill="#135C68"/></g><path d="M25.3 266.47c0 6.89-5.572 12.476-12.448 12.478-6.874 0-12.448-5.587-12.448-12.477 0-6.891 5.574-12.476 12.448-12.478 6.874 0 12.448 5.587 12.448 12.477" fill="#5DA5C1"/><path fill="#FFF" d="M61.912 229.955l-39.468-20.34 70.587-35.226 39.467 20.339z"/><path fill="#5DA5C1" d="M22.356 209.603l39.483 20.348v72.835l-39.483-20.348z"/><path fill="#FFF" d="M132.497 194.728v72.818l-70.586 35.227v-72.818zM55.76 179.351L1.456 151.002l99.873-49.726 54.307 28.35z"/><path fill="#5DA5C1" d="M1.364 150.99l54.324 28.358v86.926L1.364 237.916z"/><path fill="#FFF" d="M155.635 129.625v86.909L55.76 266.262v-89.47l98.619-47.823zM13.487 56.219L1.65 50.068 39.92 30.89l11.838 6.15z"/><path fill="#5DA5C1" d="M1.56 50.055l11.855 6.16v101.016L1.56 151.073z"/><path fill="#FFF" d="M51.758 37.04v101l-38.27 19.178V56.22z"/><path fill="#FFA4DC" d="M42.19 48.449v89.004l-20.503 10.37V58.82z"/><g transform="translate(62.12)"><mask id="rb" fill="#fff"><use xlink:href="#ra"/></mask><path fill="#4D4D4D" mask="url(#rb)" d="M12.092 25.885L.255 19.734 38.525.554l11.838 6.151z"/></g><path fill="#333" d="M62.285 19.721l11.855 6.16v101.016l-11.855-6.158zM112.483 6.706v101l-38.27 19.178V25.886z"/><path fill="#FFA4DC" d="M102.916 18.115v89.004l-20.503 10.37V28.487z"/><path d="M109.75 205.95v14.58M93.153 211.82c.39 4.6 6.292 13.478 16.498 9.296 11.229-4.6 13.278-15.069 12.985-23.974" stroke="#231F20" stroke-width="1.001" stroke-linecap="round" stroke-linejoin="round"/><path fill="#BC2663" d="M118.439 189.412l3 1.541-11.482 19.076-15.157-8.805z"/><path fill="#FF3381" d="M121.587 190.856l-11.634 19.243-12.121-7.233z"/><path d="M79.624 186.663c-4.826 2.869-7.697 10.186-6.404 16.351 1.292 6.166 6.257 8.827 11.083 5.958 4.84-2.878 7.71-10.216 6.42-16.36-1.294-6.167-6.257-8.827-11.099-5.949M126.877 163.717c-4.826 2.869-7.697 10.186-6.404 16.351 1.292 6.165 6.257 8.827 11.083 5.958 4.84-2.878 7.707-10.216 6.42-16.36-1.294-6.167-6.259-8.827-11.1-5.95" fill="#305282"/><path d="M125.565 202.818l49.987-23.484M31.45 249.493l59.164-30.432M126.346 198.904l45.398-54.504M89.247 215.343l-63.361 1.272" stroke="#231F20" stroke-width="1.001" stroke-linecap="round" stroke-linejoin="round"/></g></g></symbol><symbol viewBox="0 0 35.7 35.7" id="hpsvg-stop_button"><path fill="#AB5E00" d="M3 0h29.7c1.7 0 3 1.3 3 3v29.7c0 1.7-1.3 3-3 3H3c-1.7 0-3-1.3-3-3V3c0-1.7 1.3-3 3-3z"/><path fill="#FFF" d="M3 2h29.7c1.7 0 3 1.3 3 3v27.7c0 1.7-1.3 3-3 3H3c-1.7 0-3-1.3-3-3V5c0-1.7 1.3-3 3-3z"/></symbol><symbol viewBox="0 0 36 33" id="hpsvg-tut_forward_block"><g data-shapes="stack" transform="scale(.5)"><path fill="#009444" d="M4 3a4 4 0 0 0-4 4v10c0 2 1 3 2 4l4 4c1 1 2 2 2 4v12c0 2-1 3-2 4l-4 4c-1 1-2 2-2 4v10a4 4 0 0 0 4 4h56a4 4 0 0 0 4-4V53c0-2 1-3 2-4l4-4c1-1 2-2 2-4V29c0-2-1-3-2-4l-4-4c-1-1-2-2-2-4V7a4 4 0 0 0-4-4z"/><path fill="#009444" fill-opacity="0" d="M4 3a4 4 0 0 0-4 4v10c0 2 1 3 2 4l4 4c1 1 2 2 2 4v12c0 2-1 3-2 4l-4 4c-1 1-2 2-2 4v10a4 4 0 0 0 4 4h56a4 4 0 0 0 4-4V53c0-2 1-3 2-4l4-4c1-1 2-2 2-4V29c0-2-1-3-2-4l-4-4c-1-1-2-2-2-4V7a4 4 0 0 0-4-4z"/><path stroke="#A4DD4A" fill="#A4DD4A" d="M4 0a4 4 0 0 0-4 4v10c0 2 1 3 2 4l4 4c1 1 2 2 2 4v12c0 2-1 3-2 4l-4 4c-1 1-2 2-2 4v10a4 4 0 0 0 4 4h56a4 4 0 0 0 4-4V50c0-2 1-3 2-4l4-4c1-1 2-2 2-4V26c0-2-1-3-2-4l-4-4c-1-1-2-2-2-4V4a4 4 0 0 0-4-4z"/><g transform="matrix(.9 0 0 .9 14 14)"><path fill="#54b947" d="M30.57 1.25L45.28 16a4.28 4.28 0 0 1 0 6.06L30.57 36.73a4.28 4.28 0 0 1-6.06-6.06l7.4-7.4H4.28a4.28 4.28 0 1 1 0-8.57h27.63l-7.4-7.4a4.28 4.28 0 0 1 6.06-6.06z"/><path fill="#009444" d="M45.28 17.67L30.57 3a4.28 4.28 0 0 0-7.22 2.17 4.28 4.28 0 0 1 7.22-3.89L45.28 16a4.28 4.28 0 0 1 1.16 3.89 4.26 4.26 0 0 0-1.16-2.22zm-13.37-1.25H4.28a4.28 4.28 0 0 0-4.2 3.43 4.29 4.29 0 0 1 4.2-5.14h27.63zm0 6.85V25l-7.4 7.4a4.26 4.26 0 0 0-1.16 2.17 4.28 4.28 0 0 1 1.16-3.89z"/></g></g></symbol><symbol viewBox="0 0 60 40" id="hpsvg-tut_loop_block"><g class="ublocklyDraggable" data-shapes="c-block" transform="scale(.5)"><path class="ushadowPathBottom" transform="translate(0 3)" fill="#c16500" d="M4 0a4 4 0 0 0-4 4v22c0 2 1 3 2 4l4 4c1 1 2 2 2 4v12c0 2-1 3-2 4l-4 4c-1 1-2 2-2 4v10a4 4 0 0 0 4 4h16a4 4 0 0 0 4-4V62c0-2 1-3 2-4l4-4c1-1 2-2 2-4V38c0-2-1-3-2-4l-4-4c-1-1-2-2-2-4V16a4 4 0 0 1 4-4h16a4 4 0 0 1 4 4v10c0 2 1 3 2 4l4 4c1 1 2 2 2 4v12c0 2-1 3-2 4l-4 4c-1 1-2 2-2 4v10a4 4 0 0 0 4 4h56a4 4 0 0 0 4-4V62c0-2 1-3 2-4l4-4c1-1 2-2 2-4V38c0-2-1-3-2-4l-4-4c-1-1-2-2-2-4V4a4 4 0 0 0-4-4z" clip-path="url(#bottomClip717)"/><path class="ushadowPathTop" transform="translate(0 3)" fill="#c16500" d="M4 0a4 4 0 0 0-4 4v22c0 2 1 3 2 4l4 4c1 1 2 2 2 4v12c0 2-1 3-2 4l-4 4c-1 1-2 2-2 4v10a4 4 0 0 0 4 4h16a4 4 0 0 0 4-4V62c0-2 1-3 2-4l4-4c1-1 2-2 2-4V38c0-2-1-3-2-4l-4-4c-1-1-2-2-2-4V16a4 4 0 0 1 4-4h16a4 4 0 0 1 4 4v10c0 2 1 3 2 4l4 4c1 1 2 2 2 4v12c0 2-1 3-2 4l-4 4c-1 1-2 2-2 4v10a4 4 0 0 0 4 4h56a4 4 0 0 0 4-4V62c0-2 1-3 2-4l4-4c1-1 2-2 2-4V38c0-2-1-3-2-4l-4-4c-1-1-2-2-2-4V4a4 4 0 0 0-4-4z" clip-path="url(#topClip519)"/><path class="ublocklyPath ublocklyBlockBackground" stroke="#c16500" fill="#F7941D" d="M4 0a4 4 0 0 0-4 4v22c0 2 1 3 2 4l4 4c1 1 2 2 2 4v12c0 2-1 3-2 4l-4 4c-1 1-2 2-2 4v10a4 4 0 0 0 4 4h16a4 4 0 0 0 4-4V62c0-2 1-3 2-4l4-4c1-1 2-2 2-4V38c0-2-1-3-2-4l-4-4c-1-1-2-2-2-4V16a4 4 0 0 1 4-4h16a4 4 0 0 1 4 4v10c0 2 1 3 2 4l4 4c1 1 2 2 2 4v12c0 2-1 3-2 4l-4 4c-1 1-2 2-2 4v10a4 4 0 0 0 4 4h56a4 4 0 0 0 4-4V62c0-2 1-3 2-4l4-4c1-1 2-2 2-4V38c0-2-1-3-2-4l-4-4c-1-1-2-2-2-4V4a4 4 0 0 0-4-4z"/><g transform="matrix(.65 0 0 .65 64 24)"><path fill="#c56101" d="M48.8 11.2a3.34 3.34 0 1 0-.88 6.61 11.81 11.81 0 0 1-1.58 23.51H18.66a11.81 11.81 0 0 1 0-23.62h9.67L23 23.05a3.34 3.34 0 0 0 4.72 4.72l11-11a3.34 3.34 0 0 0-.05-4.95L27.7 1A3.34 3.34 0 0 0 23 5.69L28.33 11h-9.67a18.48 18.48 0 0 0 0 37h27.68a18.48 18.48 0 0 0 2.46-36.8z"/><path fill="#a45200" d="M18.66 42.66h27.68a11.82 11.82 0 0 0 11.81-11.81v-.7a11.81 11.81 0 0 1-11.81 11.18H18.66A11.81 11.81 0 0 1 6.89 30.19v.67a11.82 11.82 0 0 0 11.77 11.8zm3.42-16.58a3.32 3.32 0 0 1 .92-1.69L28.33 19v-1.29L27 19l-4 4a3.33 3.33 0 0 0-.92 3.08zM48.8 12.54a18.52 18.52 0 0 1 16 17.62v-.64a18.53 18.53 0 0 0-16-18.32 3.3 3.3 0 0 0-3.7 4 3.33 3.33 0 0 1 3.7-2.66zm-30.14-.17h9.67V11h-9.67A18.5 18.5 0 0 0 .18 29.52v.67a18.49 18.49 0 0 1 18.48-17.82zM23 2.31a3.34 3.34 0 0 1 4.72 0l10.9 10.9A3.33 3.33 0 0 1 39.65 15a3.32 3.32 0 0 0-1.05-3.17L27.7 1a3.33 3.33 0 0 0-5.62 3A3.32 3.32 0 0 1 23 2.31z"/></g></g></symbol><symbol viewBox="0 0 34 34" id="hpsvg-tut_play_block"><style>.vst0{fill:#ab5e00}.vst1{fill:#f7941d}.vst2{fill:#fff}</style><g stroke="null" id="vsvg_10"><circle transform="matrix(1.0099 0 0 .98338 24.78 102.682)" id="vsvg_5" r="15.9" cy="-86.178" cx="-7.87" class="vst0"/><circle transform="matrix(1.0099 0 0 .98338 24.78 102.682)" id="vsvg_6" r="15.9" cy="-87.978" cx="-7.87" class="vst1"/><g transform="matrix(1.0099 0 0 .98338 24.78 102.682)" id="vsvg_7"><path id="vsvg_8" d="M-13.07-96.578v16.4c0 .5.6.8 1.1.5l11.7-8.2c.4-.3.4-.8 0-1l-11.7-8.2c-.5-.3-1.1 0-1.1.5" class="vst0"/><path id="vsvg_9" d="M-13.07-95.378v16.4c0 .5.6.8 1.1.5l11.7-8.2c.4-.3.4-.8 0-1l-11.7-8.2c-.5-.3-1.1 0-1.1.5" class="vst2"/></g></g></symbol><symbol viewBox="0 0 36 33" id="hpsvg-tut_turn_block"><g data-shapes="stack" transform="scale(.5)"><path fill="#007ec4" d="M4 3a4 4 0 0 0-4 4v10c0 2 1 3 2 4l4 4c1 1 2 2 2 4v12c0 2-1 3-2 4l-4 4c-1 1-2 2-2 4v10a4 4 0 0 0 4 4h56a4 4 0 0 0 4-4V53c0-2 1-3 2-4l4-4c1-1 2-2 2-4V29c0-2-1-3-2-4l-4-4c-1-1-2-2-2-4V7a4 4 0 0 0-4-4z"/><path fill="#007ec4" fill-opacity="0" d="M4 3a4 4 0 0 0-4 4v10c0 2 1 3 2 4l4 4c1 1 2 2 2 4v12c0 2-1 3-2 4l-4 4c-1 1-2 2-2 4v10a4 4 0 0 0 4 4h56a4 4 0 0 0 4-4V53c0-2 1-3 2-4l4-4c1-1 2-2 2-4V29c0-2-1-3-2-4l-4-4c-1-1-2-2-2-4V7a4 4 0 0 0-4-4z"/><path stroke="#26A2F6" fill="#26A2F6" d="M4 0a4 4 0 0 0-4 4v10c0 2 1 3 2 4l4 4c1 1 2 2 2 4v12c0 2-1 3-2 4l-4 4c-1 1-2 2-2 4v10a4 4 0 0 0 4 4h56a4 4 0 0 0 4-4V50c0-2 1-3 2-4l4-4c1-1 2-2 2-4V26c0-2-1-3-2-4l-4-4c-1-1-2-2-2-4V4a4 4 0 0 0-4-4z"/><g transform="matrix(.9 0 0 .9 16 12)"><path fill="#0e79b2" d="M41.34 20.2a20.67 20.67 0 1 0-41 4.11A3.44 3.44 0 0 0 7.1 23.1a14 14 0 0 1-.21-2.1 13.79 13.79 0 1 1 14.26 13.45l3.54-4a3.44 3.44 0 0 0-5.17-4.54l-8.81 10a3.44 3.44 0 0 0 .29 4.85l10 8.84a3.44 3.44 0 0 0 4.56-5.16L22 41.3a20.69 20.69 0 0 0 19.34-21.1z"/><path fill="#00638e" d="M19.54 27.4a3.44 3.44 0 0 1 5.92 1.4 3.43 3.43 0 0 0-6-2.93l-8.81 10a3.44 3.44 0 0 0-.65 3.18 3.41 3.41 0 0 1 .78-1.62zm.69-25.87A20.69 20.69 0 0 1 41.34 21v-.77A20.67 20.67 0 1 0 0 21.14v.61A20.69 20.69 0 0 1 20.23 1.53zM6.93 21.69v.82a14 14 0 0 0 .17 1.81 3.43 3.43 0 0 0 0-1.22 13.85 13.85 0 0 1-.17-1.41zM34.44 21a13.79 13.79 0 0 1-11.77 13.3l-1.53.14v1.52a13.8 13.8 0 0 0 13.35-14.08c-.01-.3-.03-.6-.05-.88zm-8.86 23.44l-2-1.78L22 41.3v1.52L25.61 46a3.43 3.43 0 0 1 1.05 1.71 3.43 3.43 0 0 0-1.08-3.27z"/></g></g></symbol><symbol viewBox="0 0 92 111.26" id="hpsvg-tutorial_arrow_01"><defs><style>.xcls-1{fill:none;stroke:#fff;stroke-linecap:round;stroke-linejoin:round;stroke-width:12px}</style></defs><path class="xcls-1" d="M6 105.26C42 97.63 71.67 61.32 56.27 6L34.45 36.49M86 22.89L56.27 6"/></symbol><symbol viewBox="0 0 79.8 111.26" id="hpsvg-tutorial_arrow_02"><defs><style>.ycls-1{fill:none;stroke:#fff;stroke-linecap:round;stroke-linejoin:round;stroke-width:12px}</style></defs><path class="ycls-1" d="M73.15 104.6C50.76 82.77 38 55.63 25.61 6.66l39.09 16.8M6.65 40.52L25.61 6.66"/></symbol><symbol viewBox="0 0 32 26" id="hpsvg-twitter"><path d="M32 3.078a13.14 13.14 0 0 1-3.771 1.034A6.584 6.584 0 0 0 31.116.48a13.166 13.166 0 0 1-4.169 1.593A6.557 6.557 0 0 0 22.155 0a6.565 6.565 0 0 0-6.565 6.565c0 .514.058 1.015.17 1.496a18.639 18.639 0 0 1-13.532-6.86 6.539 6.539 0 0 0-.889 3.301 6.563 6.563 0 0 0 2.92 5.464 6.532 6.532 0 0 1-2.973-.821l-.001.083a6.568 6.568 0 0 0 5.267 6.437 6.578 6.578 0 0 1-2.965.113 6.571 6.571 0 0 0 6.133 4.559 13.172 13.172 0 0 1-8.154 2.81c-.53 0-1.052-.031-1.566-.091a18.587 18.587 0 0 0 10.064 2.949c12.076 0 18.679-10.004 18.679-18.679 0-.285-.006-.568-.019-.85A13.315 13.315 0 0 0 32 3.078" fill="#1CA1F2" fill-rule="evenodd"/></symbol></svg>
