<svg xmlns="http://www.w3.org/2000/svg" viewBox="0 0 46.53 37.98"><defs><style>.cls-1{fill:#54b947;}.cls-2{fill:#009444;}</style></defs><title>move_forward</title><path class="cls-1" d="M30.57 1.25l14.71 14.75a4.28 4.28 0 0 1 0 6.06l-14.71 14.67a4.28 4.28 0 0 1-6.06-6.06l7.4-7.4h-27.63a4.28 4.28 0 1 1 0-8.57h27.63l-7.4-7.4a4.28 4.28 0 0 1 6.06-6.06z"/><path class="cls-2" d="M45.28 17.67l-14.71-14.67a4.28 4.28 0 0 0-7.22 2.17 4.28 4.28 0 0 1 7.22-3.89l14.71 14.72a4.28 4.28 0 0 1 1.16 3.89 4.26 4.26 0 0 0-1.16-2.22zM31.91 16.42h-27.63a4.28 4.28 0 0 0-4.2 3.43 4.29 4.29 0 0 1 4.2-5.14h27.63zM31.91 23.27v1.73l-7.4 7.4a4.26 4.26 0 0 0-1.16 2.17 4.28 4.28 0 0 1 1.16-3.89z"/></svg>