<?xml version="1.0" ?><svg height="1298.0px" viewBox="0 0 81.0 1298.0" width="81.0px" xmlns="http://www.w3.org/2000/svg" xmlns:xlink="http://www.w3.org/1999/xlink"><g transform="translate(20, 20)"><g transform="translate(-0.0, -0.0)">
<defs>
<g id="uid_0">
<path d=" M 437.05 326.25 L 438.1 331.45 440.05 330.25 441.6 322.3 439.65 323.5 437.05 326.25 Z" fill="#D7E13D" stroke="none"/>
</g>

<g id="uid_1">
<path d=" M 431.55 326.15 L 436.75 326.7 439.5 323.55 441.5 322.3 433.55 324.85 431.55 326.15 Z" fill="#125C68" stroke="none"/>
</g>

<g id="uid_2">
<path d=" M 438.1 331.45 L 439.65 323.5 431.6 326.05 430.8 333.6 438.1 331.45 Z" fill="#186EA8" stroke="none"/>
</g>

<path d=" M 20.5 45.8 L 20.55 41.4" fill="none" id="uid_3" stroke="#125C68" stroke-linecap="butt" stroke-linejoin="miter" stroke-miterlimit="10" stroke-width="1.2"/>
</defs>

<g transform="matrix( 1, 0, 0, 1, 0.1,0.05) ">
<g transform="matrix( 1, 0, 0, 1, 0,0) ">
<use xlink:href="#uid_3"/>
</g>

<g transform="matrix( 0.6495819091796875, -0.578338623046875, 0.578338623046875, 0.6495819091796875, 24.45,36.65) ">
<g transform="matrix( 1.12158203125, 0, 0, 1.12158203125, -489.25,-374.15) ">
<use xlink:href="#uid_0"/>
</g>

<g transform="matrix( 1.12158203125, 0, 0, 1.12158203125, -489.25,-374.15) ">
<use xlink:href="#uid_1"/>
</g>

<g transform="matrix( 1.12158203125, 0, 0, 1.12158203125, -489.25,-374.15) ">
<use xlink:href="#uid_2"/>
</g>
</g>
</g>
</g></g><g transform="translate(20, 91.0)"><g transform="translate(-0.0, -0.0)">
<defs>
<g id="uid_4">
<path d=" M 437.05 326.25 L 438.1 331.45 440.05 330.25 441.6 322.3 439.65 323.5 437.05 326.25 Z" fill="#D7E13D" stroke="none"/>
</g>

<g id="uid_5">
<path d=" M 431.55 326.15 L 436.75 326.7 439.5 323.55 441.5 322.3 433.55 324.85 431.55 326.15 Z" fill="#125C68" stroke="none"/>
</g>

<g id="uid_6">
<path d=" M 438.1 331.45 L 439.65 323.5 431.6 326.05 430.8 333.6 438.1 331.45 Z" fill="#186EA8" stroke="none"/>
</g>

<path d=" M 20.5 45.8 L 20.55 34.8" fill="none" id="uid_7" stroke="#125C68" stroke-linecap="butt" stroke-linejoin="miter" stroke-miterlimit="10" stroke-width="1.2"/>
</defs>

<g transform="matrix( 1, 0, 0, 1, 0.1,0.05) ">
<g transform="matrix( 1, 0, 0, 1, 0,0) ">
<use xlink:href="#uid_7"/>
</g>

<g transform="matrix( 0.649017333984375, -0.5767822265625, 0.5767822265625, 0.649017333984375, 24.45,30.15) ">
<g transform="matrix( 1.12158203125, 0, 0, 1.12158203125, -489.25,-374.15) ">
<use xlink:href="#uid_4"/>
</g>

<g transform="matrix( 1.12158203125, 0, 0, 1.12158203125, -489.25,-374.15) ">
<use xlink:href="#uid_5"/>
</g>

<g transform="matrix( 1.12158203125, 0, 0, 1.12158203125, -489.25,-374.15) ">
<use xlink:href="#uid_6"/>
</g>
</g>
</g>
</g></g><g transform="translate(20, 162.0)"><g transform="translate(-0.0, -0.0)">
<defs>
<g id="uid_8">
<path d=" M 437.05 326.25 L 438.1 331.45 440.05 330.25 441.6 322.3 439.65 323.5 437.05 326.25 Z" fill="#D7E13D" stroke="none"/>
</g>

<g id="uid_9">
<path d=" M 431.55 326.15 L 436.75 326.7 439.5 323.55 441.5 322.3 433.55 324.85 431.55 326.15 Z" fill="#125C68" stroke="none"/>
</g>

<g id="uid_10">
<path d=" M 438.1 331.45 L 439.65 323.5 431.6 326.05 430.8 333.6 438.1 331.45 Z" fill="#186EA8" stroke="none"/>
</g>

<path d=" M 20.5 45.8 L 20.55 28.2" fill="none" id="uid_11" stroke="#125C68" stroke-linecap="butt" stroke-linejoin="miter" stroke-miterlimit="10" stroke-width="1.2"/>
</defs>

<g transform="matrix( 1, 0, 0, 1, 0.1,0.05) ">
<g transform="matrix( 1, 0, 0, 1, 0,0) ">
<use xlink:href="#uid_11"/>
</g>

<g transform="matrix( 0.649017333984375, -0.5767822265625, 0.5767822265625, 0.649017333984375, 24.45,23.65) ">
<g transform="matrix( 1.12158203125, 0, 0, 1.12158203125, -489.25,-374.15) ">
<use xlink:href="#uid_8"/>
</g>

<g transform="matrix( 1.12158203125, 0, 0, 1.12158203125, -489.25,-374.15) ">
<use xlink:href="#uid_9"/>
</g>

<g transform="matrix( 1.12158203125, 0, 0, 1.12158203125, -489.25,-374.15) ">
<use xlink:href="#uid_10"/>
</g>
</g>
</g>
</g></g><g transform="translate(20, 233.0)"><g transform="translate(-0.0, -0.0)">
<defs>
<g id="uid_12">
<path d=" M 437.05 326.25 L 438.1 331.45 440.05 330.25 441.6 322.3 439.65 323.5 437.05 326.25 Z" fill="#D7E13D" stroke="none"/>
</g>

<g id="uid_13">
<path d=" M 431.55 326.15 L 436.75 326.7 439.5 323.55 441.5 322.3 433.55 324.85 431.55 326.15 Z" fill="#125C68" stroke="none"/>
</g>

<g id="uid_14">
<path d=" M 438.1 331.45 L 439.65 323.5 431.6 326.05 430.8 333.6 438.1 331.45 Z" fill="#186EA8" stroke="none"/>
</g>

<g id="uid_15">
<path d=" M 417.3 333.5 L 425.2 341.45 426.85 340.7 420.05 332.45 417.3 333.5 Z" fill="#D7E13D" stroke="none"/>
</g>

<g id="uid_16">
<path d=" M 411.25 334.05 L 415 335.7 418.35 333.2 420.05 332.45 412.9 333.4 411.25 334.05 Z" fill="#125C68" stroke="none"/>
</g>

<g id="uid_17">
<path d=" M 418.15 342.4 L 425.2 341.45 418.35 333.2 411.25 334.05 418.15 342.4 Z" fill="#186EA8" stroke="none"/>
</g>

<path d=" M 20.5 45.8 L 20.55 21.6" fill="none" id="uid_18" stroke="#125C68" stroke-linecap="butt" stroke-linejoin="miter" stroke-miterlimit="10" stroke-width="1.2"/>
</defs>

<g transform="matrix( 1, 0, 0, 1, 0.1,0.05) ">
<g transform="matrix( 1, 0, 0, 1, 0,0) ">
<use xlink:href="#uid_18"/>
</g>

<g transform="matrix( 0.6495819091796875, -0.578338623046875, 0.578338623046875, 0.6495819091796875, 24.45,17.05) ">
<g transform="matrix( 1.12158203125, 0, 0, 1.12158203125, -489.25,-374.15) ">
<use xlink:href="#uid_12"/>
</g>

<g transform="matrix( 1.12158203125, 0, 0, 1.12158203125, -489.25,-374.15) ">
<use xlink:href="#uid_13"/>
</g>

<g transform="matrix( 1.12158203125, 0, 0, 1.12158203125, -489.25,-374.15) ">
<use xlink:href="#uid_14"/>
</g>
</g>

<g transform="matrix( 0.3384246826171875, -0.0548095703125, 0.0548095703125, 0.3384246826171875, 16.45,34.15) ">
<g transform="matrix( 1.12158203125, 0, 0, 1.12158203125, -470,-384.05) ">
<use xlink:href="#uid_15"/>
</g>

<g transform="matrix( 1.12158203125, 0, 0, 1.12158203125, -470,-384.05) ">
<use xlink:href="#uid_16"/>
</g>

<g transform="matrix( 1.12158203125, 0, 0, 1.12158203125, -470,-384.05) ">
<use xlink:href="#uid_17"/>
</g>
</g>
</g>
</g></g><g transform="translate(20, 304.0)"><g transform="translate(-0.0, -0.0)">
<defs>
<g id="uid_19">
<path d=" M 437.05 326.25 L 438.1 331.45 440.05 330.25 441.6 322.3 439.65 323.5 437.05 326.25 Z" fill="#D7E13D" stroke="none"/>
</g>

<g id="uid_20">
<path d=" M 431.55 326.15 L 436.75 326.7 439.5 323.55 441.5 322.3 433.55 324.85 431.55 326.15 Z" fill="#125C68" stroke="none"/>
</g>

<g id="uid_21">
<path d=" M 438.1 331.45 L 439.65 323.5 431.6 326.05 430.8 333.6 438.1 331.45 Z" fill="#186EA8" stroke="none"/>
</g>

<g id="uid_22">
<path d=" M 417.3 333.5 L 425.2 341.45 426.85 340.7 420.05 332.45 417.3 333.5 Z" fill="#D7E13D" stroke="none"/>
</g>

<g id="uid_23">
<path d=" M 411.25 334.05 L 415 335.7 418.35 333.2 420.05 332.45 412.9 333.4 411.25 334.05 Z" fill="#125C68" stroke="none"/>
</g>

<g id="uid_24">
<path d=" M 418.15 342.4 L 425.2 341.45 418.35 333.2 411.25 334.05 418.15 342.4 Z" fill="#186EA8" stroke="none"/>
</g>

<path d=" M 20.5 45.8 L 20.55 21" fill="none" id="uid_25" stroke="#125C68" stroke-linecap="butt" stroke-linejoin="miter" stroke-miterlimit="10" stroke-width="1.2"/>
</defs>

<g transform="matrix( 1, 0, 0, 1, 0.1,0.05) ">
<g transform="matrix( 1, 0, 0, 1, 0,0) ">
<use xlink:href="#uid_25"/>
</g>

<g transform="matrix( 0.6630859375, -0.588897705078125, 0.588897705078125, 0.6630859375, 24.6,16.5) ">
<g transform="matrix( 1.12158203125, 0, 0, 1.12158203125, -489.25,-374.15) ">
<use xlink:href="#uid_19"/>
</g>

<g transform="matrix( 1.12158203125, 0, 0, 1.12158203125, -489.25,-374.15) ">
<use xlink:href="#uid_20"/>
</g>

<g transform="matrix( 1.12158203125, 0, 0, 1.12158203125, -489.25,-374.15) ">
<use xlink:href="#uid_21"/>
</g>
</g>

<g transform="matrix( 0.4210662841796875, -0.059539794921875, 0.059539794921875, 0.4210662841796875, 15.7,33.55) ">
<g transform="matrix( 1.12158203125, 0, 0, 1.12158203125, -470,-384.05) ">
<use xlink:href="#uid_22"/>
</g>

<g transform="matrix( 1.12158203125, 0, 0, 1.12158203125, -470,-384.05) ">
<use xlink:href="#uid_23"/>
</g>

<g transform="matrix( 1.12158203125, 0, 0, 1.12158203125, -470,-384.05) ">
<use xlink:href="#uid_24"/>
</g>
</g>
</g>
</g></g><g transform="translate(20, 375.0)"><g transform="translate(-0.0, -0.0)">
<defs>
<g id="uid_26">
<path d=" M 437.05 326.25 L 438.1 331.45 440.05 330.25 441.6 322.3 439.65 323.5 437.05 326.25 Z" fill="#D7E13D" stroke="none"/>
</g>

<g id="uid_27">
<path d=" M 431.55 326.15 L 436.75 326.7 439.5 323.55 441.5 322.3 433.55 324.85 431.55 326.15 Z" fill="#125C68" stroke="none"/>
</g>

<g id="uid_28">
<path d=" M 438.1 331.45 L 439.65 323.5 431.6 326.05 430.8 333.6 438.1 331.45 Z" fill="#186EA8" stroke="none"/>
</g>

<g id="uid_29">
<path d=" M 417.3 333.5 L 425.2 341.45 426.85 340.7 420.05 332.45 417.3 333.5 Z" fill="#D7E13D" stroke="none"/>
</g>

<g id="uid_30">
<path d=" M 411.25 334.05 L 415 335.7 418.35 333.2 420.05 332.45 412.9 333.4 411.25 334.05 Z" fill="#125C68" stroke="none"/>
</g>

<g id="uid_31">
<path d=" M 418.15 342.4 L 425.2 341.45 418.35 333.2 411.25 334.05 418.15 342.4 Z" fill="#186EA8" stroke="none"/>
</g>

<g id="uid_32">
<path d=" M 437.3 339.75 L 434.55 340.8 442.45 348.7 444.1 348 437.3 339.75 Z" fill="#D7E13D" stroke="none"/>
</g>

<g id="uid_33">
<path d=" M 428.5 341.35 L 432.25 343 435.6 340.5 437.3 339.75 430.15 340.7 428.5 341.35 Z" fill="#125C68" stroke="none"/>
</g>

<g id="uid_34">
<path d=" M 435.6 340.5 L 428.5 341.35 435.4 349.7 442.45 348.7 435.6 340.5 Z" fill="#186EA8" stroke="none"/>
</g>

<path d=" M 20.5 45.8 L 20.55 20.45" fill="none" id="uid_35" stroke="#125C68" stroke-linecap="butt" stroke-linejoin="miter" stroke-miterlimit="10" stroke-width="1.2"/>
</defs>

<g transform="matrix( 1, 0, 0, 1, 0.1,0.05) ">
<g transform="matrix( 1, 0, 0, 1, 0,0) ">
<use xlink:href="#uid_35"/>
</g>

<g transform="matrix( 0.677154541015625, -0.601043701171875, 0.601043701171875, 0.677154541015625, 24.65,15.95) ">
<g transform="matrix( 1.12158203125, 0, 0, 1.12158203125, -489.25,-374.15) ">
<use xlink:href="#uid_26"/>
</g>

<g transform="matrix( 1.12158203125, 0, 0, 1.12158203125, -489.25,-374.15) ">
<use xlink:href="#uid_27"/>
</g>

<g transform="matrix( 1.12158203125, 0, 0, 1.12158203125, -489.25,-374.15) ">
<use xlink:href="#uid_28"/>
</g>
</g>

<g transform="matrix( 0.6705169677734375, -0.0590057373046875, 0.0590057373046875, 0.6705169677734375, 13.45,31.55) ">
<g transform="matrix( 1.12158203125, 0, 0, 1.12158203125, -470,-384.05) ">
<use xlink:href="#uid_29"/>
</g>

<g transform="matrix( 1.12158203125, 0, 0, 1.12158203125, -470,-384.05) ">
<use xlink:href="#uid_30"/>
</g>

<g transform="matrix( 1.12158203125, 0, 0, 1.12158203125, -470,-384.05) ">
<use xlink:href="#uid_31"/>
</g>
</g>

<g transform="matrix( 0.6666717529296875, 0, 0, 0.6666717529296875, 27.6,38.5) ">
<g transform="matrix( 1.12158203125, 0, 0, 1.12158203125, -489.35,-392.2) ">
<use xlink:href="#uid_32"/>
</g>

<g transform="matrix( 1.12158203125, 0, 0, 1.12158203125, -489.35,-392.2) ">
<use xlink:href="#uid_33"/>
</g>

<g transform="matrix( 1.12158203125, 0, 0, 1.12158203125, -489.35,-392.2) ">
<use xlink:href="#uid_34"/>
</g>
</g>
</g>
</g></g><g transform="translate(20, 446.0)"><g transform="translate(-0.0, -0.0)">
<defs>
<g id="uid_36">
<path d=" M 437.05 326.25 L 438.1 331.45 440.05 330.25 441.6 322.3 439.65 323.5 437.05 326.25 Z" fill="#D7E13D" stroke="none"/>
</g>

<g id="uid_37">
<path d=" M 431.55 326.15 L 436.75 326.7 439.5 323.55 441.5 322.3 433.55 324.85 431.55 326.15 Z" fill="#125C68" stroke="none"/>
</g>

<g id="uid_38">
<path d=" M 438.1 331.45 L 439.65 323.5 431.6 326.05 430.8 333.6 438.1 331.45 Z" fill="#186EA8" stroke="none"/>
</g>

<g id="uid_39">
<path d=" M 417.3 333.5 L 425.2 341.45 426.85 340.7 420.05 332.45 417.3 333.5 Z" fill="#D7E13D" stroke="none"/>
</g>

<g id="uid_40">
<path d=" M 411.25 334.05 L 415 335.7 418.35 333.2 420.05 332.45 412.9 333.4 411.25 334.05 Z" fill="#125C68" stroke="none"/>
</g>

<g id="uid_41">
<path d=" M 418.15 342.4 L 425.2 341.45 418.35 333.2 411.25 334.05 418.15 342.4 Z" fill="#186EA8" stroke="none"/>
</g>

<g id="uid_42">
<path d=" M 437.3 339.75 L 434.55 340.8 442.45 348.7 444.1 348 437.3 339.75 Z" fill="#D7E13D" stroke="none"/>
</g>

<g id="uid_43">
<path d=" M 428.5 341.35 L 432.25 343 435.6 340.5 437.3 339.75 430.15 340.7 428.5 341.35 Z" fill="#125C68" stroke="none"/>
</g>

<g id="uid_44">
<path d=" M 435.6 340.5 L 428.5 341.35 435.4 349.7 442.45 348.7 435.6 340.5 Z" fill="#186EA8" stroke="none"/>
</g>

<path d=" M 20.5 45.8 L 20.55 19.85" fill="none" id="uid_45" stroke="#125C68" stroke-linecap="butt" stroke-linejoin="miter" stroke-miterlimit="10" stroke-width="1.2"/>
</defs>

<g transform="matrix( 1, 0, 0, 1, 0.1,0.05) ">
<g transform="matrix( 1, 0, 0, 1, 0,0) ">
<use xlink:href="#uid_45"/>
</g>

<g transform="matrix( 0.6932525634765625, -0.6108856201171875, 0.6108856201171875, 0.6932525634765625, 24.85,15.45) ">
<g transform="matrix( 1.12158203125, 0, 0, 1.12158203125, -489.25,-374.15) ">
<use xlink:href="#uid_36"/>
</g>

<g transform="matrix( 1.12158203125, 0, 0, 1.12158203125, -489.25,-374.15) ">
<use xlink:href="#uid_37"/>
</g>

<g transform="matrix( 1.12158203125, 0, 0, 1.12158203125, -489.25,-374.15) ">
<use xlink:href="#uid_38"/>
</g>
</g>

<g transform="matrix( 1.08642578125, 0, 0, 1.08642578125, 9.4,27.95) ">
<g transform="matrix( 1.12158203125, 0, 0, 1.12158203125, -470,-384.05) ">
<use xlink:href="#uid_39"/>
</g>

<g transform="matrix( 1.12158203125, 0, 0, 1.12158203125, -470,-384.05) ">
<use xlink:href="#uid_40"/>
</g>

<g transform="matrix( 1.12158203125, 0, 0, 1.12158203125, -470,-384.05) ">
<use xlink:href="#uid_41"/>
</g>
</g>

<g transform="matrix( 0.715972900390625, 0, 0, 0.715972900390625, 28,38.35) ">
<g transform="matrix( 1.12158203125, 0, 0, 1.12158203125, -489.35,-392.2) ">
<use xlink:href="#uid_42"/>
</g>

<g transform="matrix( 1.12158203125, 0, 0, 1.12158203125, -489.35,-392.2) ">
<use xlink:href="#uid_43"/>
</g>

<g transform="matrix( 1.12158203125, 0, 0, 1.12158203125, -489.35,-392.2) ">
<use xlink:href="#uid_44"/>
</g>
</g>
</g>
</g></g><g transform="translate(20, 517.0)"><g transform="translate(-0.0, -0.0)">
<defs>
<g id="uid_46">
<path d=" M 437.05 326.25 L 438.1 331.45 440.05 330.25 441.6 322.3 439.65 323.5 437.05 326.25 Z" fill="#D7E13D" stroke="none"/>
</g>

<g id="uid_47">
<path d=" M 431.55 326.15 L 436.75 326.7 439.5 323.55 441.5 322.3 433.55 324.85 431.55 326.15 Z" fill="#125C68" stroke="none"/>
</g>

<g id="uid_48">
<path d=" M 438.1 331.45 L 439.65 323.5 431.6 326.05 430.8 333.6 438.1 331.45 Z" fill="#186EA8" stroke="none"/>
</g>

<g id="uid_49">
<path d=" M 417.3 333.5 L 425.2 341.45 426.85 340.7 420.05 332.45 417.3 333.5 Z" fill="#D7E13D" stroke="none"/>
</g>

<g id="uid_50">
<path d=" M 411.25 334.05 L 415 335.7 418.35 333.2 420.05 332.45 412.9 333.4 411.25 334.05 Z" fill="#125C68" stroke="none"/>
</g>

<g id="uid_51">
<path d=" M 418.15 342.4 L 425.2 341.45 418.35 333.2 411.25 334.05 418.15 342.4 Z" fill="#186EA8" stroke="none"/>
</g>

<g id="uid_52">
<path d=" M 437.3 339.75 L 434.55 340.8 442.45 348.7 444.1 348 437.3 339.75 Z" fill="#D7E13D" stroke="none"/>
</g>

<g id="uid_53">
<path d=" M 428.5 341.35 L 432.25 343 435.6 340.5 437.3 339.75 430.15 340.7 428.5 341.35 Z" fill="#125C68" stroke="none"/>
</g>

<g id="uid_54">
<path d=" M 435.6 340.5 L 428.5 341.35 435.4 349.7 442.45 348.7 435.6 340.5 Z" fill="#186EA8" stroke="none"/>
</g>

<path d=" M 20.5 45.8 L 20.55 19.3" fill="none" id="uid_55" stroke="#125C68" stroke-linecap="butt" stroke-linejoin="miter" stroke-miterlimit="10" stroke-width="1.2"/>
</defs>

<g transform="matrix( 1, 0, 0, 1, 0.1,0.05) ">
<g transform="matrix( 1, 0, 0, 1, 0,0) ">
<use xlink:href="#uid_55"/>
</g>

<g transform="matrix( 0.7073822021484375, -0.6229400634765625, 0.6229400634765625, 0.7073822021484375, 24.9,14.85) ">
<g transform="matrix( 1.12158203125, 0, 0, 1.12158203125, -489.25,-374.15) ">
<use xlink:href="#uid_46"/>
</g>

<g transform="matrix( 1.12158203125, 0, 0, 1.12158203125, -489.25,-374.15) ">
<use xlink:href="#uid_47"/>
</g>

<g transform="matrix( 1.12158203125, 0, 0, 1.12158203125, -489.25,-374.15) ">
<use xlink:href="#uid_48"/>
</g>
</g>

<g transform="matrix( 1.0740509033203125, 0, 0, 1.0740509033203125, 9.65,27.95) ">
<g transform="matrix( 1.12158203125, 0, 0, 1.12158203125, -470,-384.05) ">
<use xlink:href="#uid_49"/>
</g>

<g transform="matrix( 1.12158203125, 0, 0, 1.12158203125, -470,-384.05) ">
<use xlink:href="#uid_50"/>
</g>

<g transform="matrix( 1.12158203125, 0, 0, 1.12158203125, -470,-384.05) ">
<use xlink:href="#uid_51"/>
</g>
</g>

<g transform="matrix( 0.8639068603515625, 0, 0, 0.8639068603515625, 29.25,37.9) ">
<g transform="matrix( 1.12158203125, 0, 0, 1.12158203125, -489.35,-392.2) ">
<use xlink:href="#uid_52"/>
</g>

<g transform="matrix( 1.12158203125, 0, 0, 1.12158203125, -489.35,-392.2) ">
<use xlink:href="#uid_53"/>
</g>

<g transform="matrix( 1.12158203125, 0, 0, 1.12158203125, -489.35,-392.2) ">
<use xlink:href="#uid_54"/>
</g>
</g>
</g>
</g></g><g transform="translate(20, 588.0)"><g transform="translate(-0.0, -0.0)">
<defs>
<g id="uid_56">
<path d=" M 437.05 326.25 L 438.1 331.45 440.05 330.25 441.6 322.3 439.65 323.5 437.05 326.25 Z" fill="#D7E13D" stroke="none"/>
</g>

<g id="uid_57">
<path d=" M 431.55 326.15 L 436.75 326.7 439.5 323.55 441.5 322.3 433.55 324.85 431.55 326.15 Z" fill="#125C68" stroke="none"/>
</g>

<g id="uid_58">
<path d=" M 438.1 331.45 L 439.65 323.5 431.6 326.05 430.8 333.6 438.1 331.45 Z" fill="#186EA8" stroke="none"/>
</g>

<g id="uid_59">
<path d=" M 417.3 333.5 L 425.2 341.45 426.85 340.7 420.05 332.45 417.3 333.5 Z" fill="#D7E13D" stroke="none"/>
</g>

<g id="uid_60">
<path d=" M 411.25 334.05 L 415 335.7 418.35 333.2 420.05 332.45 412.9 333.4 411.25 334.05 Z" fill="#125C68" stroke="none"/>
</g>

<g id="uid_61">
<path d=" M 418.15 342.4 L 425.2 341.45 418.35 333.2 411.25 334.05 418.15 342.4 Z" fill="#186EA8" stroke="none"/>
</g>

<g id="uid_62">
<path d=" M 437.3 339.75 L 434.55 340.8 442.45 348.7 444.1 348 437.3 339.75 Z" fill="#D7E13D" stroke="none"/>
</g>

<g id="uid_63">
<path d=" M 428.5 341.35 L 432.25 343 435.6 340.5 437.3 339.75 430.15 340.7 428.5 341.35 Z" fill="#125C68" stroke="none"/>
</g>

<g id="uid_64">
<path d=" M 435.6 340.5 L 428.5 341.35 435.4 349.7 442.45 348.7 435.6 340.5 Z" fill="#186EA8" stroke="none"/>
</g>

<path d=" M 20.5 45.8 L 20.55 18.7" fill="none" id="uid_65" stroke="#125C68" stroke-linecap="butt" stroke-linejoin="miter" stroke-miterlimit="10" stroke-width="1.2"/>
</defs>

<g transform="matrix( 1, 0, 0, 1, 0.1,0.05) ">
<g transform="matrix( 1, 0, 0, 1, 0,0) ">
<use xlink:href="#uid_65"/>
</g>

<g transform="matrix( 0.7215118408203125, -0.6349945068359375, 0.6349945068359375, 0.7215118408203125, 25.05,14.35) ">
<g transform="matrix( 1.12158203125, 0, 0, 1.12158203125, -489.25,-374.15) ">
<use xlink:href="#uid_56"/>
</g>

<g transform="matrix( 1.12158203125, 0, 0, 1.12158203125, -489.25,-374.15) ">
<use xlink:href="#uid_57"/>
</g>

<g transform="matrix( 1.12158203125, 0, 0, 1.12158203125, -489.25,-374.15) ">
<use xlink:href="#uid_58"/>
</g>
</g>

<g transform="matrix( 1.0617218017578125, 0, 0, 1.0617218017578125, 9.85,27.95) ">
<g transform="matrix( 1.12158203125, 0, 0, 1.12158203125, -470,-384.05) ">
<use xlink:href="#uid_59"/>
</g>

<g transform="matrix( 1.12158203125, 0, 0, 1.12158203125, -470,-384.05) ">
<use xlink:href="#uid_60"/>
</g>

<g transform="matrix( 1.12158203125, 0, 0, 1.12158203125, -470,-384.05) ">
<use xlink:href="#uid_61"/>
</g>
</g>

<g transform="matrix( 1.1104583740234375, 0, 0, 1.1104583740234375, 31.35,37.2) ">
<g transform="matrix( 1.12158203125, 0, 0, 1.12158203125, -489.35,-392.2) ">
<use xlink:href="#uid_62"/>
</g>

<g transform="matrix( 1.12158203125, 0, 0, 1.12158203125, -489.35,-392.2) ">
<use xlink:href="#uid_63"/>
</g>

<g transform="matrix( 1.12158203125, 0, 0, 1.12158203125, -489.35,-392.2) ">
<use xlink:href="#uid_64"/>
</g>
</g>
</g>
</g></g><g transform="translate(20, 659.0)"><g transform="translate(-0.0, -0.0)">
<defs>
<g id="uid_66">
<path d=" M 437.05 326.25 L 438.1 331.45 440.05 330.25 441.6 322.3 439.65 323.5 437.05 326.25 Z" fill="#D7E13D" stroke="none"/>
</g>

<g id="uid_67">
<path d=" M 431.55 326.15 L 436.75 326.7 439.5 323.55 441.5 322.3 433.55 324.85 431.55 326.15 Z" fill="#125C68" stroke="none"/>
</g>

<g id="uid_68">
<path d=" M 438.1 331.45 L 439.65 323.5 431.6 326.05 430.8 333.6 438.1 331.45 Z" fill="#186EA8" stroke="none"/>
</g>

<g id="uid_69">
<path d=" M 417.3 333.5 L 425.2 341.45 426.85 340.7 420.05 332.45 417.3 333.5 Z" fill="#D7E13D" stroke="none"/>
</g>

<g id="uid_70">
<path d=" M 411.25 334.05 L 415 335.7 418.35 333.2 420.05 332.45 412.9 333.4 411.25 334.05 Z" fill="#125C68" stroke="none"/>
</g>

<g id="uid_71">
<path d=" M 418.15 342.4 L 425.2 341.45 418.35 333.2 411.25 334.05 418.15 342.4 Z" fill="#186EA8" stroke="none"/>
</g>

<g id="uid_72">
<path d=" M 437.3 339.75 L 434.55 340.8 442.45 348.7 444.1 348 437.3 339.75 Z" fill="#D7E13D" stroke="none"/>
</g>

<g id="uid_73">
<path d=" M 428.5 341.35 L 432.25 343 435.6 340.5 437.3 339.75 430.15 340.7 428.5 341.35 Z" fill="#125C68" stroke="none"/>
</g>

<g id="uid_74">
<path d=" M 435.6 340.5 L 428.5 341.35 435.4 349.7 442.45 348.7 435.6 340.5 Z" fill="#186EA8" stroke="none"/>
</g>

<path d=" M 20.5 45.8 L 20.55 18.15" fill="none" id="uid_75" stroke="#125C68" stroke-linecap="butt" stroke-linejoin="miter" stroke-miterlimit="10" stroke-width="1.2"/>

<path d=" M 20.6 47.15 L 16.35 44.95 20.6 42.9 24.85 45.05 20.6 47.15 Z" fill="none" id="uid_76" stroke="#186EA8" stroke-linecap="butt" stroke-linejoin="miter" stroke-miterlimit="10" stroke-width="1"/>
</defs>

<g transform="matrix( 1, 0, 0, 1, 0.1,0.05) ">
<g transform="matrix( 1, 0, 0, 1, 0,0) ">
<use xlink:href="#uid_75"/>
</g>

<g transform="matrix( 0.7378082275390625, -0.6446075439453125, 0.6446075439453125, 0.7378082275390625, 25.15,13.85) ">
<g transform="matrix( 1.12158203125, 0, 0, 1.12158203125, -489.25,-374.15) ">
<use xlink:href="#uid_66"/>
</g>

<g transform="matrix( 1.12158203125, 0, 0, 1.12158203125, -489.25,-374.15) ">
<use xlink:href="#uid_67"/>
</g>

<g transform="matrix( 1.12158203125, 0, 0, 1.12158203125, -489.25,-374.15) ">
<use xlink:href="#uid_68"/>
</g>
</g>

<g transform="matrix( 1.0493621826171875, 0, 0, 1.0493621826171875, 10.1,27.95) ">
<g transform="matrix( 1.12158203125, 0, 0, 1.12158203125, -470,-384.05) ">
<use xlink:href="#uid_69"/>
</g>

<g transform="matrix( 1.12158203125, 0, 0, 1.12158203125, -470,-384.05) ">
<use xlink:href="#uid_70"/>
</g>

<g transform="matrix( 1.12158203125, 0, 0, 1.12158203125, -470,-384.05) ">
<use xlink:href="#uid_71"/>
</g>
</g>

<g transform="matrix( 1.0883331298828125, 0, 0, 1.0883331298828125, 31.2,37) ">
<g transform="matrix( 1.12158203125, 0, 0, 1.12158203125, -489.35,-392.2) ">
<use xlink:href="#uid_72"/>
</g>

<g transform="matrix( 1.12158203125, 0, 0, 1.12158203125, -489.35,-392.2) ">
<use xlink:href="#uid_73"/>
</g>

<g transform="matrix( 1.12158203125, 0, 0, 1.12158203125, -489.35,-392.2) ">
<use xlink:href="#uid_74"/>
</g>
</g>

<g transform="matrix( 1, 0, 0, 1, 0,0) ">
<use xlink:href="#uid_76"/>
</g>
</g>
</g></g><g transform="translate(20, 730.0)"><g transform="translate(-0.0, -0.0)">
<defs>
<g id="uid_77">
<path d=" M 437.05 326.25 L 438.1 331.45 440.05 330.25 441.6 322.3 439.65 323.5 437.05 326.25 Z" fill="#D7E13D" stroke="none"/>
</g>

<g id="uid_78">
<path d=" M 431.55 326.15 L 436.75 326.7 439.5 323.55 441.5 322.3 433.55 324.85 431.55 326.15 Z" fill="#125C68" stroke="none"/>
</g>

<g id="uid_79">
<path d=" M 438.1 331.45 L 439.65 323.5 431.6 326.05 430.8 333.6 438.1 331.45 Z" fill="#186EA8" stroke="none"/>
</g>

<g id="uid_80">
<path d=" M 417.3 333.5 L 425.2 341.45 426.85 340.7 420.05 332.45 417.3 333.5 Z" fill="#D7E13D" stroke="none"/>
</g>

<g id="uid_81">
<path d=" M 411.25 334.05 L 415 335.7 418.35 333.2 420.05 332.45 412.9 333.4 411.25 334.05 Z" fill="#125C68" stroke="none"/>
</g>

<g id="uid_82">
<path d=" M 418.15 342.4 L 425.2 341.45 418.35 333.2 411.25 334.05 418.15 342.4 Z" fill="#186EA8" stroke="none"/>
</g>

<g id="uid_83">
<path d=" M 437.3 339.75 L 434.55 340.8 442.45 348.7 444.1 348 437.3 339.75 Z" fill="#D7E13D" stroke="none"/>
</g>

<g id="uid_84">
<path d=" M 428.5 341.35 L 432.25 343 435.6 340.5 437.3 339.75 430.15 340.7 428.5 341.35 Z" fill="#125C68" stroke="none"/>
</g>

<g id="uid_85">
<path d=" M 435.6 340.5 L 428.5 341.35 435.4 349.7 442.45 348.7 435.6 340.5 Z" fill="#186EA8" stroke="none"/>
</g>

<path d=" M 0.1 59.7 L 0.15 31.45" fill="none" id="uid_86" stroke="#125C68" stroke-linecap="butt" stroke-linejoin="miter" stroke-miterlimit="10" stroke-width="1.2"/>

<path d=" M 13.8 44.95 L 20.6 41.6 27.45 45.05 20.6 48.45 13.8 44.95 Z" fill="none" id="uid_87" stroke="#186EA8" stroke-linecap="butt" stroke-linejoin="miter" stroke-miterlimit="10" stroke-width="1"/>
</defs>

<g transform="matrix( 1, 0, 0, 1, 0.1,0.05) ">
<g transform="matrix( 1, 0, 0, 1, 20.4,-13.9) ">
<use xlink:href="#uid_86"/>
</g>

<g transform="matrix( 0.752655029296875, -0.6583709716796875, 0.6583709716796875, 0.752655029296875, 25.15,13.45) ">
<g transform="matrix( 1.12158203125, 0, 0, 1.12158203125, -489.25,-374.15) ">
<use xlink:href="#uid_77"/>
</g>

<g transform="matrix( 1.12158203125, 0, 0, 1.12158203125, -489.25,-374.15) ">
<use xlink:href="#uid_78"/>
</g>

<g transform="matrix( 1.12158203125, 0, 0, 1.12158203125, -489.25,-374.15) ">
<use xlink:href="#uid_79"/>
</g>
</g>

<g transform="matrix( 1.0370025634765625, 0, 0, 1.0370025634765625, 10.4,28) ">
<g transform="matrix( 1.12158203125, 0, 0, 1.12158203125, -470,-384.05) ">
<use xlink:href="#uid_80"/>
</g>

<g transform="matrix( 1.12158203125, 0, 0, 1.12158203125, -470,-384.05) ">
<use xlink:href="#uid_81"/>
</g>

<g transform="matrix( 1.12158203125, 0, 0, 1.12158203125, -470,-384.05) ">
<use xlink:href="#uid_82"/>
</g>
</g>

<g transform="matrix( 1.0662384033203125, 0, 0, 1.0662384033203125, 31,36.8) ">
<g transform="matrix( 1.12158203125, 0, 0, 1.12158203125, -489.35,-392.2) ">
<use xlink:href="#uid_83"/>
</g>

<g transform="matrix( 1.12158203125, 0, 0, 1.12158203125, -489.35,-392.2) ">
<use xlink:href="#uid_84"/>
</g>

<g transform="matrix( 1.12158203125, 0, 0, 1.12158203125, -489.35,-392.2) ">
<use xlink:href="#uid_85"/>
</g>
</g>

<g transform="matrix( 1, 0, 0, 1, 0,0) ">
<use xlink:href="#uid_87"/>
</g>
</g>
</g></g><g transform="translate(20, 801.0)"><g transform="translate(-0.0, -0.0)">
<defs>
<g id="uid_88">
<path d=" M 437.05 326.25 L 438.1 331.45 440.05 330.25 441.6 322.3 439.65 323.5 437.05 326.25 Z" fill="#D7E13D" stroke="none"/>
</g>

<g id="uid_89">
<path d=" M 431.55 326.15 L 436.75 326.7 439.5 323.55 441.5 322.3 433.55 324.85 431.55 326.15 Z" fill="#125C68" stroke="none"/>
</g>

<g id="uid_90">
<path d=" M 438.1 331.45 L 439.65 323.5 431.6 326.05 430.8 333.6 438.1 331.45 Z" fill="#186EA8" stroke="none"/>
</g>

<g id="uid_91">
<path d=" M 417.3 333.5 L 425.2 341.45 426.85 340.7 420.05 332.45 417.3 333.5 Z" fill="#D7E13D" stroke="none"/>
</g>

<g id="uid_92">
<path d=" M 411.25 334.05 L 415 335.7 418.35 333.2 420.05 332.45 412.9 333.4 411.25 334.05 Z" fill="#125C68" stroke="none"/>
</g>

<g id="uid_93">
<path d=" M 418.15 342.4 L 425.2 341.45 418.35 333.2 411.25 334.05 418.15 342.4 Z" fill="#186EA8" stroke="none"/>
</g>

<g id="uid_94">
<path d=" M 437.3 339.75 L 434.55 340.8 442.45 348.7 444.1 348 437.3 339.75 Z" fill="#D7E13D" stroke="none"/>
</g>

<g id="uid_95">
<path d=" M 428.5 341.35 L 432.25 343 435.6 340.5 437.3 339.75 430.15 340.7 428.5 341.35 Z" fill="#125C68" stroke="none"/>
</g>

<g id="uid_96">
<path d=" M 435.6 340.5 L 428.5 341.35 435.4 349.7 442.45 348.7 435.6 340.5 Z" fill="#186EA8" stroke="none"/>
</g>

<path d=" M 20.5 45.8 L 20.6 20.05 22.15 17.9" fill="none" id="uid_97" stroke="#125C68" stroke-linecap="butt" stroke-linejoin="miter" stroke-miterlimit="10" stroke-width="1.2"/>

<path d=" M 11.2 44.95 L 20.65 40.3 30 45.1 20.6 49.7 11.2 44.95 Z" fill="none" id="uid_98" stroke="#186EA8" stroke-linecap="butt" stroke-linejoin="miter" stroke-miterlimit="10" stroke-width="1"/>
</defs>

<g transform="matrix( 1, 0, 0, 1, 0.1,0.05) ">
<g transform="matrix( 1, 0, 0, 1, 0,0) ">
<use xlink:href="#uid_97"/>
</g>

<g transform="matrix( 0.978240966796875, -0.20745849609375, 0.20745849609375, 0.978240966796875, 29.4,16.4) ">
<g transform="matrix( 1.12158203125, 0, 0, 1.12158203125, -489.25,-374.15) ">
<use xlink:href="#uid_88"/>
</g>

<g transform="matrix( 1.12158203125, 0, 0, 1.12158203125, -489.25,-374.15) ">
<use xlink:href="#uid_89"/>
</g>

<g transform="matrix( 1.12158203125, 0, 0, 1.12158203125, -489.25,-374.15) ">
<use xlink:href="#uid_90"/>
</g>
</g>

<g transform="matrix( 1.0246734619140625, 0, 0, 1.0246734619140625, 10.65,28.05) ">
<g transform="matrix( 1.12158203125, 0, 0, 1.12158203125, -470,-384.05) ">
<use xlink:href="#uid_91"/>
</g>

<g transform="matrix( 1.12158203125, 0, 0, 1.12158203125, -470,-384.05) ">
<use xlink:href="#uid_92"/>
</g>

<g transform="matrix( 1.12158203125, 0, 0, 1.12158203125, -470,-384.05) ">
<use xlink:href="#uid_93"/>
</g>
</g>

<g transform="matrix( 1.044158935546875, 0, 0, 1.044158935546875, 30.85,36.55) ">
<g transform="matrix( 1.12158203125, 0, 0, 1.12158203125, -489.35,-392.2) ">
<use xlink:href="#uid_94"/>
</g>

<g transform="matrix( 1.12158203125, 0, 0, 1.12158203125, -489.35,-392.2) ">
<use xlink:href="#uid_95"/>
</g>

<g transform="matrix( 1.12158203125, 0, 0, 1.12158203125, -489.35,-392.2) ">
<use xlink:href="#uid_96"/>
</g>
</g>

<g transform="matrix( 1, 0, 0, 1, 0,0) ">
<use xlink:href="#uid_98"/>
</g>
</g>
</g></g><g transform="translate(20, 872.0)"><g transform="translate(-0.0, -0.0)">
<defs>
<g id="uid_99">
<path d=" M 437.05 326.25 L 438.1 331.45 440.05 330.25 441.6 322.3 439.65 323.5 437.05 326.25 Z" fill="#D7E13D" stroke="none"/>
</g>

<g id="uid_100">
<path d=" M 431.55 326.15 L 436.75 326.7 439.5 323.55 441.5 322.3 433.55 324.85 431.55 326.15 Z" fill="#125C68" stroke="none"/>
</g>

<g id="uid_101">
<path d=" M 438.1 331.45 L 439.65 323.5 431.6 326.05 430.8 333.6 438.1 331.45 Z" fill="#186EA8" stroke="none"/>
</g>

<g id="uid_102">
<path d=" M 417.3 333.5 L 425.2 341.45 426.85 340.7 420.05 332.45 417.3 333.5 Z" fill="#D7E13D" stroke="none"/>
</g>

<g id="uid_103">
<path d=" M 411.25 334.05 L 415 335.7 418.35 333.2 420.05 332.45 412.9 333.4 411.25 334.05 Z" fill="#125C68" stroke="none"/>
</g>

<g id="uid_104">
<path d=" M 418.15 342.4 L 425.2 341.45 418.35 333.2 411.25 334.05 418.15 342.4 Z" fill="#186EA8" stroke="none"/>
</g>

<g id="uid_105">
<path d=" M 437.3 339.75 L 434.55 340.8 442.45 348.7 444.1 348 437.3 339.75 Z" fill="#D7E13D" stroke="none"/>
</g>

<g id="uid_106">
<path d=" M 428.5 341.35 L 432.25 343 435.6 340.5 437.3 339.75 430.15 340.7 428.5 341.35 Z" fill="#125C68" stroke="none"/>
</g>

<g id="uid_107">
<path d=" M 435.6 340.5 L 428.5 341.35 435.4 349.7 442.45 348.7 435.6 340.5 Z" fill="#186EA8" stroke="none"/>
</g>

<path d=" M 20.5 45.8 L 20.6 20.05 22.3 18.05" fill="none" id="uid_108" stroke="#125C68" stroke-linecap="butt" stroke-linejoin="miter" stroke-miterlimit="10" stroke-width="1.2"/>

<path d=" M 20.6 51 L 8.65 44.95 20.65 39 32.6 45.1 20.6 51 Z" fill="none" id="uid_109" stroke="#186EA8" stroke-linecap="butt" stroke-linejoin="miter" stroke-miterlimit="10" stroke-width="1"/>
</defs>

<g transform="matrix( 1, 0, 0, 1, 0.1,0.05) ">
<g transform="matrix( 1, 0, 0, 1, 0,0) ">
<use xlink:href="#uid_108"/>
</g>

<g transform="matrix( 0.98480224609375, -0.1703338623046875, 0.1703338623046875, 0.98480224609375, 29.55,16.75) ">
<g transform="matrix( 1.12158203125, 0, 0, 1.12158203125, -489.25,-374.15) ">
<use xlink:href="#uid_99"/>
</g>

<g transform="matrix( 1.12158203125, 0, 0, 1.12158203125, -489.25,-374.15) ">
<use xlink:href="#uid_100"/>
</g>

<g transform="matrix( 1.12158203125, 0, 0, 1.12158203125, -489.25,-374.15) ">
<use xlink:href="#uid_101"/>
</g>
</g>

<g transform="matrix( 1.0123138427734375, 0, 0, 1.0123138427734375, 10.85,28) ">
<g transform="matrix( 1.12158203125, 0, 0, 1.12158203125, -470,-384.05) ">
<use xlink:href="#uid_102"/>
</g>

<g transform="matrix( 1.12158203125, 0, 0, 1.12158203125, -470,-384.05) ">
<use xlink:href="#uid_103"/>
</g>

<g transform="matrix( 1.12158203125, 0, 0, 1.12158203125, -470,-384.05) ">
<use xlink:href="#uid_104"/>
</g>
</g>

<g transform="matrix( 1.022064208984375, 0, 0, 1.022064208984375, 30.7,36.35) ">
<g transform="matrix( 1.12158203125, 0, 0, 1.12158203125, -489.35,-392.2) ">
<use xlink:href="#uid_105"/>
</g>

<g transform="matrix( 1.12158203125, 0, 0, 1.12158203125, -489.35,-392.2) ">
<use xlink:href="#uid_106"/>
</g>

<g transform="matrix( 1.12158203125, 0, 0, 1.12158203125, -489.35,-392.2) ">
<use xlink:href="#uid_107"/>
</g>
</g>

<g transform="matrix( 1, 0, 0, 1, 0,0) ">
<use xlink:href="#uid_109"/>
</g>
</g>
</g></g><g transform="translate(20, 943.0)"><g transform="translate(-0.0, -0.0)">
<defs>
<g id="uid_110">
<path d=" M 437.05 326.25 L 438.1 331.45 440.05 330.25 441.6 322.3 439.65 323.5 437.05 326.25 Z" fill="#D7E13D" stroke="none"/>
</g>

<g id="uid_111">
<path d=" M 431.55 326.15 L 436.75 326.7 439.5 323.55 441.5 322.3 433.55 324.85 431.55 326.15 Z" fill="#125C68" stroke="none"/>
</g>

<g id="uid_112">
<path d=" M 438.1 331.45 L 439.65 323.5 431.6 326.05 430.8 333.6 438.1 331.45 Z" fill="#186EA8" stroke="none"/>
</g>

<g id="uid_113">
<path d=" M 417.3 333.5 L 425.2 341.45 426.85 340.7 420.05 332.45 417.3 333.5 Z" fill="#D7E13D" stroke="none"/>
</g>

<g id="uid_114">
<path d=" M 411.25 334.05 L 415 335.7 418.35 333.2 420.05 332.45 412.9 333.4 411.25 334.05 Z" fill="#125C68" stroke="none"/>
</g>

<g id="uid_115">
<path d=" M 418.15 342.4 L 425.2 341.45 418.35 333.2 411.25 334.05 418.15 342.4 Z" fill="#186EA8" stroke="none"/>
</g>

<g id="uid_116">
<path d=" M 437.3 339.75 L 434.55 340.8 442.45 348.7 444.1 348 437.3 339.75 Z" fill="#D7E13D" stroke="none"/>
</g>

<g id="uid_117">
<path d=" M 428.5 341.35 L 432.25 343 435.6 340.5 437.3 339.75 430.15 340.7 428.5 341.35 Z" fill="#125C68" stroke="none"/>
</g>

<g id="uid_118">
<path d=" M 435.6 340.5 L 428.5 341.35 435.4 349.7 442.45 348.7 435.6 340.5 Z" fill="#186EA8" stroke="none"/>
</g>

<path d=" M 20.5 45.8 L 20.6 20.05 22.4 18.2" fill="none" id="uid_119" stroke="#125C68" stroke-linecap="butt" stroke-linejoin="miter" stroke-miterlimit="10" stroke-width="1.2"/>

<path d=" M 8.95 44.95 L 20.65 39.15 32.3 45.1 20.6 50.85 8.95 44.95 Z" fill="none" id="uid_120" stroke="#186EA8" stroke-linecap="butt" stroke-linejoin="miter" stroke-miterlimit="10" stroke-width="1"/>
</defs>

<g transform="matrix( 1, 0, 0, 1, 0.1,0.05) ">
<g transform="matrix( 1, 0, 0, 1, 0,0) ">
<use xlink:href="#uid_119"/>
</g>

<g transform="matrix( 0.9902496337890625, -0.1358489990234375, 0.1358489990234375, 0.9902496337890625, 29.75,17) ">
<g transform="matrix( 1.12158203125, 0, 0, 1.12158203125, -489.25,-374.15) ">
<use xlink:href="#uid_110"/>
</g>

<g transform="matrix( 1.12158203125, 0, 0, 1.12158203125, -489.25,-374.15) ">
<use xlink:href="#uid_111"/>
</g>

<g transform="matrix( 1.12158203125, 0, 0, 1.12158203125, -489.25,-374.15) ">
<use xlink:href="#uid_112"/>
</g>
</g>

<g transform="matrix( 1, 0, 0, 1, 11.1,28.05) ">
<g transform="matrix( 1.12158203125, 0, 0, 1.12158203125, -470,-384.05) ">
<use xlink:href="#uid_113"/>
</g>

<g transform="matrix( 1.12158203125, 0, 0, 1.12158203125, -470,-384.05) ">
<use xlink:href="#uid_114"/>
</g>

<g transform="matrix( 1.12158203125, 0, 0, 1.12158203125, -470,-384.05) ">
<use xlink:href="#uid_115"/>
</g>
</g>

<g transform="matrix( 1, 0, 0, 1, 30.45,36.2) ">
<g transform="matrix( 1.12158203125, 0, 0, 1.12158203125, -489.35,-392.2) ">
<use xlink:href="#uid_116"/>
</g>

<g transform="matrix( 1.12158203125, 0, 0, 1.12158203125, -489.35,-392.2) ">
<use xlink:href="#uid_117"/>
</g>

<g transform="matrix( 1.12158203125, 0, 0, 1.12158203125, -489.35,-392.2) ">
<use xlink:href="#uid_118"/>
</g>
</g>

<g transform="matrix( 1, 0, 0, 1, 0,0) ">
<use xlink:href="#uid_120"/>
</g>
</g>
</g></g><g transform="translate(20, 1014.0)"><g transform="translate(-0.0, -0.0)">
<defs>
<g id="uid_121">
<path d=" M 437.05 326.25 L 438.1 331.45 440.05 330.25 441.6 322.3 439.65 323.5 437.05 326.25 Z" fill="#D7E13D" stroke="none"/>
</g>

<g id="uid_122">
<path d=" M 431.55 326.15 L 436.75 326.7 439.5 323.55 441.5 322.3 433.55 324.85 431.55 326.15 Z" fill="#125C68" stroke="none"/>
</g>

<g id="uid_123">
<path d=" M 438.1 331.45 L 439.65 323.5 431.6 326.05 430.8 333.6 438.1 331.45 Z" fill="#186EA8" stroke="none"/>
</g>

<g id="uid_124">
<path d=" M 417.3 333.5 L 425.2 341.45 426.85 340.7 420.05 332.45 417.3 333.5 Z" fill="#D7E13D" stroke="none"/>
</g>

<g id="uid_125">
<path d=" M 411.25 334.05 L 415 335.7 418.35 333.2 420.05 332.45 412.9 333.4 411.25 334.05 Z" fill="#125C68" stroke="none"/>
</g>

<g id="uid_126">
<path d=" M 418.15 342.4 L 425.2 341.45 418.35 333.2 411.25 334.05 418.15 342.4 Z" fill="#186EA8" stroke="none"/>
</g>

<g id="uid_127">
<path d=" M 437.3 339.75 L 434.55 340.8 442.45 348.7 444.1 348 437.3 339.75 Z" fill="#D7E13D" stroke="none"/>
</g>

<g id="uid_128">
<path d=" M 428.5 341.35 L 432.25 343 435.6 340.5 437.3 339.75 430.15 340.7 428.5 341.35 Z" fill="#125C68" stroke="none"/>
</g>

<g id="uid_129">
<path d=" M 435.6 340.5 L 428.5 341.35 435.4 349.7 442.45 348.7 435.6 340.5 Z" fill="#186EA8" stroke="none"/>
</g>

<path d=" M 20.5 45.8 L 20.6 20.05 22.55 18.35" fill="none" id="uid_130" stroke="#125C68" stroke-linecap="butt" stroke-linejoin="miter" stroke-miterlimit="10" stroke-width="1.2"/>

<path d=" M 9.25 44.95 L 20.65 39.3 31.95 45.1 20.6 50.7 9.25 44.95 Z" fill="none" id="uid_131" stroke="#186EA8" stroke-linecap="butt" stroke-linejoin="miter" stroke-miterlimit="10" stroke-width="1"/>
</defs>

<g transform="matrix( 1, 0, 0, 1, 0.1,0.05) ">
<g transform="matrix( 1, 0, 0, 1, 0,0) ">
<use xlink:href="#uid_130"/>
</g>

<g transform="matrix( 0.9944915771484375, -0.1012115478515625, 0.1012115478515625, 0.9944915771484375, 29.9,17.3) ">
<g transform="matrix( 1.12158203125, 0, 0, 1.12158203125, -489.25,-374.15) ">
<use xlink:href="#uid_121"/>
</g>

<g transform="matrix( 1.12158203125, 0, 0, 1.12158203125, -489.25,-374.15) ">
<use xlink:href="#uid_122"/>
</g>

<g transform="matrix( 1.12158203125, 0, 0, 1.12158203125, -489.25,-374.15) ">
<use xlink:href="#uid_123"/>
</g>
</g>

<g transform="matrix( 1, 0, 0, 1, 11.1,28.05) ">
<g transform="matrix( 1.12158203125, 0, 0, 1.12158203125, -470,-384.05) ">
<use xlink:href="#uid_124"/>
</g>

<g transform="matrix( 1.12158203125, 0, 0, 1.12158203125, -470,-384.05) ">
<use xlink:href="#uid_125"/>
</g>

<g transform="matrix( 1.12158203125, 0, 0, 1.12158203125, -470,-384.05) ">
<use xlink:href="#uid_126"/>
</g>
</g>

<g transform="matrix( 1, 0, 0, 1, 30.45,36.2) ">
<g transform="matrix( 1.12158203125, 0, 0, 1.12158203125, -489.35,-392.2) ">
<use xlink:href="#uid_127"/>
</g>

<g transform="matrix( 1.12158203125, 0, 0, 1.12158203125, -489.35,-392.2) ">
<use xlink:href="#uid_128"/>
</g>

<g transform="matrix( 1.12158203125, 0, 0, 1.12158203125, -489.35,-392.2) ">
<use xlink:href="#uid_129"/>
</g>
</g>

<g transform="matrix( 1, 0, 0, 1, 0,0) ">
<use xlink:href="#uid_131"/>
</g>
</g>
</g></g><g transform="translate(20, 1085.0)"><g transform="translate(-0.0, -0.0)">
<defs>
<g id="uid_132">
<path d=" M 437.05 326.25 L 438.1 331.45 440.05 330.25 441.6 322.3 439.65 323.5 437.05 326.25 Z" fill="#D7E13D" stroke="none"/>
</g>

<g id="uid_133">
<path d=" M 431.55 326.15 L 436.75 326.7 439.5 323.55 441.5 322.3 433.55 324.85 431.55 326.15 Z" fill="#125C68" stroke="none"/>
</g>

<g id="uid_134">
<path d=" M 438.1 331.45 L 439.65 323.5 431.6 326.05 430.8 333.6 438.1 331.45 Z" fill="#186EA8" stroke="none"/>
</g>

<g id="uid_135">
<path d=" M 417.3 333.5 L 425.2 341.45 426.85 340.7 420.05 332.45 417.3 333.5 Z" fill="#D7E13D" stroke="none"/>
</g>

<g id="uid_136">
<path d=" M 411.25 334.05 L 415 335.7 418.35 333.2 420.05 332.45 412.9 333.4 411.25 334.05 Z" fill="#125C68" stroke="none"/>
</g>

<g id="uid_137">
<path d=" M 418.15 342.4 L 425.2 341.45 418.35 333.2 411.25 334.05 418.15 342.4 Z" fill="#186EA8" stroke="none"/>
</g>

<g id="uid_138">
<path d=" M 437.3 339.75 L 434.55 340.8 442.45 348.7 444.1 348 437.3 339.75 Z" fill="#D7E13D" stroke="none"/>
</g>

<g id="uid_139">
<path d=" M 428.5 341.35 L 432.25 343 435.6 340.5 437.3 339.75 430.15 340.7 428.5 341.35 Z" fill="#125C68" stroke="none"/>
</g>

<g id="uid_140">
<path d=" M 435.6 340.5 L 428.5 341.35 435.4 349.7 442.45 348.7 435.6 340.5 Z" fill="#186EA8" stroke="none"/>
</g>

<path d=" M 20.5 45.8 L 20.6 20.05 22.7 18.5" fill="none" id="uid_141" stroke="#125C68" stroke-linecap="butt" stroke-linejoin="miter" stroke-miterlimit="10" stroke-width="1.2"/>

<path d=" M 9.55 44.9 L 20.6 39.45 31.65 45.05 20.55 50.5 9.55 44.9 Z" fill="none" id="uid_142" stroke="#186EA8" stroke-linecap="butt" stroke-linejoin="miter" stroke-miterlimit="10" stroke-width="1"/>
</defs>

<g transform="matrix( 1, 0, 0, 1, 0.1,0.05) ">
<g transform="matrix( 1, 0, 0, 1, 0,0) ">
<use xlink:href="#uid_141"/>
</g>

<g transform="matrix( 0.9975433349609375, -0.0664520263671875, 0.0664520263671875, 0.9975433349609375, 30.05,17.6) ">
<g transform="matrix( 1.12158203125, 0, 0, 1.12158203125, -489.25,-374.15) ">
<use xlink:href="#uid_132"/>
</g>

<g transform="matrix( 1.12158203125, 0, 0, 1.12158203125, -489.25,-374.15) ">
<use xlink:href="#uid_133"/>
</g>

<g transform="matrix( 1.12158203125, 0, 0, 1.12158203125, -489.25,-374.15) ">
<use xlink:href="#uid_134"/>
</g>
</g>

<g transform="matrix( 1, 0, 0, 1, 11.1,28.05) ">
<g transform="matrix( 1.12158203125, 0, 0, 1.12158203125, -470,-384.05) ">
<use xlink:href="#uid_135"/>
</g>

<g transform="matrix( 1.12158203125, 0, 0, 1.12158203125, -470,-384.05) ">
<use xlink:href="#uid_136"/>
</g>

<g transform="matrix( 1.12158203125, 0, 0, 1.12158203125, -470,-384.05) ">
<use xlink:href="#uid_137"/>
</g>
</g>

<g transform="matrix( 1, 0, 0, 1, 30.45,36.2) ">
<g transform="matrix( 1.12158203125, 0, 0, 1.12158203125, -489.35,-392.2) ">
<use xlink:href="#uid_138"/>
</g>

<g transform="matrix( 1.12158203125, 0, 0, 1.12158203125, -489.35,-392.2) ">
<use xlink:href="#uid_139"/>
</g>

<g transform="matrix( 1.12158203125, 0, 0, 1.12158203125, -489.35,-392.2) ">
<use xlink:href="#uid_140"/>
</g>
</g>

<g transform="matrix( 1, 0, 0, 1, 0,0) ">
<use xlink:href="#uid_142"/>
</g>
</g>
</g></g><g transform="translate(20, 1156.0)"><g transform="translate(-0.0, -0.0)">
<defs>
<g id="uid_143">
<path d=" M 437.05 326.25 L 438.1 331.45 440.05 330.25 441.6 322.3 439.65 323.5 437.05 326.25 Z" fill="#D7E13D" stroke="none"/>
</g>

<g id="uid_144">
<path d=" M 431.55 326.15 L 436.75 326.7 439.5 323.55 441.5 322.3 433.55 324.85 431.55 326.15 Z" fill="#125C68" stroke="none"/>
</g>

<g id="uid_145">
<path d=" M 438.1 331.45 L 439.65 323.5 431.6 326.05 430.8 333.6 438.1 331.45 Z" fill="#186EA8" stroke="none"/>
</g>

<g id="uid_146">
<path d=" M 417.3 333.5 L 425.2 341.45 426.85 340.7 420.05 332.45 417.3 333.5 Z" fill="#D7E13D" stroke="none"/>
</g>

<g id="uid_147">
<path d=" M 411.25 334.05 L 415 335.7 418.35 333.2 420.05 332.45 412.9 333.4 411.25 334.05 Z" fill="#125C68" stroke="none"/>
</g>

<g id="uid_148">
<path d=" M 418.15 342.4 L 425.2 341.45 418.35 333.2 411.25 334.05 418.15 342.4 Z" fill="#186EA8" stroke="none"/>
</g>

<g id="uid_149">
<path d=" M 437.3 339.75 L 434.55 340.8 442.45 348.7 444.1 348 437.3 339.75 Z" fill="#D7E13D" stroke="none"/>
</g>

<g id="uid_150">
<path d=" M 428.5 341.35 L 432.25 343 435.6 340.5 437.3 339.75 430.15 340.7 428.5 341.35 Z" fill="#125C68" stroke="none"/>
</g>

<g id="uid_151">
<path d=" M 435.6 340.5 L 428.5 341.35 435.4 349.7 442.45 348.7 435.6 340.5 Z" fill="#186EA8" stroke="none"/>
</g>

<path d=" M 20.5 45.8 L 20.6 20.05 22.8 18.65" fill="none" id="uid_152" stroke="#125C68" stroke-linecap="butt" stroke-linejoin="miter" stroke-miterlimit="10" stroke-width="1.2"/>

<path d=" M 9.85 44.9 L 20.6 39.6 31.3 45.05 20.55 50.35 9.85 44.9 Z" fill="none" id="uid_153" stroke="#186EA8" stroke-linecap="butt" stroke-linejoin="miter" stroke-miterlimit="10" stroke-width="1"/>
</defs>

<g transform="matrix( 1, 0, 0, 1, 0.1,0.05) ">
<g transform="matrix( 1, 0, 0, 1, 0,0) ">
<use xlink:href="#uid_152"/>
</g>

<g transform="matrix( 0.999359130859375, -0.0316162109375, 0.0316162109375, 0.999359130859375, 30.2,17.85) ">
<g transform="matrix( 1.12158203125, 0, 0, 1.12158203125, -489.25,-374.15) ">
<use xlink:href="#uid_143"/>
</g>

<g transform="matrix( 1.12158203125, 0, 0, 1.12158203125, -489.25,-374.15) ">
<use xlink:href="#uid_144"/>
</g>

<g transform="matrix( 1.12158203125, 0, 0, 1.12158203125, -489.25,-374.15) ">
<use xlink:href="#uid_145"/>
</g>
</g>

<g transform="matrix( 1, 0, 0, 1, 11.1,28.05) ">
<g transform="matrix( 1.12158203125, 0, 0, 1.12158203125, -470,-384.05) ">
<use xlink:href="#uid_146"/>
</g>

<g transform="matrix( 1.12158203125, 0, 0, 1.12158203125, -470,-384.05) ">
<use xlink:href="#uid_147"/>
</g>

<g transform="matrix( 1.12158203125, 0, 0, 1.12158203125, -470,-384.05) ">
<use xlink:href="#uid_148"/>
</g>
</g>

<g transform="matrix( 1, 0, 0, 1, 30.45,36.2) ">
<g transform="matrix( 1.12158203125, 0, 0, 1.12158203125, -489.35,-392.2) ">
<use xlink:href="#uid_149"/>
</g>

<g transform="matrix( 1.12158203125, 0, 0, 1.12158203125, -489.35,-392.2) ">
<use xlink:href="#uid_150"/>
</g>

<g transform="matrix( 1.12158203125, 0, 0, 1.12158203125, -489.35,-392.2) ">
<use xlink:href="#uid_151"/>
</g>
</g>

<g transform="matrix( 1, 0, 0, 1, 0,0) ">
<use xlink:href="#uid_153"/>
</g>
</g>
</g></g><g transform="translate(20, 1227.0)"><g transform="translate(-0.0, -0.0)">
<defs>
<g id="uid_154">
<path d=" M 437.05 326.25 L 438.1 331.45 440.05 330.25 441.6 322.3 439.65 323.5 437.05 326.25 Z" fill="#D7E13D" stroke="none"/>
</g>

<g id="uid_155">
<path d=" M 431.55 326.15 L 436.75 326.7 439.5 323.55 441.5 322.3 433.55 324.85 431.55 326.15 Z" fill="#125C68" stroke="none"/>
</g>

<g id="uid_156">
<path d=" M 438.1 331.45 L 439.65 323.5 431.6 326.05 430.8 333.6 438.1 331.45 Z" fill="#186EA8" stroke="none"/>
</g>

<g id="uid_157">
<path d=" M 417.3 333.5 L 425.2 341.45 426.85 340.7 420.05 332.45 417.3 333.5 Z" fill="#D7E13D" stroke="none"/>
</g>

<g id="uid_158">
<path d=" M 411.25 334.05 L 415 335.7 418.35 333.2 420.05 332.45 412.9 333.4 411.25 334.05 Z" fill="#125C68" stroke="none"/>
</g>

<g id="uid_159">
<path d=" M 418.15 342.4 L 425.2 341.45 418.35 333.2 411.25 334.05 418.15 342.4 Z" fill="#186EA8" stroke="none"/>
</g>

<g id="uid_160">
<path d=" M 437.3 339.75 L 434.55 340.8 442.45 348.7 444.1 348 437.3 339.75 Z" fill="#D7E13D" stroke="none"/>
</g>

<g id="uid_161">
<path d=" M 428.5 341.35 L 432.25 343 435.6 340.5 437.3 339.75 430.15 340.7 428.5 341.35 Z" fill="#125C68" stroke="none"/>
</g>

<g id="uid_162">
<path d=" M 435.6 340.5 L 428.5 341.35 435.4 349.7 442.45 348.7 435.6 340.5 Z" fill="#186EA8" stroke="none"/>
</g>

<path d=" M 20.5 45.8 L 20.6 20.05 22.95 18.8" fill="none" id="uid_163" stroke="#125C68" stroke-linecap="butt" stroke-linejoin="miter" stroke-miterlimit="10" stroke-width="1.2"/>

<path d=" M 20.55 50.2 L 10.15 44.9 20.6 39.75 31 45.05 20.55 50.2 Z" fill="none" id="uid_164" stroke="#186EA8" stroke-linecap="butt" stroke-linejoin="miter" stroke-miterlimit="10" stroke-width="1"/>
</defs>

<g transform="matrix( 1, 0, 0, 1, 0.1,0.05) ">
<g transform="matrix( 1, 0, 0, 1, 0,0) ">
<use xlink:href="#uid_163"/>
</g>

<g transform="matrix( 1, 0, 0, 1, 30.35,18.15) ">
<g transform="matrix( 1.12158203125, 0, 0, 1.12158203125, -489.25,-374.15) ">
<use xlink:href="#uid_154"/>
</g>

<g transform="matrix( 1.12158203125, 0, 0, 1.12158203125, -489.25,-374.15) ">
<use xlink:href="#uid_155"/>
</g>

<g transform="matrix( 1.12158203125, 0, 0, 1.12158203125, -489.25,-374.15) ">
<use xlink:href="#uid_156"/>
</g>
</g>

<g transform="matrix( 1, 0, 0, 1, 11.1,28.05) ">
<g transform="matrix( 1.12158203125, 0, 0, 1.12158203125, -470,-384.05) ">
<use xlink:href="#uid_157"/>
</g>

<g transform="matrix( 1.12158203125, 0, 0, 1.12158203125, -470,-384.05) ">
<use xlink:href="#uid_158"/>
</g>

<g transform="matrix( 1.12158203125, 0, 0, 1.12158203125, -470,-384.05) ">
<use xlink:href="#uid_159"/>
</g>
</g>

<g transform="matrix( 1, 0, 0, 1, 30.45,36.2) ">
<g transform="matrix( 1.12158203125, 0, 0, 1.12158203125, -489.35,-392.2) ">
<use xlink:href="#uid_160"/>
</g>

<g transform="matrix( 1.12158203125, 0, 0, 1.12158203125, -489.35,-392.2) ">
<use xlink:href="#uid_161"/>
</g>

<g transform="matrix( 1.12158203125, 0, 0, 1.12158203125, -489.35,-392.2) ">
<use xlink:href="#uid_162"/>
</g>
</g>

<g transform="matrix( 1, 0, 0, 1, 0,0) ">
<use xlink:href="#uid_164"/>
</g>
</g>
</g></g></svg>