<?xml version="1.0" encoding="UTF-8" ?>
<!DOCTYPE svg PUBLIC "-//W3C//DTD SVG 1.1//EN" "http://www.w3.org/Graphics/SVG/1.1/DTD/svg11.dtd">
<svg width="61pt" height="102pt" viewBox="0 0 61 102" version="1.1" xmlns="http://www.w3.org/2000/svg">
<g id="#2b2a2aff">
<path fill="#2b2a2a" opacity="1.00" d=" M 28.38 9.20 C 32.14 9.33 36.11 8.38 39.72 9.67 L 39.66 9.66 C 36.20 10.17 32.30 8.31 29.19 10.14 C 27.84 13.66 28.83 17.60 28.65 21.29 C 25.91 21.28 23.18 21.28 20.44 21.28 C 20.44 24.95 20.44 28.63 20.46 32.30 C 17.47 32.34 14.48 32.35 11.49 32.36 C 11.65 44.77 11.07 57.19 11.92 69.58 C 11.81 69.84 11.59 70.35 11.48 70.61 L 11.41 70.75 C 10.82 64.56 11.71 58.29 11.34 52.07 C 10.46 52.07 8.71 52.07 7.83 52.07 C 7.84 55.51 7.84 58.96 7.80 62.41 C 7.12 62.43 5.75 62.48 5.07 62.51 C 4.87 58.06 4.92 53.61 4.94 49.16 C 7.08 49.17 9.23 49.17 11.37 49.18 C 11.35 43.53 11.38 37.88 11.35 32.23 C 14.33 32.24 17.31 32.24 20.29 32.24 C 20.31 28.55 20.31 24.87 20.30 21.18 C 23.01 21.18 25.72 21.18 28.43 21.19 C 28.46 17.19 28.39 13.19 28.38 9.20 Z" />
<path fill="#2b2a2a" opacity="1.00" d=" M 40.76 32.29 C 43.99 32.23 47.22 32.23 50.45 32.26 C 50.45 37.92 50.43 43.59 50.46 49.25 C 52.60 49.27 54.73 49.29 56.86 49.30 C 56.90 53.71 56.91 58.13 56.85 62.54 C 56.16 62.56 54.79 62.62 54.10 62.64 C 53.96 59.24 54.00 55.83 53.99 52.42 C 53.24 52.18 51.74 51.70 50.99 51.46 C 50.15 57.95 50.57 64.49 50.37 71.00 C 50.07 58.12 50.34 45.25 50.30 32.37 C 47.12 32.36 43.94 32.34 40.76 32.29 Z" />
<path fill="#2b2a2a" opacity="1.00" d=" M 22.18 43.01 C 24.80 40.48 28.10 45.56 24.96 46.99 C 22.62 48.77 19.84 44.68 22.18 43.01 Z" />
<path fill="#2b2a2a" opacity="1.00" d=" M 35.93 43.16 C 38.18 41.01 42.02 44.43 39.61 46.68 C 37.40 49.08 34.04 45.59 35.93 43.16 Z" />
<path fill="#2b2a2a" opacity="1.00" d=" M 21.10 54.28 C 24.38 54.34 22.84 58.12 23.25 60.23 C 28.28 60.26 33.32 60.23 38.35 60.27 C 38.39 58.26 38.45 56.26 38.53 54.25 C 42.56 54.68 40.13 59.92 40.75 62.58 C 34.20 62.57 27.64 62.53 21.09 62.61 C 21.06 59.84 21.05 57.06 21.10 54.28 Z" />
<path fill="#2b2a2a" opacity="1.00" d=" M 21.76 71.04 C 22.43 71.03 23.77 71.02 24.44 71.01 C 24.50 76.52 24.46 82.02 24.48 87.53 C 23.76 87.50 22.33 87.44 21.61 87.40 C 21.68 81.95 21.37 76.48 21.76 71.04 Z" />
<path fill="#2b2a2a" opacity="1.00" d=" M 36.88 71.01 C 37.61 71.01 39.05 71.01 39.77 71.01 C 39.78 76.50 39.78 82.00 39.77 87.49 C 39.08 87.51 37.70 87.53 37.01 87.55 C 36.74 82.04 36.89 76.52 36.88 71.01 Z" />
</g>
<g id="#c4fd2dff">
<path fill="#c4fd2d" opacity="1.00" d=" M 29.19 10.14 C 32.30 8.31 36.20 10.17 39.66 9.66 L 40.20 10.42 L 40.67 11.40 C 37.48 12.00 34.22 11.73 31.00 11.74 C 31.01 14.90 31.01 18.06 30.95 21.23 C 34.22 21.23 37.49 21.22 40.76 21.24 C 40.78 24.92 40.78 28.61 40.76 32.29 C 34.00 32.22 27.23 32.21 20.46 32.30 C 20.44 28.63 20.44 24.95 20.44 21.28 C 23.18 21.28 25.91 21.28 28.65 21.29 C 28.83 17.60 27.84 13.66 29.19 10.14 Z" />
</g>
<g id="#fd8238ff">
<path fill="#fd8238" opacity="1.00" d=" M 20.46 32.30 C 27.23 32.21 34.00 32.22 40.76 32.29 C 43.94 32.34 47.12 32.36 50.30 32.37 C 50.34 45.25 50.07 58.12 50.37 71.00 C 46.84 71.00 43.31 71.00 39.77 71.01 C 39.05 71.01 37.61 71.01 36.88 71.01 C 32.73 71.00 28.59 70.99 24.44 71.01 C 23.77 71.02 22.43 71.03 21.76 71.04 C 18.27 71.02 14.78 70.96 11.29 71.05 L 11.48 70.61 C 11.59 70.35 11.81 69.84 11.92 69.58 C 11.07 57.19 11.65 44.77 11.49 32.36 C 14.48 32.35 17.47 32.34 20.46 32.30 M 22.18 43.01 C 19.84 44.68 22.62 48.77 24.96 46.99 C 28.10 45.56 24.80 40.48 22.18 43.01 M 35.93 43.16 C 34.04 45.59 37.40 49.08 39.61 46.68 C 42.02 44.43 38.18 41.01 35.93 43.16 M 21.10 54.28 C 21.05 57.06 21.06 59.84 21.09 62.61 C 27.64 62.53 34.20 62.57 40.75 62.58 C 40.13 59.92 42.56 54.68 38.53 54.25 C 38.45 56.26 38.39 58.26 38.35 60.27 C 33.32 60.23 28.28 60.26 23.25 60.23 C 22.84 58.12 24.38 54.34 21.10 54.28 Z" />
</g>
</svg>
