<?xml version="1.0" ?><svg height="5432.0px" viewBox="0 0 70.0 5432.0" width="70.0px" xmlns="http://www.w3.org/2000/svg" xmlns:xlink="http://www.w3.org/1999/xlink"><g transform="translate(20, 20)"><g transform="translate(-0.0, -0.0)">
<defs>
<g id="uid_0">
<path d=" M 29.85 -36.55 L 10.1 -26.7 16.25 -23.6 36.45 -33.45 32.75 -35.45 32.75 -34.95 29.85 -36.55 Z" fill="#23A0F3" stroke="none"/>
</g>
</defs>

<g transform="matrix( 1, 0, 0, 1, -10.1,36.55) ">
<g transform="matrix( 1, 0, 0, 1, 0,0) ">
<use xlink:href="#uid_0"/>
</g>
</g>
</g></g><g transform="translate(20, 184.0)"><g transform="translate(-0.0, -0.0)">
<defs>
<g id="uid_1">
<path d=" M 29.85 -36.55 L 10.1 -26.7 17.45 -23.05 37.6 -32.85 32.75 -35.45 32.75 -34.95 29.85 -36.55 Z" fill="#23A0F3" stroke="none"/>
</g>
</defs>

<g transform="matrix( 1, 0, 0, 1, -10.1,36.55) ">
<g transform="matrix( 1, 0, 0, 1, 0,0) ">
<use xlink:href="#uid_1"/>
</g>
</g>
</g></g><g transform="translate(20, 348.0)"><g transform="translate(-0.0, -0.0)">
<defs>
<g id="uid_2">
<path d=" M 29.85 -36.55 L 10.1 -26.7 18.6 -22.45 38.75 -32.25 32.75 -35.45 32.75 -34.95 29.85 -36.55 Z" fill="#23A0F3" stroke="none"/>
</g>
</defs>

<g transform="matrix( 1, 0, 0, 1, -10.1,36.55) ">
<g transform="matrix( 1, 0, 0, 1, 0,0) ">
<use xlink:href="#uid_2"/>
</g>
</g>
</g></g><g transform="translate(20, 512.0)"><g transform="translate(-0.0, -0.0)">
<defs>
<g id="uid_3">
<path d=" M 29.85 -36.55 L 10.1 -26.7 19.8 -21.85 39.85 -31.6 32.75 -35.45 32.75 -34.95 29.85 -36.55 Z" fill="#23A0F3" stroke="none"/>
</g>
</defs>

<g transform="matrix( 1, 0, 0, 1, -10.1,36.55) ">
<g transform="matrix( 1, 0, 0, 1, 0,0) ">
<use xlink:href="#uid_3"/>
</g>
</g>
</g></g><g transform="translate(20, 676.0)"><g transform="translate(-0.0, -0.0)">
<defs>
<g id="uid_4">
<path d=" M 38.75 -29.95 L 38.75 -30.3 21.1 -21.6 21.1 -21.4 38.75 -29.95 Z" fill="#1A76B5" stroke="none"/>

<path d=" M 38.75 -30.3 L 38.75 -29.95 40.2 -30.65 40.2 -31.45 32.75 -35.45 32.75 -34.95 29.85 -36.55 10.1 -26.7 20.7 -21.4 21.1 -21.6 38.75 -30.3 Z" fill="#23A0F3" stroke="none"/>
</g>
</defs>

<g transform="matrix( 1, 0, 0, 1, -10.1,36.55) ">
<g transform="matrix( 1, 0, 0, 1, 0,0) ">
<use xlink:href="#uid_4"/>
</g>
</g>
</g></g><g transform="translate(20, 840.0)"><g transform="translate(-0.0, -0.0)">
<defs>
<g id="uid_5">
<path d=" M 38.75 -27.5 L 38.75 -30.3 21.1 -21.6 21.1 -18.95 38.75 -27.5 Z" fill="#1A76B5" stroke="none"/>

<path d=" M 38.75 -30.3 L 38.75 -27.5 40.2 -28.2 40.2 -31.45 32.75 -35.45 32.75 -34.95 29.85 -36.55 10.1 -26.7 20.7 -21.4 21.1 -21.6 38.75 -30.3 Z" fill="#23A0F3" stroke="none"/>
</g>
</defs>

<g transform="matrix( 1, 0, 0, 1, -10.1,36.55) ">
<g transform="matrix( 1, 0, 0, 1, 0,0) ">
<use xlink:href="#uid_5"/>
</g>
</g>
</g></g><g transform="translate(20, 1004.0)"><g transform="translate(-0.0, -0.0)">
<defs>
<g id="uid_6">
<path d=" M 21.1 -21.6 L 21.15 -11.5 38.8 -20.1 38.75 -30.3 21.1 -21.6 Z" fill="#1A76B5" stroke="none"/>

<path d=" M 32.75 -34.95 L 29.85 -36.55 10.1 -26.7 20.7 -21.4 21.1 -21.6 38.75 -30.3 38.8 -20.1 40.2 -20.8 40.2 -31.45 32.75 -35.45 32.75 -34.95 Z" fill="#23A0F3" stroke="none"/>
</g>
</defs>

<g transform="matrix( 1, 0, 0, 1, -10.1,36.55) ">
<g transform="matrix( 1, 0, 0, 1, 0,0) ">
<use xlink:href="#uid_6"/>
</g>
</g>
</g></g><g transform="translate(20, 1168.0)"><g transform="translate(-0.0, -0.0)">
<defs>
<g id="uid_7">
<path d=" M 38.85 -4.7 L 38.75 -30.3 21.1 -21.6 21.2 3.85 38.85 -4.7 Z" fill="#1A76B5" stroke="none"/>

<path d=" M 32.75 -34.95 L 29.85 -36.55 10.1 -26.7 20.7 -21.4 21.1 -21.6 38.75 -30.3 38.85 -4.7 40.2 -5.35 40.2 -31.45 32.75 -35.45 32.75 -34.95 Z" fill="#23A0F3" stroke="none"/>
</g>
</defs>

<g transform="matrix( 1, 0, 0, 1, -10.1,36.55) ">
<g transform="matrix( 1, 0, 0, 1, 0,0) ">
<use xlink:href="#uid_7"/>
</g>
</g>
</g></g><g transform="translate(20, 1332.0)"><g transform="translate(-0.0, -0.0)">
<defs>
<g id="uid_8">
<path d=" M 38.75 -30.3 L 21.1 -21.6 21.3 19.3 38.95 10.7 38.75 -30.3 Z" fill="#1A76B5" stroke="none"/>

<path d=" M 21.1 -21.6 L 38.75 -30.3 38.95 10.7 40.2 10.1 40.2 -31.45 32.75 -35.45 32.75 -34.95 29.85 -36.55 10.1 -26.7 20.7 -21.4 21.1 -21.6 Z" fill="#23A0F3" stroke="none"/>
</g>
</defs>

<g transform="matrix( 1, 0, 0, 1, -10.1,36.55) ">
<g transform="matrix( 1, 0, 0, 1, 0,0) ">
<use xlink:href="#uid_8"/>
</g>
</g>
</g></g><g transform="translate(20, 1496.0)"><g transform="translate(-0.0, -0.0)">
<defs>
<g id="uid_9">
<path d=" M 38.75 -30.3 L 21.1 -21.6 21.35 34.7 39 26.1 38.75 -30.3 Z" fill="#1A76B5" stroke="none"/>

<path d=" M 21.1 -21.6 L 38.75 -30.3 39 26.1 40.2 25.55 40.2 -31.45 32.75 -35.45 32.75 -34.95 29.85 -36.55 10.1 -26.7 20.7 -21.4 21.1 -21.6 Z" fill="#23A0F3" stroke="none"/>
</g>
</defs>

<g transform="matrix( 1, 0, 0, 1, -10.1,36.55) ">
<g transform="matrix( 1, 0, 0, 1, 0,0) ">
<use xlink:href="#uid_9"/>
</g>
</g>
</g></g><g transform="translate(20, 1660.0)"><g transform="translate(-0.0, -0.0)">
<defs>
<g id="uid_10">
<path d=" M 38.75 -30.3 L 21.1 -21.6 21.4 50.05 39.05 41.5 39.05 34.25 38.75 -30.3 Z" fill="#1A76B5" stroke="none"/>

<path d=" M 21.1 -21.6 L 38.75 -30.3 39.05 34.25 40.2 33.75 40.2 -31.45 32.75 -35.45 32.75 -34.95 29.85 -36.55 10.1 -26.7 20.7 -21.4 21.1 -21.6 Z" fill="#23A0F3" stroke="none"/>
</g>
</defs>

<g transform="matrix( 1, 0, 0, 1, -10.1,36.55) ">
<g transform="matrix( 1, 0, 0, 1, 0,0) ">
<use xlink:href="#uid_10"/>
</g>
</g>
</g></g><g transform="translate(20, 1824.0)"><g transform="translate(-0.0, -0.0)">
<defs>
<g id="uid_11">
<path d=" M 38.75 -30.3 L 21.1 -21.6 21.5 65.45 39.15 56.85 39.05 34.25 38.75 -30.3 Z" fill="#1A76B5" stroke="none"/>

<path d=" M 21.1 -21.6 L 38.75 -30.3 39.05 34.25 40.2 33.75 40.2 -31.45 32.75 -35.45 32.75 -34.95 29.85 -36.55 10.1 -26.7 20.7 -21.4 21.1 -21.6 Z" fill="#23A0F3" stroke="none"/>
</g>
</defs>

<g transform="matrix( 1, 0, 0, 1, -10.1,36.55) ">
<g transform="matrix( 1, 0, 0, 1, 0,0) ">
<use xlink:href="#uid_11"/>
</g>
</g>
</g></g><g transform="translate(20, 1988.0)"><g transform="translate(-0.0, -0.0)">
<defs>
<g id="uid_12">
<path d=" M 38.75 -30.3 L 21.1 -21.6 21.55 80.9 39.2 72.3 39.05 34.25 38.75 -30.3 Z" fill="#1A76B5" stroke="none"/>

<path d=" M 21.1 -21.6 L 38.75 -30.3 39.05 34.25 40.2 33.75 40.2 -31.45 32.75 -35.45 32.75 -34.95 29.85 -36.55 10.1 -26.7 20.7 -21.4 21.1 -21.6 Z" fill="#23A0F3" stroke="none"/>
</g>
</defs>

<g transform="matrix( 1, 0, 0, 1, -10.1,36.55) ">
<g transform="matrix( 1, 0, 0, 1, 0,0) ">
<use xlink:href="#uid_12"/>
</g>
</g>
</g></g><g transform="translate(20, 2152.0)"><g transform="translate(-0.0, -0.0)">
<defs>
<g id="uid_13">
<path d=" M 38.75 -30.3 L 21.1 -21.6 21.6 96.25 26.05 94.1 26.05 91.55 22.05 93.55 22.05 79.2 26.05 77.25 26.05 68.15 30.25 66.1 30.25 68.1 34.9 65.85 34.9 68.4 38.7 66.5 38.65 83.1 34.9 84.95 34.9 86.8 30.25 89.1 30.25 92.05 39.25 87.7 39.05 34.25 38.75 -30.3 Z" fill="#1A76B5" stroke="none"/>

<path d=" M 21.1 -21.6 L 38.75 -30.3 39.05 34.25 40.2 33.75 40.2 -31.45 32.75 -35.45 32.75 -34.95 29.85 -36.55 10.1 -26.7 20.7 -21.4 21.1 -21.6 Z" fill="#23A0F3" stroke="none"/>
</g>

<g id="uid_14">
<path d=" M 30.5 60.45 L 26.1 62.55 26.1 73.6 30.5 71.5 30.5 60.45 Z" fill="#1A76B5" stroke="none"/>
</g>

<g id="uid_15">
<path d=" M 34.5 80.5 L 30.1 82.6 30.1 93.65 34.5 91.55 34.5 80.5 Z" fill="#1A76B5" stroke="none"/>
</g>

<g id="uid_16">
<path d=" M 31 84.5 L 26.6 86.6 26.6 97.65 31 95.55 31 84.5 Z" fill="#1A76B5" stroke="none"/>
</g>

<g id="uid_17">
<path d=" M 39 70.5 L 34.6 72.6 34.6 79.9 39 77.8 39 70.5 Z" fill="#1A76B5" stroke="none"/>
</g>

<g id="uid_18">
<path d=" M 26 79.5 L 21.6 81.6 21.6 88.9 26 86.8 26 79.5 Z" fill="#1A76B5" stroke="none"/>
</g>
</defs>

<g transform="matrix( 1, 0, 0, 1, -10.1,36.55) ">
<g transform="matrix( 1, 0, 0, 1, 0,0) ">
<use xlink:href="#uid_13"/>
</g>

<g transform="matrix( 1, 0, 0, 1, 0,0) ">
<use xlink:href="#uid_14"/>
</g>

<g transform="matrix( 1, 0, 0, 1, 0,0) ">
<use xlink:href="#uid_15"/>
</g>

<g transform="matrix( 1, 0, 0, 1, 0,0) ">
<use xlink:href="#uid_16"/>
</g>

<g transform="matrix( 1, 0, 0, 1, 0,0) ">
<use xlink:href="#uid_17"/>
</g>

<g transform="matrix( 1, 0, 0, 1, 0,0) ">
<use xlink:href="#uid_18"/>
</g>
</g>
</g></g><g transform="translate(20, 2316.0)"><g transform="translate(-0.0, -0.0)">
<defs>
<g id="uid_19">
<path d=" M 30.25 92.1 L 34.45 90.05 34.45 89.7 30.25 91.75 30.25 92.1 M 38.75 -30.3 L 21.1 -21.6 21.6 96.25 22.05 96.05 22.05 82.7 26.05 80.75 26.05 72.65 30.25 70.6 30.25 70.75 34.9 68.5 34.9 73.85 38.7 71.95 38.65 88 39.25 87.7 39.05 34.25 38.75 -30.3 Z" fill="#1A76B5" stroke="none"/>

<path d=" M 21.1 -21.6 L 38.75 -30.3 39.05 34.25 40.2 33.75 40.2 -31.45 32.75 -35.45 32.75 -34.95 29.85 -36.55 10.1 -26.7 20.7 -21.4 21.1 -21.6 Z" fill="#23A0F3" stroke="none"/>
</g>

<g id="uid_20">
<path d=" M 30.5 64.95 L 26.1 67.05 26.1 78.1 30.5 76 30.5 64.95 Z" fill="#1A76B5" stroke="none"/>
</g>

<g id="uid_21">
<path d=" M 34.5 84.9 L 30.1 87 30.1 96.4 34.5 94.3 34.5 84.9 Z" fill="#1A76B5" stroke="none"/>
</g>

<g id="uid_22">
<path d=" M 30.9 86.7 L 26.5 88.8 26.5 98.45 30.9 96.35 30.9 86.7 Z" fill="#1A76B5" stroke="none"/>
</g>

<g id="uid_23">
<path d=" M 39 70.5 L 34.6 72.6 34.6 83.65 39 81.55 39 70.5 Z" fill="#1A76B5" stroke="none"/>
</g>

<g id="uid_24">
<path d=" M 26 81.45 L 21.6 83.55 21.6 91.85 26 89.75 26 81.45 Z" fill="#1A76B5" stroke="none"/>
</g>
</defs>

<g transform="matrix( 1, 0, 0, 1, -10.1,36.55) ">
<g transform="matrix( 1, 0, 0, 1, 0,0) ">
<use xlink:href="#uid_19"/>
</g>

<g transform="matrix( 1, 0, 0, 1, 0,0) ">
<use xlink:href="#uid_20"/>
</g>

<g transform="matrix( 1, 0, 0, 1, 0,0) ">
<use xlink:href="#uid_21"/>
</g>

<g transform="matrix( 1, 0, 0, 1, 0,0) ">
<use xlink:href="#uid_22"/>
</g>

<g transform="matrix( 1, 0, 0, 1, 0,0) ">
<use xlink:href="#uid_23"/>
</g>

<g transform="matrix( 1, 0, 0, 1, 0,0) ">
<use xlink:href="#uid_24"/>
</g>
</g>
</g></g><g transform="translate(20, 2480.0)"><g transform="translate(-0.0, -0.0)">
<defs>
<g id="uid_25">
<path d=" M 38.75 -30.3 L 21.1 -21.6 21.6 96.25 22.05 96.05 22.05 86.2 26.05 84.25 26.05 77.15 30.25 75.1 30.25 73.35 34.9 71.1 34.9 79.3 38.7 77.4 38.7 87.95 39.25 87.7 39.05 34.25 38.75 -30.3 Z" fill="#1A76B5" stroke="none"/>

<path d=" M 21.1 -21.6 L 38.75 -30.3 39.05 34.25 40.2 33.75 40.2 -31.45 32.75 -35.45 32.75 -34.95 29.85 -36.55 10.1 -26.7 20.7 -21.4 21.1 -21.6 Z" fill="#23A0F3" stroke="none"/>
</g>

<g id="uid_26">
<path d=" M 30.5 69.5 L 26.1 71.6 26.1 82.65 30.5 80.55 30.5 69.5 Z" fill="#1A76B5" stroke="none"/>
</g>

<g id="uid_27">
<path d=" M 34.5 89.25 L 30.1 91.35 30.1 99.15 34.5 97.05 34.5 89.25 Z" fill="#1A76B5" stroke="none"/>
</g>

<g id="uid_28">
<path d=" M 30.8 88.9 L 26.4 91 26.4 99.25 30.8 97.15 30.8 88.9 Z" fill="#1A76B5" stroke="none"/>
</g>

<g id="uid_29">
<path d=" M 39 70.5 L 34.6 72.6 34.6 87.4 39 85.3 39 70.5 Z" fill="#1A76B5" stroke="none"/>
</g>

<g id="uid_30">
<path d=" M 26 83.4 L 21.6 85.5 21.6 94.8 26 92.7 26 83.4 Z" fill="#1A76B5" stroke="none"/>
</g>
</defs>

<g transform="matrix( 1, 0, 0, 1, -10.1,36.55) ">
<g transform="matrix( 1, 0, 0, 1, 0,0) ">
<use xlink:href="#uid_25"/>
</g>

<g transform="matrix( 1, 0, 0, 1, 0,0) ">
<use xlink:href="#uid_26"/>
</g>

<g transform="matrix( 1, 0, 0, 1, 0,0) ">
<use xlink:href="#uid_27"/>
</g>

<g transform="matrix( 1, 0, 0, 1, 0,0) ">
<use xlink:href="#uid_28"/>
</g>

<g transform="matrix( 1, 0, 0, 1, 0,0) ">
<use xlink:href="#uid_29"/>
</g>

<g transform="matrix( 1, 0, 0, 1, 0,0) ">
<use xlink:href="#uid_30"/>
</g>
</g>
</g></g><g transform="translate(20, 2644.0)"><g transform="translate(-0.0, -0.0)">
<defs>
<g id="uid_31">
<path d=" M 38.75 -30.3 L 21.1 -21.6 21.6 96.25 22.05 96.05 22.05 89.7 26.05 87.75 26.05 81.65 30.25 79.6 30.25 76 34.9 73.75 34.9 84.75 38.7 82.85 38.7 87.95 39.25 87.7 39.05 34.25 38.75 -30.3 Z" fill="#1A76B5" stroke="none"/>

<path d=" M 21.1 -21.6 L 38.75 -30.3 39.05 34.25 40.2 33.75 40.2 -31.45 32.75 -35.45 32.75 -34.95 29.85 -36.55 10.1 -26.7 20.7 -21.4 21.1 -21.6 Z" fill="#23A0F3" stroke="none"/>
</g>

<g id="uid_32">
<path d=" M 30.5 74 L 26.1 76.1 26.1 87.15 30.5 85.05 30.5 74 Z" fill="#1A76B5" stroke="none"/>
</g>

<g id="uid_33">
<path d=" M 34.5 93.65 L 30.1 95.75 30.1 101.9 34.5 99.8 34.5 93.65 Z" fill="#1A76B5" stroke="none"/>
</g>

<g id="uid_34">
<path d=" M 30.7 91.1 L 26.3 93.2 26.3 100.05 30.7 97.95 30.7 91.1 Z" fill="#1A76B5" stroke="none"/>
</g>

<g id="uid_35">
<path d=" M 39 70.5 L 34.6 72.6 34.6 91.15 39 89.05 39 70.5 Z" fill="#1A76B5" stroke="none"/>
</g>

<g id="uid_36">
<path d=" M 26 85.3 L 21.6 87.4 21.6 97.7 26 95.6 26 85.3 Z" fill="#1A76B5" stroke="none"/>
</g>
</defs>

<g transform="matrix( 1, 0, 0, 1, -10.1,36.55) ">
<g transform="matrix( 1, 0, 0, 1, 0,0) ">
<use xlink:href="#uid_31"/>
</g>

<g transform="matrix( 1, 0, 0, 1, 0,0) ">
<use xlink:href="#uid_32"/>
</g>

<g transform="matrix( 1, 0, 0, 1, 0,0) ">
<use xlink:href="#uid_33"/>
</g>

<g transform="matrix( 1, 0, 0, 1, 0,0) ">
<use xlink:href="#uid_34"/>
</g>

<g transform="matrix( 1, 0, 0, 1, 0,0) ">
<use xlink:href="#uid_35"/>
</g>

<g transform="matrix( 1, 0, 0, 1, 0,0) ">
<use xlink:href="#uid_36"/>
</g>
</g>
</g></g><g transform="translate(20, 2808.0)"><g transform="translate(-0.0, -0.0)">
<defs>
<g id="uid_37">
<path d=" M 38.75 -30.3 L 21.1 -21.6 21.6 96.25 22.05 96.05 22.05 90.95 26.05 89 26.05 83.4 30.25 81.35 30.25 80.4 34.9 78.15 34.9 85.35 38.7 83.45 38.7 87.95 39.25 87.7 39.05 34.25 38.75 -30.3 Z" fill="#1A76B5" stroke="none"/>

<path d=" M 21.1 -21.6 L 38.75 -30.3 39.05 34.25 40.2 33.75 40.2 -31.45 32.75 -35.45 32.75 -34.95 29.85 -36.55 10.1 -26.7 20.7 -21.4 21.1 -21.6 Z" fill="#23A0F3" stroke="none"/>
</g>

<g id="uid_38">
<path d=" M 30.5 77.25 L 26.1 79.35 26.1 90.4 30.5 88.3 30.5 77.25 Z" fill="#1A76B5" stroke="none"/>
</g>

<g id="uid_39">
<path d=" M 30.1 100.1 L 30.1 104.65 34.5 102.55 34.5 98 30.1 100.1 Z" fill="#1A76B5" stroke="none"/>
</g>

<g id="uid_40">
<path d=" M 30.6 93.3 L 26.2 95.4 26.2 100.85 30.6 98.75 30.6 93.3 Z" fill="#1A76B5" stroke="none"/>
</g>

<g id="uid_41">
<path d=" M 39 74.85 L 34.6 76.95 34.6 92 39 89.9 39 74.85 Z" fill="#1A76B5" stroke="none"/>
</g>

<g id="uid_42">
<path d=" M 26 87.25 L 21.6 89.35 21.6 100.65 26 98.55 26 87.25 Z" fill="#1A76B5" stroke="none"/>
</g>
</defs>

<g transform="matrix( 1, 0, 0, 1, -10.1,36.55) ">
<g transform="matrix( 1, 0, 0, 1, 0,0) ">
<use xlink:href="#uid_37"/>
</g>

<g transform="matrix( 1, 0, 0, 1, 0,0) ">
<use xlink:href="#uid_38"/>
</g>

<g transform="matrix( 1, 0, 0, 1, 0,0) ">
<use xlink:href="#uid_39"/>
</g>

<g transform="matrix( 1, 0, 0, 1, 0,0) ">
<use xlink:href="#uid_40"/>
</g>

<g transform="matrix( 1, 0, 0, 1, 0,0) ">
<use xlink:href="#uid_41"/>
</g>

<g transform="matrix( 1, 0, 0, 1, 0,0) ">
<use xlink:href="#uid_42"/>
</g>
</g>
</g></g><g transform="translate(20, 2972.0)"><g transform="translate(-0.0, -0.0)">
<defs>
<g id="uid_43">
<path d=" M 38.75 -30.3 L 21.1 -21.6 21.6 96.25 22.05 96.05 22.05 92.2 26.05 90.25 26.05 85.15 30.25 83.1 30.25 84.85 34.9 82.6 34.9 85.9 38.7 84 38.7 87.95 39.25 87.7 39.05 34.25 38.75 -30.3 M 30.25 73.1 L 30.25 71.05 26.25 73 26.25 74.2 22.05 76.3 22.05 71.45 26.05 69.5 26.05 66.4 30.25 64.35 30.25 66.35 34.5 64.3 34.5 62.5 38.7 60.4 38.65 65.6 34.9 67.45 34.9 70.8 30.25 73.1 Z" fill="#1A76B5" stroke="none"/>

<path d=" M 21.1 -21.6 L 38.75 -30.3 39.05 34.25 40.2 33.75 40.2 -31.45 32.75 -35.45 32.75 -34.95 29.85 -36.55 10.1 -26.7 20.7 -21.4 21.1 -21.6 Z" fill="#23A0F3" stroke="none"/>
</g>

<g id="uid_44">
<path d=" M 30.5 80.5 L 26.1 82.6 26.1 93.65 30.5 91.55 30.5 80.5 Z" fill="#1A76B5" stroke="none"/>
</g>

<g id="uid_45">
<path d=" M 30.5 95.5 L 26.1 97.6 26.1 101.65 30.5 99.55 30.5 95.5 Z" fill="#1A76B5" stroke="none"/>
</g>

<g id="uid_46">
<path d=" M 39 79.15 L 34.6 81.25 34.6 92.8 39 90.7 39 79.15 Z" fill="#1A76B5" stroke="none"/>
</g>

<g id="uid_47">
<path d=" M 26 90.95 L 21.6 93.05 21.6 102.45 26 100.35 26 90.95 Z" fill="#1A76B5" stroke="none"/>
</g>
</defs>

<g transform="matrix( 1, 0, 0, 1, -10.1,36.55) ">
<g transform="matrix( 1, 0, 0, 1, 0,0) ">
<use xlink:href="#uid_43"/>
</g>

<g transform="matrix( 1, 0, 0, 1, 0,0) ">
<use xlink:href="#uid_44"/>
</g>

<g transform="matrix( 1, 0, 0, 1, 0,0) ">
<use xlink:href="#uid_45"/>
</g>

<g transform="matrix( 1, 0, 0, 1, 0,0) ">
<use xlink:href="#uid_46"/>
</g>

<g transform="matrix( 1, 0, 0, 1, 0,0) ">
<use xlink:href="#uid_47"/>
</g>
</g>
</g></g><g transform="translate(20, 3136.0)"><g transform="translate(-0.0, -0.0)">
<defs>
<g id="uid_48">
<path d=" M 38.75 -30.3 L 21.1 -21.6 21.6 96.25 22.05 96.05 22.05 93.45 26.05 91.5 26.05 86.9 30.25 84.85 30.25 89.25 34.5 87.2 34.5 86.7 38.7 84.6 38.7 87.95 39.25 87.7 39.05 34.25 38.75 -30.3 M 22.05 73 L 26.05 71.05 26.05 66.75 30.25 64.7 30.25 66.7 34.5 64.65 34.5 63.75 38.7 61.65 38.65 69.1 34.9 70.95 34.9 74 30.25 76.3 30.25 75.4 26.25 77.35 26.25 77.65 22.05 79.75 22.05 73 Z" fill="#1A76B5" stroke="none"/>

<path d=" M 21.1 -21.6 L 38.75 -30.3 39.05 34.25 40.2 33.75 40.2 -31.45 32.75 -35.45 32.75 -34.95 29.85 -36.55 10.1 -26.7 20.7 -21.4 21.1 -21.6 Z" fill="#23A0F3" stroke="none"/>
</g>

<g id="uid_49">
<path d=" M 30.5 83.75 L 26.1 85.85 26.1 96.9 30.5 94.8 30.5 83.75 Z" fill="#1A76B5" stroke="none"/>
</g>

<g id="uid_50">
<path d=" M 39 83.5 L 34.6 85.6 34.6 93.65 39 91.55 39 83.5 Z" fill="#1A76B5" stroke="none"/>
</g>

<g id="uid_51">
<path d=" M 26 94.65 L 21.6 96.75 21.6 104.3 26 102.2 26 94.65 Z" fill="#1A76B5" stroke="none"/>
</g>
</defs>

<g transform="matrix( 1, 0, 0, 1, -10.1,36.55) ">
<g transform="matrix( 1, 0, 0, 1, 0,0) ">
<use xlink:href="#uid_48"/>
</g>

<g transform="matrix( 1, 0, 0, 1, 0,0) ">
<use xlink:href="#uid_49"/>
</g>

<g transform="matrix( 1, 0, 0, 1, 0,0) ">
<use xlink:href="#uid_50"/>
</g>

<g transform="matrix( 1, 0, 0, 1, 0,0) ">
<use xlink:href="#uid_51"/>
</g>
</g>
</g></g><g transform="translate(20, 3300.0)"><g transform="translate(-0.0, -0.0)">
<defs>
<g id="uid_52">
<path d=" M 38.75 -30.3 L 21.1 -21.6 21.6 96.25 22.05 96.05 22.05 95.3 26.05 93.35 26.05 88 30.25 85.95 30.25 91.1 34.5 89.05 34.5 88.55 38.7 86.45 38.7 87.95 39.25 87.7 39.05 34.25 38.75 -30.3 M 34.5 65 L 34.5 64.95 38.7 62.85 38.65 72.6 34.9 74.45 34.9 77.2 30.25 79.5 30.25 79.75 26.05 81.8 26.05 81.2 22.05 83.2 22.05 74.55 26.05 72.6 26.05 67.1 30.25 65.05 30.25 67.05 34.5 65 Z" fill="#1A76B5" stroke="none"/>

<path d=" M 21.1 -21.6 L 38.75 -30.3 39.05 34.25 40.2 33.75 40.2 -31.45 32.75 -35.45 32.75 -34.95 29.85 -36.55 10.1 -26.7 20.7 -21.4 21.1 -21.6 Z" fill="#23A0F3" stroke="none"/>
</g>

<g id="uid_53">
<path d=" M 30.5 87.4 L 26.1 89.5 26.1 99.55 30.5 97.45 30.5 87.4 Z" fill="#1A76B5" stroke="none"/>
</g>

<g id="uid_54">
<path d=" M 39 85.9 L 34.6 88 34.6 94.9 39 92.8 39 85.9 Z" fill="#1A76B5" stroke="none"/>
</g>

<g id="uid_55">
<path d=" M 21.6 106.1 L 26 104 26 98.3 21.6 100.4 21.6 106.1 Z" fill="#1A76B5" stroke="none"/>
</g>
</defs>

<g transform="matrix( 1, 0, 0, 1, -10.1,36.55) ">
<g transform="matrix( 1, 0, 0, 1, 0,0) ">
<use xlink:href="#uid_52"/>
</g>

<g transform="matrix( 1, 0, 0, 1, 0,0) ">
<use xlink:href="#uid_53"/>
</g>

<g transform="matrix( 1, 0, 0, 1, 0,0) ">
<use xlink:href="#uid_54"/>
</g>

<g transform="matrix( 1, 0, 0, 1, 0,0) ">
<use xlink:href="#uid_55"/>
</g>
</g>
</g></g><g transform="translate(20, 3464.0)"><g transform="translate(-0.0, -0.0)">
<defs>
<g id="uid_56">
<path d=" M 38.75 -30.3 L 21.1 -21.6 21.6 96.25 26.05 94.1 26.05 89.05 30.25 87 30.25 92.05 39.25 87.7 39.05 34.25 38.75 -30.3 M 34.9 66 L 38.7 64.1 38.65 76.1 34.9 77.95 34.9 80.4 30.25 82.7 30.25 84.05 26.05 86.1 26.05 84.65 22.05 86.65 22.05 76.1 26.05 74.15 26.05 67.45 30.25 65.4 30.25 67.4 34.9 65.15 34.9 66 Z" fill="#1A76B5" stroke="none"/>

<path d=" M 21.1 -21.6 L 38.75 -30.3 39.05 34.25 40.2 33.75 40.2 -31.45 32.75 -35.45 32.75 -34.95 29.85 -36.55 10.1 -26.7 20.7 -21.4 21.1 -21.6 Z" fill="#23A0F3" stroke="none"/>
</g>

<g id="uid_57">
<path d=" M 30.5 91.1 L 26.1 93.2 26.1 102.25 30.5 100.15 30.5 91.1 Z" fill="#1A76B5" stroke="none"/>
</g>

<g id="uid_58">
<path d=" M 39 88.35 L 34.6 90.45 34.6 96.15 39 94.05 39 88.35 Z" fill="#1A76B5" stroke="none"/>
</g>

<g id="uid_59">
<path d=" M 21.6 104.1 L 21.6 107.9 26 105.8 26 102 21.6 104.1 Z" fill="#1A76B5" stroke="none"/>
</g>
</defs>

<g transform="matrix( 1, 0, 0, 1, -10.1,36.55) ">
<g transform="matrix( 1, 0, 0, 1, 0,0) ">
<use xlink:href="#uid_56"/>
</g>

<g transform="matrix( 1, 0, 0, 1, 0,0) ">
<use xlink:href="#uid_57"/>
</g>

<g transform="matrix( 1, 0, 0, 1, 0,0) ">
<use xlink:href="#uid_58"/>
</g>

<g transform="matrix( 1, 0, 0, 1, 0,0) ">
<use xlink:href="#uid_59"/>
</g>
</g>
</g></g><g transform="translate(20, 3628.0)"><g transform="translate(-0.0, -0.0)">
<defs>
<g id="uid_60">
<path d=" M 38.75 -30.3 L 21.1 -21.6 21.6 96.25 26.05 94.1 26.05 88.1 22.05 90.1 22.05 77.65 26.05 75.7 26.05 67.8 30.25 65.75 30.25 67.75 34.9 65.5 34.9 67.2 38.7 65.3 38.65 79.6 34.9 81.45 34.9 83.6 30.25 85.9 30.25 92.05 39.25 87.7 39.05 34.25 38.75 -30.3 Z" fill="#1A76B5" stroke="none"/>

<path d=" M 21.1 -21.6 L 38.75 -30.3 39.05 34.25 40.2 33.75 40.2 -31.45 32.75 -35.45 32.75 -34.95 29.85 -36.55 10.1 -26.7 20.7 -21.4 21.1 -21.6 Z" fill="#23A0F3" stroke="none"/>
</g>

<g id="uid_61">
<path d=" M 30.5 94.75 L 26.1 96.85 26.1 104.9 30.5 102.8 30.5 94.75 Z" fill="#1A76B5" stroke="none"/>
</g>

<g id="uid_62">
<path d=" M 34.6 92.85 L 34.6 97.4 39 95.3 39 90.75 34.6 92.85 Z" fill="#1A76B5" stroke="none"/>
</g>
</defs>

<g transform="matrix( 1, 0, 0, 1, -10.1,36.55) ">
<g transform="matrix( 1, 0, 0, 1, 0,0) ">
<use xlink:href="#uid_60"/>
</g>

<g transform="matrix( 1, 0, 0, 1, 0,0) ">
<use xlink:href="#uid_61"/>
</g>

<g transform="matrix( 1, 0, 0, 1, 0,0) ">
<use xlink:href="#uid_62"/>
</g>
</g>
</g></g><g transform="translate(20, 3792.0)"><g transform="translate(-0.0, -0.0)">
<defs>
<g id="uid_63">
<path d=" M 38.75 -30.3 L 21.1 -21.6 21.6 96.25 26.05 94.1 26.05 91.55 22.05 93.55 22.05 79.2 26.05 77.25 26.05 68.15 30.25 66.1 30.25 68.1 34.9 65.85 34.9 68.4 38.7 66.5 38.65 83.1 34.9 84.95 34.9 86.8 30.25 89.1 30.25 92.05 39.25 87.7 39.05 34.25 38.75 -30.3 Z" fill="#1A76B5" stroke="none"/>

<path d=" M 21.1 -21.6 L 38.75 -30.3 39.05 34.25 40.2 33.75 40.2 -31.45 32.75 -35.45 32.75 -34.95 29.85 -36.55 10.1 -26.7 20.7 -21.4 21.1 -21.6 Z" fill="#23A0F3" stroke="none"/>
</g>

<g id="uid_64">
<path d=" M 30.5 60.45 L 26.1 62.55 26.1 73.6 30.5 71.5 30.5 60.45 Z" fill="#1A76B5" stroke="none"/>
</g>

<g id="uid_65">
<path d=" M 34.5 80.5 L 30.1 82.6 30.1 93.65 34.5 91.55 34.5 80.5 Z" fill="#1A76B5" stroke="none"/>
</g>

<g id="uid_66">
<path d=" M 31 84.5 L 26.6 86.6 26.6 97.65 31 95.55 31 84.5 Z" fill="#1A76B5" stroke="none"/>
</g>

<g id="uid_67">
<path d=" M 39 70.5 L 34.6 72.6 34.6 79.9 39 77.8 39 70.5 Z" fill="#1A76B5" stroke="none"/>
</g>

<g id="uid_68">
<path d=" M 26 79.5 L 21.6 81.6 21.6 88.9 26 86.8 26 79.5 Z" fill="#1A76B5" stroke="none"/>
</g>
</defs>

<g transform="matrix( 1, 0, 0, 1, -10.1,36.55) ">
<g transform="matrix( 1, 0, 0, 1, 0,0) ">
<use xlink:href="#uid_63"/>
</g>

<g transform="matrix( 1, 0, 0, 1, 0,0) ">
<use xlink:href="#uid_64"/>
</g>

<g transform="matrix( 1, 0, 0, 1, 0,0) ">
<use xlink:href="#uid_65"/>
</g>

<g transform="matrix( 1, 0, 0, 1, 0,0) ">
<use xlink:href="#uid_66"/>
</g>

<g transform="matrix( 1, 0, 0, 1, 0,0) ">
<use xlink:href="#uid_67"/>
</g>

<g transform="matrix( 1, 0, 0, 1, 0,0) ">
<use xlink:href="#uid_68"/>
</g>
</g>
</g></g><g transform="translate(20, 3956.0)"><g transform="translate(-0.0, -0.0)">
<defs>
<g id="uid_69">
<path d=" M 30.25 92.1 L 34.45 90.05 34.45 89.7 30.25 91.75 30.25 92.1 M 38.75 -30.3 L 21.1 -21.6 21.6 96.25 22.05 96.05 22.05 82.7 26.05 80.75 26.05 72.65 30.25 70.6 30.25 70.75 34.9 68.5 34.9 73.85 38.7 71.95 38.65 88 39.25 87.7 39.05 34.25 38.75 -30.3 Z" fill="#1A76B5" stroke="none"/>

<path d=" M 21.1 -21.6 L 38.75 -30.3 39.05 34.25 40.2 33.75 40.2 -31.45 32.75 -35.45 32.75 -34.95 29.85 -36.55 10.1 -26.7 20.7 -21.4 21.1 -21.6 Z" fill="#23A0F3" stroke="none"/>
</g>

<g id="uid_70">
<path d=" M 30.5 64.95 L 26.1 67.05 26.1 78.1 30.5 76 30.5 64.95 Z" fill="#1A76B5" stroke="none"/>
</g>

<g id="uid_71">
<path d=" M 34.5 84.9 L 30.1 87 30.1 96.4 34.5 94.3 34.5 84.9 Z" fill="#1A76B5" stroke="none"/>
</g>

<g id="uid_72">
<path d=" M 30.9 86.7 L 26.5 88.8 26.5 98.45 30.9 96.35 30.9 86.7 Z" fill="#1A76B5" stroke="none"/>
</g>

<g id="uid_73">
<path d=" M 39 70.5 L 34.6 72.6 34.6 83.65 39 81.55 39 70.5 Z" fill="#1A76B5" stroke="none"/>
</g>

<g id="uid_74">
<path d=" M 26 81.45 L 21.6 83.55 21.6 91.85 26 89.75 26 81.45 Z" fill="#1A76B5" stroke="none"/>
</g>
</defs>

<g transform="matrix( 1, 0, 0, 1, -10.1,36.55) ">
<g transform="matrix( 1, 0, 0, 1, 0,0) ">
<use xlink:href="#uid_69"/>
</g>

<g transform="matrix( 1, 0, 0, 1, 0,0) ">
<use xlink:href="#uid_70"/>
</g>

<g transform="matrix( 1, 0, 0, 1, 0,0) ">
<use xlink:href="#uid_71"/>
</g>

<g transform="matrix( 1, 0, 0, 1, 0,0) ">
<use xlink:href="#uid_72"/>
</g>

<g transform="matrix( 1, 0, 0, 1, 0,0) ">
<use xlink:href="#uid_73"/>
</g>

<g transform="matrix( 1, 0, 0, 1, 0,0) ">
<use xlink:href="#uid_74"/>
</g>
</g>
</g></g><g transform="translate(20, 4120.0)"><g transform="translate(-0.0, -0.0)">
<defs>
<g id="uid_75">
<path d=" M 38.75 -30.3 L 21.1 -21.6 21.6 96.25 22.05 96.05 22.05 86.2 26.05 84.25 26.05 77.15 30.25 75.1 30.25 73.35 34.9 71.1 34.9 79.3 38.7 77.4 38.7 87.95 39.25 87.7 39.05 34.25 38.75 -30.3 Z" fill="#1A76B5" stroke="none"/>

<path d=" M 21.1 -21.6 L 38.75 -30.3 39.05 34.25 40.2 33.75 40.2 -31.45 32.75 -35.45 32.75 -34.95 29.85 -36.55 10.1 -26.7 20.7 -21.4 21.1 -21.6 Z" fill="#23A0F3" stroke="none"/>
</g>

<g id="uid_76">
<path d=" M 30.5 69.5 L 26.1 71.6 26.1 82.65 30.5 80.55 30.5 69.5 Z" fill="#1A76B5" stroke="none"/>
</g>

<g id="uid_77">
<path d=" M 34.5 89.25 L 30.1 91.35 30.1 99.15 34.5 97.05 34.5 89.25 Z" fill="#1A76B5" stroke="none"/>
</g>

<g id="uid_78">
<path d=" M 30.8 88.9 L 26.4 91 26.4 99.25 30.8 97.15 30.8 88.9 Z" fill="#1A76B5" stroke="none"/>
</g>

<g id="uid_79">
<path d=" M 39 70.5 L 34.6 72.6 34.6 87.4 39 85.3 39 70.5 Z" fill="#1A76B5" stroke="none"/>
</g>

<g id="uid_80">
<path d=" M 26 83.4 L 21.6 85.5 21.6 94.8 26 92.7 26 83.4 Z" fill="#1A76B5" stroke="none"/>
</g>
</defs>

<g transform="matrix( 1, 0, 0, 1, -10.1,36.55) ">
<g transform="matrix( 1, 0, 0, 1, 0,0) ">
<use xlink:href="#uid_75"/>
</g>

<g transform="matrix( 1, 0, 0, 1, 0,0) ">
<use xlink:href="#uid_76"/>
</g>

<g transform="matrix( 1, 0, 0, 1, 0,0) ">
<use xlink:href="#uid_77"/>
</g>

<g transform="matrix( 1, 0, 0, 1, 0,0) ">
<use xlink:href="#uid_78"/>
</g>

<g transform="matrix( 1, 0, 0, 1, 0,0) ">
<use xlink:href="#uid_79"/>
</g>

<g transform="matrix( 1, 0, 0, 1, 0,0) ">
<use xlink:href="#uid_80"/>
</g>
</g>
</g></g><g transform="translate(20, 4284.0)"><g transform="translate(-0.0, -0.0)">
<defs>
<g id="uid_81">
<path d=" M 38.75 -30.3 L 21.1 -21.6 21.6 96.25 22.05 96.05 22.05 89.7 26.05 87.75 26.05 81.65 30.25 79.6 30.25 76 34.9 73.75 34.9 84.75 38.7 82.85 38.7 87.95 39.25 87.7 39.05 34.25 38.75 -30.3 Z" fill="#1A76B5" stroke="none"/>

<path d=" M 21.1 -21.6 L 38.75 -30.3 39.05 34.25 40.2 33.75 40.2 -31.45 32.75 -35.45 32.75 -34.95 29.85 -36.55 10.1 -26.7 20.7 -21.4 21.1 -21.6 Z" fill="#23A0F3" stroke="none"/>
</g>

<g id="uid_82">
<path d=" M 30.5 74 L 26.1 76.1 26.1 87.15 30.5 85.05 30.5 74 Z" fill="#1A76B5" stroke="none"/>
</g>

<g id="uid_83">
<path d=" M 34.5 93.65 L 30.1 95.75 30.1 101.9 34.5 99.8 34.5 93.65 Z" fill="#1A76B5" stroke="none"/>
</g>

<g id="uid_84">
<path d=" M 30.7 91.1 L 26.3 93.2 26.3 100.05 30.7 97.95 30.7 91.1 Z" fill="#1A76B5" stroke="none"/>
</g>

<g id="uid_85">
<path d=" M 39 70.5 L 34.6 72.6 34.6 91.15 39 89.05 39 70.5 Z" fill="#1A76B5" stroke="none"/>
</g>

<g id="uid_86">
<path d=" M 26 85.3 L 21.6 87.4 21.6 97.7 26 95.6 26 85.3 Z" fill="#1A76B5" stroke="none"/>
</g>
</defs>

<g transform="matrix( 1, 0, 0, 1, -10.1,36.55) ">
<g transform="matrix( 1, 0, 0, 1, 0,0) ">
<use xlink:href="#uid_81"/>
</g>

<g transform="matrix( 1, 0, 0, 1, 0,0) ">
<use xlink:href="#uid_82"/>
</g>

<g transform="matrix( 1, 0, 0, 1, 0,0) ">
<use xlink:href="#uid_83"/>
</g>

<g transform="matrix( 1, 0, 0, 1, 0,0) ">
<use xlink:href="#uid_84"/>
</g>

<g transform="matrix( 1, 0, 0, 1, 0,0) ">
<use xlink:href="#uid_85"/>
</g>

<g transform="matrix( 1, 0, 0, 1, 0,0) ">
<use xlink:href="#uid_86"/>
</g>
</g>
</g></g><g transform="translate(20, 4448.0)"><g transform="translate(-0.0, -0.0)">
<defs>
<g id="uid_87">
<path d=" M 38.75 -30.3 L 21.1 -21.6 21.6 96.25 22.05 96.05 22.05 90.95 26.05 89 26.05 83.4 30.25 81.35 30.25 80.4 34.9 78.15 34.9 85.35 38.7 83.45 38.7 87.95 39.25 87.7 39.05 34.25 38.75 -30.3 Z" fill="#1A76B5" stroke="none"/>

<path d=" M 21.1 -21.6 L 38.75 -30.3 39.05 34.25 40.2 33.75 40.2 -31.45 32.75 -35.45 32.75 -34.95 29.85 -36.55 10.1 -26.7 20.7 -21.4 21.1 -21.6 Z" fill="#23A0F3" stroke="none"/>
</g>

<g id="uid_88">
<path d=" M 30.5 77.25 L 26.1 79.35 26.1 90.4 30.5 88.3 30.5 77.25 Z" fill="#1A76B5" stroke="none"/>
</g>

<g id="uid_89">
<path d=" M 30.1 100.1 L 30.1 104.65 34.5 102.55 34.5 98 30.1 100.1 Z" fill="#1A76B5" stroke="none"/>
</g>

<g id="uid_90">
<path d=" M 30.6 93.3 L 26.2 95.4 26.2 100.85 30.6 98.75 30.6 93.3 Z" fill="#1A76B5" stroke="none"/>
</g>

<g id="uid_91">
<path d=" M 39 74.85 L 34.6 76.95 34.6 92 39 89.9 39 74.85 Z" fill="#1A76B5" stroke="none"/>
</g>

<g id="uid_92">
<path d=" M 26 87.25 L 21.6 89.35 21.6 100.65 26 98.55 26 87.25 Z" fill="#1A76B5" stroke="none"/>
</g>
</defs>

<g transform="matrix( 1, 0, 0, 1, -10.1,36.55) ">
<g transform="matrix( 1, 0, 0, 1, 0,0) ">
<use xlink:href="#uid_87"/>
</g>

<g transform="matrix( 1, 0, 0, 1, 0,0) ">
<use xlink:href="#uid_88"/>
</g>

<g transform="matrix( 1, 0, 0, 1, 0,0) ">
<use xlink:href="#uid_89"/>
</g>

<g transform="matrix( 1, 0, 0, 1, 0,0) ">
<use xlink:href="#uid_90"/>
</g>

<g transform="matrix( 1, 0, 0, 1, 0,0) ">
<use xlink:href="#uid_91"/>
</g>

<g transform="matrix( 1, 0, 0, 1, 0,0) ">
<use xlink:href="#uid_92"/>
</g>
</g>
</g></g><g transform="translate(20, 4612.0)"><g transform="translate(-0.0, -0.0)">
<defs>
<g id="uid_93">
<path d=" M 38.75 -30.3 L 21.1 -21.6 21.6 96.25 22.05 96.05 22.05 92.2 26.05 90.25 26.05 85.15 30.25 83.1 30.25 84.85 34.9 82.6 34.9 85.9 38.7 84 38.7 87.95 39.25 87.7 39.05 34.25 38.75 -30.3 M 30.25 73.1 L 30.25 71.05 26.25 73 26.25 74.2 22.05 76.3 22.05 71.45 26.05 69.5 26.05 66.4 30.25 64.35 30.25 66.35 34.5 64.3 34.5 62.5 38.7 60.4 38.65 65.6 34.9 67.45 34.9 70.8 30.25 73.1 Z" fill="#1A76B5" stroke="none"/>

<path d=" M 21.1 -21.6 L 38.75 -30.3 39.05 34.25 40.2 33.75 40.2 -31.45 32.75 -35.45 32.75 -34.95 29.85 -36.55 10.1 -26.7 20.7 -21.4 21.1 -21.6 Z" fill="#23A0F3" stroke="none"/>
</g>

<g id="uid_94">
<path d=" M 30.5 80.5 L 26.1 82.6 26.1 93.65 30.5 91.55 30.5 80.5 Z" fill="#1A76B5" stroke="none"/>
</g>

<g id="uid_95">
<path d=" M 30.5 95.5 L 26.1 97.6 26.1 101.65 30.5 99.55 30.5 95.5 Z" fill="#1A76B5" stroke="none"/>
</g>

<g id="uid_96">
<path d=" M 39 79.15 L 34.6 81.25 34.6 92.8 39 90.7 39 79.15 Z" fill="#1A76B5" stroke="none"/>
</g>

<g id="uid_97">
<path d=" M 26 90.95 L 21.6 93.05 21.6 102.45 26 100.35 26 90.95 Z" fill="#1A76B5" stroke="none"/>
</g>
</defs>

<g transform="matrix( 1, 0, 0, 1, -10.1,36.55) ">
<g transform="matrix( 1, 0, 0, 1, 0,0) ">
<use xlink:href="#uid_93"/>
</g>

<g transform="matrix( 1, 0, 0, 1, 0,0) ">
<use xlink:href="#uid_94"/>
</g>

<g transform="matrix( 1, 0, 0, 1, 0,0) ">
<use xlink:href="#uid_95"/>
</g>

<g transform="matrix( 1, 0, 0, 1, 0,0) ">
<use xlink:href="#uid_96"/>
</g>

<g transform="matrix( 1, 0, 0, 1, 0,0) ">
<use xlink:href="#uid_97"/>
</g>
</g>
</g></g><g transform="translate(20, 4776.0)"><g transform="translate(-0.0, -0.0)">
<defs>
<g id="uid_98">
<path d=" M 38.75 -30.3 L 21.1 -21.6 21.6 96.25 22.05 96.05 22.05 93.45 26.05 91.5 26.05 86.9 30.25 84.85 30.25 89.25 34.5 87.2 34.5 86.7 38.7 84.6 38.7 87.95 39.25 87.7 39.05 34.25 38.75 -30.3 M 22.05 73 L 26.05 71.05 26.05 66.75 30.25 64.7 30.25 66.7 34.5 64.65 34.5 63.75 38.7 61.65 38.65 69.1 34.9 70.95 34.9 74 30.25 76.3 30.25 75.4 26.25 77.35 26.25 77.65 22.05 79.75 22.05 73 Z" fill="#1A76B5" stroke="none"/>

<path d=" M 21.1 -21.6 L 38.75 -30.3 39.05 34.25 40.2 33.75 40.2 -31.45 32.75 -35.45 32.75 -34.95 29.85 -36.55 10.1 -26.7 20.7 -21.4 21.1 -21.6 Z" fill="#23A0F3" stroke="none"/>
</g>

<g id="uid_99">
<path d=" M 30.5 83.75 L 26.1 85.85 26.1 96.9 30.5 94.8 30.5 83.75 Z" fill="#1A76B5" stroke="none"/>
</g>

<g id="uid_100">
<path d=" M 39 83.5 L 34.6 85.6 34.6 93.65 39 91.55 39 83.5 Z" fill="#1A76B5" stroke="none"/>
</g>

<g id="uid_101">
<path d=" M 26 94.65 L 21.6 96.75 21.6 104.3 26 102.2 26 94.65 Z" fill="#1A76B5" stroke="none"/>
</g>
</defs>

<g transform="matrix( 1, 0, 0, 1, -10.1,36.55) ">
<g transform="matrix( 1, 0, 0, 1, 0,0) ">
<use xlink:href="#uid_98"/>
</g>

<g transform="matrix( 1, 0, 0, 1, 0,0) ">
<use xlink:href="#uid_99"/>
</g>

<g transform="matrix( 1, 0, 0, 1, 0,0) ">
<use xlink:href="#uid_100"/>
</g>

<g transform="matrix( 1, 0, 0, 1, 0,0) ">
<use xlink:href="#uid_101"/>
</g>
</g>
</g></g><g transform="translate(20, 4940.0)"><g transform="translate(-0.0, -0.0)">
<defs>
<g id="uid_102">
<path d=" M 38.75 -30.3 L 21.1 -21.6 21.6 96.25 22.05 96.05 22.05 95.3 26.05 93.35 26.05 88 30.25 85.95 30.25 91.1 34.5 89.05 34.5 88.55 38.7 86.45 38.7 87.95 39.25 87.7 39.05 34.25 38.75 -30.3 M 34.5 65 L 34.5 64.95 38.7 62.85 38.65 72.6 34.9 74.45 34.9 77.2 30.25 79.5 30.25 79.75 26.05 81.8 26.05 81.2 22.05 83.2 22.05 74.55 26.05 72.6 26.05 67.1 30.25 65.05 30.25 67.05 34.5 65 Z" fill="#1A76B5" stroke="none"/>

<path d=" M 21.1 -21.6 L 38.75 -30.3 39.05 34.25 40.2 33.75 40.2 -31.45 32.75 -35.45 32.75 -34.95 29.85 -36.55 10.1 -26.7 20.7 -21.4 21.1 -21.6 Z" fill="#23A0F3" stroke="none"/>
</g>

<g id="uid_103">
<path d=" M 30.5 87.4 L 26.1 89.5 26.1 99.55 30.5 97.45 30.5 87.4 Z" fill="#1A76B5" stroke="none"/>
</g>

<g id="uid_104">
<path d=" M 39 85.9 L 34.6 88 34.6 94.9 39 92.8 39 85.9 Z" fill="#1A76B5" stroke="none"/>
</g>

<g id="uid_105">
<path d=" M 21.6 106.1 L 26 104 26 98.3 21.6 100.4 21.6 106.1 Z" fill="#1A76B5" stroke="none"/>
</g>
</defs>

<g transform="matrix( 1, 0, 0, 1, -10.1,36.55) ">
<g transform="matrix( 1, 0, 0, 1, 0,0) ">
<use xlink:href="#uid_102"/>
</g>

<g transform="matrix( 1, 0, 0, 1, 0,0) ">
<use xlink:href="#uid_103"/>
</g>

<g transform="matrix( 1, 0, 0, 1, 0,0) ">
<use xlink:href="#uid_104"/>
</g>

<g transform="matrix( 1, 0, 0, 1, 0,0) ">
<use xlink:href="#uid_105"/>
</g>
</g>
</g></g><g transform="translate(20, 5104.0)"><g transform="translate(-0.0, -0.0)">
<defs>
<g id="uid_106">
<path d=" M 38.75 -30.3 L 21.1 -21.6 21.6 96.25 26.05 94.1 26.05 89.05 30.25 87 30.25 92.05 39.25 87.7 39.05 34.25 38.75 -30.3 M 34.9 66 L 38.7 64.1 38.65 76.1 34.9 77.95 34.9 80.4 30.25 82.7 30.25 84.05 26.05 86.1 26.05 84.65 22.05 86.65 22.05 76.1 26.05 74.15 26.05 67.45 30.25 65.4 30.25 67.4 34.9 65.15 34.9 66 Z" fill="#1A76B5" stroke="none"/>

<path d=" M 21.1 -21.6 L 38.75 -30.3 39.05 34.25 40.2 33.75 40.2 -31.45 32.75 -35.45 32.75 -34.95 29.85 -36.55 10.1 -26.7 20.7 -21.4 21.1 -21.6 Z" fill="#23A0F3" stroke="none"/>
</g>

<g id="uid_107">
<path d=" M 30.5 91.1 L 26.1 93.2 26.1 102.25 30.5 100.15 30.5 91.1 Z" fill="#1A76B5" stroke="none"/>
</g>

<g id="uid_108">
<path d=" M 39 88.35 L 34.6 90.45 34.6 96.15 39 94.05 39 88.35 Z" fill="#1A76B5" stroke="none"/>
</g>

<g id="uid_109">
<path d=" M 21.6 104.1 L 21.6 107.9 26 105.8 26 102 21.6 104.1 Z" fill="#1A76B5" stroke="none"/>
</g>
</defs>

<g transform="matrix( 1, 0, 0, 1, -10.1,36.55) ">
<g transform="matrix( 1, 0, 0, 1, 0,0) ">
<use xlink:href="#uid_106"/>
</g>

<g transform="matrix( 1, 0, 0, 1, 0,0) ">
<use xlink:href="#uid_107"/>
</g>

<g transform="matrix( 1, 0, 0, 1, 0,0) ">
<use xlink:href="#uid_108"/>
</g>

<g transform="matrix( 1, 0, 0, 1, 0,0) ">
<use xlink:href="#uid_109"/>
</g>
</g>
</g></g><g transform="translate(20, 5268.0)"><g transform="translate(-0.0, -0.0)">
<defs>
<g id="uid_110">
<path d=" M 38.75 -30.3 L 21.1 -21.6 21.6 96.25 26.05 94.1 26.05 88.1 22.05 90.1 22.05 77.65 26.05 75.7 26.05 67.8 30.25 65.75 30.25 67.75 34.9 65.5 34.9 67.2 38.7 65.3 38.65 79.6 34.9 81.45 34.9 83.6 30.25 85.9 30.25 92.05 39.25 87.7 39.05 34.25 38.75 -30.3 Z" fill="#1A76B5" stroke="none"/>

<path d=" M 21.1 -21.6 L 38.75 -30.3 39.05 34.25 40.2 33.75 40.2 -31.45 32.75 -35.45 32.75 -34.95 29.85 -36.55 10.1 -26.7 20.7 -21.4 21.1 -21.6 Z" fill="#23A0F3" stroke="none"/>
</g>

<g id="uid_111">
<path d=" M 30.5 94.75 L 26.1 96.85 26.1 104.9 30.5 102.8 30.5 94.75 Z" fill="#1A76B5" stroke="none"/>
</g>

<g id="uid_112">
<path d=" M 34.6 92.85 L 34.6 97.4 39 95.3 39 90.75 34.6 92.85 Z" fill="#1A76B5" stroke="none"/>
</g>
</defs>

<g transform="matrix( 1, 0, 0, 1, -10.1,36.55) ">
<g transform="matrix( 1, 0, 0, 1, 0,0) ">
<use xlink:href="#uid_110"/>
</g>

<g transform="matrix( 1, 0, 0, 1, 0,0) ">
<use xlink:href="#uid_111"/>
</g>

<g transform="matrix( 1, 0, 0, 1, 0,0) ">
<use xlink:href="#uid_112"/>
</g>
</g>
</g></g></svg>