<svg xmlns="http://www.w3.org/2000/svg" viewBox="0 0 41.34 50.46"><defs><style>.cls-1{fill:#0e79b2;}.cls-2{fill:#00638e;}</style></defs><title>turn_left</title><g id="move_forward"><path class="cls-1" d="M0 20.2a20.67 20.67 0 1 1 41 4.11 3.44 3.44 0 0 1-6.78-1.2 14 14 0 0 0 .24-2.11 13.79 13.79 0 1 0-14.26 13.45l-3.54-4a3.44 3.44 0 0 1 5.17-4.54l8.81 10a3.44 3.44 0 0 1-.31 4.85l-10 8.84a3.44 3.44 0 0 1-4.56-5.16l3.56-3.15a20.69 20.69 0 0 1-19.33-21.09z"/><path class="cls-2" d="M21.8 27.4a3.44 3.44 0 0 0-5.92 1.4 3.43 3.43 0 0 1 6-2.93l8.81 10a3.44 3.44 0 0 1 .74 3.14 3.41 3.41 0 0 0-.78-1.62zM21.11 1.53a20.69 20.69 0 0 0-21.11 19.47v-.77a20.67 20.67 0 1 1 41.33.95v.61a20.69 20.69 0 0 0-20.22-20.26zM34.41 21.69v.82a14 14 0 0 1-.17 1.81 3.43 3.43 0 0 1 0-1.22 13.85 13.85 0 0 0 .17-1.41zM6.9 21a13.79 13.79 0 0 0 11.77 13.3l1.53.14v1.52a13.8 13.8 0 0 1-13.35-14.08c.01-.3.03-.6.05-.88zM15.77 44.44l2-1.78 1.55-1.37v1.52l-3.59 3.19a3.43 3.43 0 0 0-1.05 1.71 3.43 3.43 0 0 1 1.09-3.27z"/></g></svg>