<svg xmlns="http://www.w3.org/2000/svg" viewBox="0 0 41.34 50.46"><defs><style>.cls-1{fill:#0e79b2;}.cls-2{fill:#00638e;}</style></defs><title>turn_right</title><path class="cls-1" d="M41.34 20.2a20.67 20.67 0 1 0-41 4.11 3.44 3.44 0 0 0 6.76-1.21 14 14 0 0 1-.21-2.1 13.79 13.79 0 1 1 14.26 13.45l3.54-4a3.44 3.44 0 0 0-5.17-4.54l-8.81 10a3.44 3.44 0 0 0 .29 4.85l10 8.84a3.44 3.44 0 0 0 4.56-5.16l-3.56-3.14a20.69 20.69 0 0 0 19.34-21.1z"/><path class="cls-2" d="M19.54 27.4a3.44 3.44 0 0 1 5.92 1.4 3.43 3.43 0 0 0-6-2.93l-8.81 10a3.44 3.44 0 0 0-.65 3.18 3.41 3.41 0 0 1 .78-1.62zM20.23 1.53a20.69 20.69 0 0 1 21.11 19.47v-.77a20.67 20.67 0 1 0-41.34.91v.61a20.69 20.69 0 0 1 20.23-20.22zM6.93 21.69v.82a14 14 0 0 0 .17 1.81 3.43 3.43 0 0 0 0-1.22 13.85 13.85 0 0 1-.17-1.41zM34.44 21a13.79 13.79 0 0 1-11.77 13.3l-1.53.14v1.52a13.8 13.8 0 0 0 13.35-14.08c-.01-.3-.03-.6-.05-.88zM25.58 44.44l-2-1.78-1.58-1.36v1.52l3.61 3.18a3.43 3.43 0 0 1 1.05 1.71 3.43 3.43 0 0 0-1.08-3.27z"/></svg>