<?xml version="1.0" encoding="UTF-8" ?>
<!DOCTYPE svg PUBLIC "-//W3C//DTD SVG 1.1//EN" "http://www.w3.org/Graphics/SVG/1.1/DTD/svg11.dtd">
<svg width="260pt" height="77pt" viewBox="0 0 383 113" version="1.1" xmlns="http://www.w3.org/2000/svg">
<g id="#00a8f3ff">
<path fill="#00a8f3" opacity="1.00" d=" M 0.00 0.00 L 383.00 0.00 L 383.00 113.00 L 0.00 113.00 L 0.00 0.00 M 269.37 4.73 C 269.33 6.87 269.30 9.01 269.28 11.14 C 267.48 11.35 264.42 10.22 264.83 13.14 C 264.92 14.21 265.00 15.27 265.08 16.34 C 265.87 16.38 267.46 16.46 268.25 16.50 C 267.24 21.38 262.71 25.86 265.62 31.00 C 267.03 28.21 268.07 25.27 269.26 22.39 C 269.48 26.99 269.33 31.60 269.53 36.21 L 269.30 36.23 C 269.33 36.90 269.40 38.25 269.43 38.92 C 270.03 38.95 271.24 39.02 271.84 39.05 C 271.87 38.28 271.91 36.72 271.94 35.95 C 272.05 31.44 271.73 26.94 271.97 22.43 C 272.98 23.59 273.98 24.74 274.99 25.90 C 275.60 24.59 276.22 23.29 276.84 21.99 L 276.35 21.32 C 276.60 21.21 277.12 20.98 277.38 20.86 C 277.45 23.09 277.49 25.31 277.43 27.54 C 276.78 30.11 278.79 31.50 280.65 32.72 C 278.47 33.19 274.10 31.43 274.47 35.01 C 274.51 35.76 274.59 37.24 274.63 37.99 C 282.55 37.98 290.46 37.97 298.37 38.00 C 298.46 37.23 298.63 35.71 298.71 34.94 C 299.02 31.37 294.46 33.24 292.28 32.71 C 294.10 31.47 296.13 30.10 295.60 27.55 C 295.48 25.31 295.46 23.06 295.47 20.82 C 296.31 21.13 297.16 21.43 298.02 21.72 C 298.34 20.82 298.98 19.02 299.30 18.12 C 298.73 17.17 297.99 16.40 297.06 15.82 C 297.72 14.40 298.18 12.87 297.83 11.29 C 297.93 11.09 298.15 10.71 298.26 10.52 C 297.51 10.26 296.01 9.73 295.26 9.46 C 295.39 8.99 295.64 8.05 295.76 7.58 C 295.49 7.05 294.94 6.00 294.66 5.48 C 293.02 6.37 291.44 7.37 289.93 8.48 C 289.30 6.81 288.68 5.02 286.59 4.91 C 286.50 6.74 286.47 8.57 286.52 10.40 C 286.83 10.57 287.45 10.93 287.76 11.10 C 286.90 12.33 288.28 14.09 289.35 14.76 C 287.43 14.84 285.52 14.84 283.62 14.78 C 284.59 13.98 285.96 12.30 285.19 11.03 C 285.67 9.62 285.90 8.14 285.87 6.60 C 282.75 7.40 276.87 4.69 275.75 8.32 C 275.89 10.71 275.53 13.30 276.88 15.43 C 275.90 16.36 274.97 17.35 274.05 18.33 L 274.64 19.08 C 273.89 18.31 273.01 17.66 272.16 17.01 L 272.07 16.24 C 272.85 16.31 274.42 16.46 275.21 16.54 C 275.26 15.64 275.38 13.84 275.44 12.94 C 275.35 10.87 273.31 11.20 271.82 10.97 C 271.76 8.92 271.73 6.88 271.73 4.83 C 271.14 4.80 269.96 4.76 269.37 4.73 M 303.72 6.48 C 303.68 7.09 303.59 8.30 303.54 8.91 C 303.53 9.68 303.51 11.22 303.50 11.98 C 309.44 11.96 315.37 12.00 321.31 12.01 C 319.64 13.15 317.99 14.31 316.33 15.45 C 316.18 16.68 316.01 17.90 315.84 19.12 C 310.62 19.12 305.41 19.13 300.20 19.11 C 300.15 19.75 300.06 21.03 300.02 21.68 C 300.02 22.40 300.02 23.86 300.02 24.59 C 305.36 24.55 310.70 24.54 316.05 24.59 C 316.08 27.45 316.04 30.30 315.76 33.14 C 313.35 33.26 310.94 33.23 308.54 33.06 C 308.50 34.75 308.47 36.44 308.27 38.12 C 311.85 39.89 318.77 39.86 319.18 34.60 C 319.22 31.23 319.28 27.87 319.17 24.50 C 323.95 23.34 333.39 27.52 334.41 21.65 C 333.43 16.37 324.71 20.48 320.32 18.93 C 323.67 15.84 329.95 14.41 330.60 9.51 C 330.59 8.76 330.57 7.24 330.55 6.49 C 321.61 6.50 312.67 6.52 303.72 6.48 M 337.53 6.50 C 337.28 16.48 337.48 26.47 337.80 36.44 L 337.49 36.52 C 337.54 37.08 337.65 38.20 337.70 38.76 C 338.35 38.82 339.66 38.94 340.31 39.00 C 340.34 38.18 340.38 36.56 340.40 35.74 C 340.44 35.05 340.51 33.67 340.54 32.98 C 341.09 32.89 342.18 32.72 342.73 32.64 C 344.14 30.60 345.47 28.51 346.72 26.37 C 348.21 29.38 350.59 31.75 353.03 33.99 C 354.60 31.67 356.14 29.33 357.66 26.98 C 358.92 29.09 360.08 31.27 361.49 33.28 C 360.16 33.27 358.83 33.25 357.51 33.22 C 357.41 34.63 357.31 36.05 357.20 37.47 L 357.26 37.44 C 359.52 39.90 363.17 38.36 366.05 38.22 C 366.38 37.16 366.72 36.10 367.06 35.04 C 367.50 25.53 366.85 16.00 366.97 6.48 C 357.16 6.52 347.34 6.47 337.53 6.50 M 83.49 9.49 C 77.85 13.84 78.58 21.79 79.87 27.98 C 83.24 36.88 97.20 37.90 102.19 30.05 C 104.59 26.51 104.44 22.05 104.20 17.97 C 104.19 7.79 90.72 3.32 83.49 9.49 M 109.49 7.12 C 109.49 15.42 109.35 23.72 109.38 32.02 C 109.39 32.75 109.42 34.21 109.44 34.94 C 110.62 34.97 111.80 35.00 112.98 35.03 C 112.97 34.26 112.96 32.73 112.95 31.96 C 112.94 29.45 112.92 26.94 113.04 24.43 C 119.78 23.28 121.67 30.82 124.93 35.01 C 126.28 35.00 127.64 34.98 128.99 34.97 C 128.95 33.78 128.91 32.59 128.88 31.40 L 128.48 31.49 C 126.59 28.46 124.60 25.50 122.55 22.58 C 126.32 19.97 126.62 14.75 125.21 10.78 C 121.91 5.37 114.72 7.58 109.49 7.12 M 132.52 7.15 C 132.52 15.45 132.41 23.75 132.45 32.05 C 132.46 32.78 132.47 34.25 132.48 34.98 C 141.19 36.24 153.88 33.84 154.20 22.87 C 154.40 18.58 154.11 13.47 150.36 10.65 C 145.50 6.27 138.54 7.18 132.52 7.15 M 156.09 7.21 C 157.05 16.14 166.49 22.52 164.76 32.01 C 164.77 32.76 164.80 34.25 164.82 35.00 C 165.68 35.00 167.40 35.00 168.26 35.00 C 168.25 34.25 168.24 32.76 168.24 32.01 C 166.36 22.36 176.33 16.17 177.12 7.12 C 175.86 7.14 174.60 7.16 173.35 7.18 C 171.09 11.29 168.82 15.39 166.56 19.49 C 164.53 15.28 162.32 11.18 160.10 7.08 C 158.76 7.12 157.42 7.17 156.09 7.21 M 180.67 7.11 C 180.71 15.41 180.68 23.70 180.69 32.00 C 180.69 32.75 180.69 34.25 180.69 35.00 C 185.36 35.00 190.04 35.00 194.71 35.00 C 194.73 34.25 194.78 32.76 194.80 32.01 C 194.76 31.29 194.69 29.86 194.66 29.14 C 191.15 29.11 187.64 29.14 184.14 29.08 C 184.08 21.76 184.19 14.45 184.07 7.13 C 183.22 7.13 181.52 7.12 180.67 7.11 M 205.85 7.16 C 202.57 15.59 198.93 23.88 195.68 32.33 C 195.71 33.01 195.77 34.36 195.80 35.04 C 197.09 34.99 198.38 34.95 199.67 34.91 C 200.45 32.67 201.24 30.43 202.03 28.20 C 205.77 28.44 209.72 27.63 213.34 28.57 C 214.31 30.69 215.09 32.88 216.05 35.01 C 217.28 35.00 218.52 34.99 219.77 34.98 C 219.79 33.77 219.83 32.57 219.86 31.37 L 219.53 31.45 C 216.31 23.29 212.86 15.23 209.61 7.08 C 208.35 7.11 207.10 7.13 205.85 7.16 M 223.61 7.08 C 223.53 15.46 223.57 23.83 223.71 32.21 L 223.51 32.23 C 223.54 32.91 223.60 34.27 223.63 34.95 C 224.76 34.98 225.88 35.01 227.02 35.04 C 227.02 34.26 227.03 32.69 227.03 31.90 C 227.08 26.13 226.92 20.35 227.17 14.57 C 231.76 21.47 236.70 28.13 241.33 35.00 C 242.68 34.99 244.04 34.98 245.40 34.97 C 245.45 34.37 245.56 33.16 245.61 32.55 L 245.35 32.49 C 245.70 24.04 245.31 15.57 245.43 7.11 C 244.57 7.12 242.84 7.12 241.98 7.13 C 241.95 13.88 241.96 20.63 242.00 27.38 C 237.31 20.68 232.61 13.99 228.08 7.18 C 226.59 7.15 225.09 7.11 223.61 7.08 M 40.77 20.28 C 34.29 21.32 26.19 24.45 25.05 31.80 C 12.65 40.13 4.71 56.00 9.34 70.60 C 12.06 88.31 32.44 100.21 49.38 95.49 C 57.79 93.68 65.26 88.35 70.04 81.26 C 80.50 65.81 75.30 43.59 60.04 33.36 C 58.97 25.19 50.60 21.19 43.26 20.30 C 43.28 18.60 43.30 16.90 43.33 15.19 C 45.84 13.21 48.41 11.27 50.41 8.75 C 44.75 9.86 41.04 14.62 40.77 20.28 M 251.69 20.90 C 251.63 21.54 251.51 22.81 251.45 23.45 C 251.49 24.15 251.57 25.57 251.61 26.27 C 254.96 26.34 258.32 26.31 261.68 26.34 C 261.69 25.61 261.71 24.16 261.72 23.44 C 261.73 22.60 261.75 21.77 261.78 20.94 C 258.41 20.86 255.05 20.86 251.69 20.90 M 81.12 43.65 C 81.37 44.34 81.63 45.03 81.89 45.72 C 177.32 46.07 272.77 45.54 368.22 45.54 C 368.29 44.83 368.44 43.39 368.51 42.67 C 274.33 42.48 180.15 42.94 85.97 42.87 C 84.31 42.80 82.70 43.22 81.12 43.65 M 150.30 53.60 C 151.68 56.05 153.03 58.51 154.29 61.03 C 147.44 61.04 140.59 61.03 133.74 61.04 C 133.74 63.54 133.75 66.05 133.76 68.55 C 140.05 68.57 146.33 68.55 152.62 68.57 C 152.62 71.99 152.61 75.42 152.66 78.85 C 147.21 78.79 141.76 78.83 136.32 78.82 C 136.31 81.30 136.31 83.78 136.31 86.26 C 141.75 86.24 147.18 86.25 152.62 86.26 C 152.63 89.80 152.61 93.33 152.66 96.87 C 145.34 96.75 138.01 96.70 130.69 96.84 C 130.67 99.39 130.69 101.94 130.76 104.49 C 148.12 104.48 165.48 104.66 182.83 104.62 C 184.41 104.60 185.98 104.57 187.56 104.55 C 187.56 102.03 187.56 99.51 187.55 96.99 C 185.99 96.95 184.42 96.92 182.86 96.88 C 177.08 96.89 171.31 96.91 165.54 96.85 C 165.58 93.33 165.58 89.81 165.51 86.29 C 169.39 86.34 173.28 86.29 177.16 86.32 C 178.85 86.31 180.54 86.28 182.24 86.26 C 182.25 83.82 182.24 81.38 182.23 78.94 C 180.53 78.93 178.84 78.92 177.16 78.91 C 173.28 78.90 169.41 78.82 165.53 78.82 C 165.58 75.42 165.59 72.02 165.48 68.62 C 170.29 68.57 175.10 68.67 179.91 68.61 C 181.53 68.59 183.14 68.57 184.75 68.55 C 184.75 66.04 184.74 63.53 184.72 61.02 C 183.09 61.03 181.47 61.04 179.85 61.04 C 173.87 60.96 167.87 61.24 161.90 60.78 C 163.65 59.96 165.41 59.17 167.18 58.40 C 165.70 55.61 164.15 52.87 162.52 50.17 C 158.02 49.33 154.15 51.69 150.30 53.60 M 218.31 52.97 C 218.31 55.22 218.31 57.48 218.31 59.73 C 225.06 59.77 231.81 59.73 238.56 59.76 C 237.89 61.80 237.20 63.83 236.47 65.85 C 231.99 65.90 227.51 65.87 223.04 65.87 C 223.03 74.84 223.05 83.82 223.03 92.79 C 225.58 92.81 228.14 92.81 230.71 92.80 C 232.21 92.77 233.71 92.74 235.22 92.71 C 235.27 86.07 235.27 79.43 235.22 72.79 C 242.67 72.84 250.11 72.75 257.56 72.86 C 257.59 79.14 257.51 85.41 257.61 91.68 C 255.60 90.84 253.68 89.76 251.59 89.11 C 252.44 84.78 252.91 80.38 252.91 75.97 C 251.37 75.95 249.83 75.92 248.30 75.89 C 245.73 75.89 243.16 75.93 240.60 75.99 C 240.45 81.76 240.07 88.37 235.61 92.60 C 230.69 97.18 223.62 97.86 217.28 98.88 C 219.16 101.59 220.98 104.35 222.56 107.26 L 221.97 107.41 C 231.17 107.07 240.91 103.94 247.20 96.95 C 253.73 100.20 260.01 103.92 266.40 107.45 C 267.92 107.39 269.45 107.34 270.98 107.29 C 272.19 105.17 273.40 103.05 274.63 100.93 L 275.62 101.09 C 270.80 97.38 264.97 95.40 259.66 92.55 C 261.44 92.63 263.22 92.56 265.01 92.56 C 266.59 92.53 268.17 92.51 269.76 92.48 C 269.74 83.64 269.75 74.80 269.75 65.97 C 268.17 65.94 266.59 65.92 265.02 65.90 C 259.79 65.87 254.57 65.88 249.34 65.90 C 250.29 63.90 251.18 61.88 252.03 59.85 C 259.46 59.76 266.90 59.86 274.33 59.73 C 274.31 57.47 274.31 55.22 274.31 52.96 C 272.76 52.94 271.23 52.91 269.69 52.89 C 252.56 52.81 235.44 52.95 218.31 52.97 Z" />
<path fill="#00a8f3" opacity="1.00" d=" M 340.21 11.82 C 343.36 11.95 346.50 11.80 349.65 11.76 C 348.78 14.00 347.87 16.22 346.93 18.42 C 345.02 16.25 344.11 12.19 340.62 12.45 C 340.65 12.93 340.71 13.89 340.74 14.37 C 340.53 17.67 343.01 20.17 344.59 22.81 C 343.23 24.79 341.91 26.79 340.68 28.84 L 340.52 27.80 C 340.10 22.48 340.64 17.14 340.21 11.82 Z" />
<path fill="#00a8f3" opacity="1.00" d=" M 83.62 17.56 C 86.89 11.42 96.20 11.01 99.90 16.93 C 101.89 22.10 98.93 28.95 92.99 29.40 C 86.51 30.87 80.43 23.60 83.62 17.56 Z" />
<path fill="#00a8f3" opacity="1.00" d=" M 113.02 12.89 C 115.98 12.88 118.95 13.10 121.83 13.85 C 122.71 18.96 116.47 18.94 113.04 18.75 C 113.03 16.79 113.02 14.84 113.02 12.89 Z" />
<path fill="#00a8f3" opacity="1.00" d=" M 136.03 12.93 C 140.66 12.77 145.52 13.17 149.21 16.30 C 154.05 24.84 143.50 30.97 135.99 29.15 C 135.97 23.75 136.02 18.34 136.03 12.93 Z" />
<path fill="#00a8f3" opacity="1.00" d=" M 204.47 22.30 C 205.54 20.01 205.93 16.93 208.55 15.86 C 209.13 17.45 209.79 19.01 210.54 20.53 C 210.36 20.90 209.98 21.62 209.79 21.98 C 208.02 22.15 206.24 22.23 204.47 22.30 Z" />
<path fill="#00a8f3" opacity="1.00" d=" M 283.91 30.28 C 285.80 30.24 287.69 30.17 289.59 30.10 C 289.17 30.88 288.76 31.67 288.36 32.46 C 287.38 32.65 286.42 32.85 285.46 33.05 C 285.07 32.36 284.30 30.98 283.91 30.28 Z" />
</g>
<g id="#fc9440ff">
<path fill="#fc9440" opacity="1.00" d=" M 269.37 4.73 C 269.96 4.76 271.14 4.80 271.73 4.83 C 271.73 6.88 271.76 8.92 271.82 10.97 C 273.31 11.20 275.35 10.87 275.44 12.94 C 274.51 13.03 272.66 13.23 271.73 13.32 C 271.82 14.05 271.99 15.51 272.07 16.24 L 272.16 17.01 C 273.01 17.66 273.89 18.31 274.64 19.08 C 275.07 19.64 275.92 20.76 276.35 21.32 L 276.84 21.99 C 275.25 21.50 273.66 20.99 272.07 20.48 C 272.04 21.13 272.00 21.78 271.97 22.43 C 271.73 26.94 272.05 31.44 271.94 35.95 C 271.34 36.01 270.13 36.14 269.53 36.21 C 269.33 31.60 269.48 26.99 269.26 22.39 C 268.07 25.27 267.03 28.21 265.62 31.00 C 262.71 25.86 267.24 21.38 268.25 16.50 C 268.54 15.48 268.80 14.44 269.07 13.41 C 267.66 13.32 266.24 13.23 264.83 13.14 C 264.42 10.22 267.48 11.35 269.28 11.14 C 269.30 9.01 269.33 6.87 269.37 4.73 Z" />
<path fill="#fc9440" opacity="1.00" d=" M 286.59 4.91 C 288.68 5.02 289.30 6.81 289.93 8.48 C 291.44 7.37 293.02 6.37 294.66 5.48 C 294.94 6.00 295.49 7.05 295.76 7.58 C 294.03 8.53 292.31 9.51 290.61 10.51 C 291.27 11.07 292.60 12.21 293.26 12.78 C 293.95 11.69 294.62 10.58 295.26 9.46 C 296.01 9.73 297.51 10.26 298.26 10.52 C 298.15 10.71 297.93 11.09 297.83 11.29 C 296.70 12.25 295.50 13.13 294.31 14.02 C 295.23 14.61 296.15 15.21 297.06 15.82 C 297.99 16.40 298.73 17.17 299.30 18.12 C 290.99 16.24 282.31 16.24 274.05 18.33 C 274.97 17.35 275.90 16.36 276.88 15.43 C 277.14 13.55 277.30 11.65 277.43 9.75 C 278.14 10.49 278.84 11.23 279.56 11.97 C 279.94 12.15 280.69 12.50 281.07 12.68 L 281.43 11.92 C 281.94 10.81 282.45 9.70 282.97 8.59 C 280.56 8.52 278.15 8.44 275.75 8.32 C 276.87 4.69 282.75 7.40 285.87 6.60 C 285.90 8.14 285.67 9.62 285.19 11.03 C 284.07 11.70 280.58 14.60 283.62 14.78 C 285.52 14.84 287.43 14.84 289.35 14.76 C 292.61 14.60 289.31 11.44 287.76 11.10 C 287.45 10.93 286.83 10.57 286.52 10.40 C 286.47 8.57 286.50 6.74 286.59 4.91 Z" />
</g>
<g id="#fd9540ff">
<path fill="#fd9540" opacity="1.00" d=" M 303.72 6.48 C 312.67 6.52 321.61 6.50 330.55 6.49 C 330.57 7.24 330.59 8.76 330.60 9.51 C 326.06 11.97 321.46 14.65 318.24 18.80 C 318.76 18.83 319.80 18.89 320.32 18.93 C 324.71 20.48 333.43 16.37 334.41 21.65 C 329.30 21.56 324.19 21.55 319.09 21.66 C 319.11 22.37 319.15 23.79 319.17 24.50 C 319.28 27.87 319.22 31.23 319.18 34.60 C 315.62 35.97 310.97 35.06 308.27 38.12 C 308.47 36.44 308.50 34.75 308.54 33.06 C 310.94 33.23 313.35 33.26 315.76 33.14 C 316.04 30.30 316.08 27.45 316.05 24.59 C 316.05 23.86 316.05 22.40 316.05 21.66 C 310.70 21.56 305.36 21.54 300.02 21.68 C 300.06 21.03 300.15 19.75 300.20 19.11 C 305.41 19.13 310.62 19.12 315.84 19.12 C 316.01 17.90 316.18 16.68 316.33 15.45 C 317.99 14.31 319.64 13.15 321.31 12.01 C 322.69 11.06 324.07 10.10 325.45 9.12 C 318.15 8.80 310.84 8.98 303.54 8.91 C 303.59 8.30 303.68 7.09 303.72 6.48 Z" />
<path fill="#fd9540" opacity="1.00" d=" M 349.65 11.76 C 350.48 12.03 351.09 12.55 351.49 13.34 C 350.47 16.25 349.41 19.19 349.12 22.28 C 350.27 23.94 351.40 25.64 352.20 27.52 C 351.24 27.46 350.29 27.42 349.33 27.39 C 348.53 26.28 347.63 25.25 346.81 24.15 C 345.12 26.60 343.22 28.90 341.01 30.91 C 340.93 30.39 340.76 29.36 340.68 28.84 C 341.91 26.79 343.23 24.79 344.59 22.81 C 344.97 19.43 342.71 16.82 340.74 14.37 C 340.71 13.89 340.65 12.93 340.62 12.45 C 344.11 12.19 345.02 16.25 346.93 18.42 C 347.87 16.22 348.78 14.00 349.65 11.76 Z" />
</g>
<g id="#f9923fff">
<path fill="#f9923f" opacity="1.00" d=" M 337.53 6.50 C 347.34 6.47 357.16 6.52 366.97 6.48 C 366.85 16.00 367.50 25.53 367.06 35.04 C 363.72 35.46 360.16 35.50 357.26 37.44 L 357.20 37.47 C 357.31 36.05 357.41 34.63 357.51 33.22 C 358.83 33.25 360.16 33.27 361.49 33.28 L 362.23 33.29 C 362.77 33.27 363.83 33.23 364.36 33.22 C 364.37 26.07 364.13 18.93 364.13 11.79 C 364.13 11.09 364.14 9.68 364.15 8.98 C 356.11 8.92 348.06 8.86 340.02 9.03 C 340.07 9.72 340.16 11.12 340.21 11.82 C 340.64 17.14 340.10 22.48 340.52 27.80 C 340.55 29.52 340.55 31.25 340.54 32.98 C 340.51 33.67 340.44 35.05 340.40 35.74 C 339.75 35.92 338.45 36.27 337.80 36.44 C 337.48 26.47 337.28 16.48 337.53 6.50 Z" />
</g>
<g id="#fe9640ff">
<path fill="#fe9640" opacity="1.00" d=" M 83.49 9.49 C 90.72 3.32 104.19 7.79 104.20 17.97 C 105.09 24.46 100.73 31.37 93.98 32.10 C 88.82 33.22 84.08 30.61 79.87 27.98 C 78.58 21.79 77.85 13.84 83.49 9.49 M 82.99 18.36 L 83.62 17.56 C 80.43 23.60 86.51 30.87 92.99 29.40 C 98.93 28.95 101.89 22.10 99.90 16.93 C 99.36 6.41 82.11 7.97 82.99 18.36 Z" />
<path fill="#fe9640" opacity="1.00" d=" M 132.52 7.15 C 138.54 7.18 145.50 6.27 150.36 10.65 C 154.11 13.47 154.40 18.58 154.20 22.87 C 150.71 31.61 140.63 32.76 132.45 32.05 C 132.41 23.75 132.52 15.45 132.52 7.15 M 135.98 9.88 C 135.99 10.64 136.02 12.17 136.03 12.93 C 136.02 18.34 135.97 23.75 135.99 29.15 C 143.50 30.97 154.05 24.84 149.21 16.30 C 148.72 9.75 140.86 9.90 135.98 9.88 Z" />
</g>
<g id="#fe9540ff">
<path fill="#fe9540" opacity="1.00" d=" M 109.49 7.12 C 114.72 7.58 121.91 5.37 125.21 10.78 C 126.62 14.75 126.32 19.97 122.55 22.58 C 124.60 25.50 126.59 28.46 128.48 31.49 C 127.32 31.76 126.16 32.03 125.00 32.30 C 121.75 27.87 119.41 21.64 113.26 20.75 C 113.18 21.98 113.10 23.21 113.04 24.43 C 112.92 26.94 112.94 29.45 112.95 31.96 C 111.76 31.98 110.57 32.00 109.38 32.02 C 109.35 23.72 109.49 15.42 109.49 7.12 M 112.98 9.95 C 112.99 10.69 113.01 12.16 113.02 12.89 C 113.02 14.84 113.03 16.79 113.04 18.75 C 116.47 18.94 122.71 18.96 121.83 13.85 C 121.23 12.61 120.67 11.35 120.11 10.10 C 117.73 10.04 115.35 9.99 112.98 9.95 Z" />
<path fill="#fe9540" opacity="1.00" d=" M 156.09 7.21 C 157.42 7.17 158.76 7.12 160.10 7.08 C 162.32 11.18 164.53 15.28 166.56 19.49 C 168.82 15.39 171.09 11.29 173.35 7.18 C 174.60 7.16 175.86 7.14 177.12 7.12 C 176.33 16.17 166.36 22.36 168.24 32.01 C 167.37 32.01 165.63 32.01 164.76 32.01 C 166.49 22.52 157.05 16.14 156.09 7.21 Z" />
<path fill="#fe9540" opacity="1.00" d=" M 205.85 7.16 C 207.10 7.13 208.35 7.11 209.61 7.08 C 212.86 15.23 216.31 23.29 219.53 31.45 C 218.25 31.75 216.98 32.06 215.70 32.37 C 214.75 29.94 213.82 27.51 212.92 25.07 C 209.38 25.07 205.83 25.07 202.29 25.10 C 201.54 27.28 200.67 29.41 199.74 31.51 C 198.38 31.77 197.03 32.05 195.68 32.33 C 198.93 23.88 202.57 15.59 205.85 7.16 M 203.73 22.52 C 206.24 22.62 208.76 22.71 211.28 22.77 C 211.03 22.02 210.79 21.28 210.54 20.53 C 209.79 19.01 209.13 17.45 208.55 15.86 C 208.26 14.55 207.94 13.24 207.62 11.94 C 206.07 15.37 204.72 18.89 203.73 22.52 Z" />
<path fill="#fe9540" opacity="1.00" d=" M 361.36 11.88 L 362.48 11.84 C 364.16 15.66 361.23 19.13 359.96 22.59 C 361.51 25.02 362.95 27.51 364.20 30.11 C 360.97 29.57 359.10 26.99 357.60 24.35 C 356.15 26.61 354.62 28.81 353.05 30.98 C 352.87 30.23 352.51 28.73 352.34 27.98 C 353.38 26.48 354.43 24.99 355.51 23.52 C 355.01 20.17 353.59 17.10 352.13 14.09 C 355.30 13.65 356.20 17.17 357.82 19.16 C 358.95 16.71 360.06 14.25 361.36 11.88 Z" />
</g>
<g id="#ff9640ff">
<path fill="#ff9640" opacity="1.00" d=" M 180.67 7.11 C 181.52 7.12 183.22 7.13 184.07 7.13 C 184.19 14.45 184.08 21.76 184.14 29.08 C 187.64 29.14 191.15 29.11 194.66 29.14 C 194.69 29.86 194.76 31.29 194.80 32.01 C 190.09 32.00 185.39 32.00 180.69 32.00 C 180.68 23.70 180.71 15.41 180.67 7.11 Z" />
<path fill="#ff9640" opacity="1.00" d=" M 223.61 7.08 C 225.09 7.11 226.59 7.15 228.08 7.18 C 232.61 13.99 237.31 20.68 242.00 27.38 C 241.96 20.63 241.95 13.88 241.98 7.13 C 242.84 7.12 244.57 7.12 245.43 7.11 C 245.31 15.57 245.70 24.04 245.35 32.49 C 236.16 30.01 233.44 18.53 227.28 11.98 C 227.25 12.63 227.20 13.92 227.17 14.57 C 226.92 20.35 227.08 26.13 227.03 31.90 C 226.20 31.98 224.54 32.13 223.71 32.21 C 223.57 23.83 223.53 15.46 223.61 7.08 Z" />
<path fill="#ff9640" opacity="1.00" d=" M 251.69 20.90 C 255.05 20.86 258.41 20.86 261.78 20.94 C 261.75 21.77 261.73 22.60 261.72 23.44 C 258.29 23.38 254.87 23.38 251.45 23.45 C 251.51 22.81 251.63 21.54 251.69 20.90 Z" />
</g>
<g id="#a9582cff">
<path fill="#a9582c" opacity="1.00" d=" M 275.75 8.32 C 278.15 8.44 280.56 8.52 282.97 8.59 C 282.45 9.70 281.94 10.81 281.43 11.92 C 280.96 11.93 280.03 11.96 279.56 11.97 C 278.84 11.23 278.14 10.49 277.43 9.75 C 277.30 11.65 277.14 13.55 276.88 15.43 C 275.53 13.30 275.89 10.71 275.75 8.32 Z" />
<path fill="#a9582c" opacity="1.00" d=" M 227.28 11.98 C 233.44 18.53 236.16 30.01 245.35 32.49 L 245.61 32.55 C 245.56 33.16 245.45 34.37 245.40 34.97 C 244.04 34.98 242.68 34.99 241.33 35.00 C 236.70 28.13 231.76 21.47 227.17 14.57 C 227.20 13.92 227.25 12.63 227.28 11.98 Z" />
</g>
<g id="#a45d34ff">
<path fill="#a45d34" opacity="1.00" d=" M 290.61 10.51 C 292.31 9.51 294.03 8.53 295.76 7.58 C 295.64 8.05 295.39 8.99 295.26 9.46 C 294.62 10.58 293.95 11.69 293.26 12.78 C 292.60 12.21 291.27 11.07 290.61 10.51 Z" />
</g>
<g id="#2cb677ff">
<path fill="#2cb677" opacity="1.00" d=" M 40.77 20.28 C 41.04 14.62 44.75 9.86 50.41 8.75 C 48.41 11.27 45.84 13.21 43.33 15.19 C 43.30 16.90 43.28 18.60 43.26 20.30 C 50.60 21.19 58.97 25.19 60.04 33.36 C 59.23 32.57 58.42 31.77 57.63 30.97 C 52.43 18.71 32.52 18.66 26.76 30.49 C 26.34 30.82 25.48 31.47 25.05 31.80 C 26.19 24.45 34.29 21.32 40.77 20.28 Z" />
</g>
<g id="#a2572eff">
<path fill="#a2572e" opacity="1.00" d=" M 303.54 8.91 C 310.84 8.98 318.15 8.80 325.45 9.12 C 324.07 10.10 322.69 11.06 321.31 12.01 C 315.37 12.00 309.44 11.96 303.50 11.98 C 303.51 11.22 303.53 9.68 303.54 8.91 Z" />
<path fill="#a2572e" opacity="1.00" d=" M 109.38 32.02 C 110.57 32.00 111.76 31.98 112.95 31.96 C 112.96 32.73 112.97 34.26 112.98 35.03 C 111.80 35.00 110.62 34.97 109.44 34.94 C 109.42 34.21 109.39 32.75 109.38 32.02 Z" />
<path fill="#a2572e" opacity="1.00" d=" M 274.47 35.01 C 282.55 34.99 290.63 35.07 298.71 34.94 C 298.63 35.71 298.46 37.23 298.37 38.00 C 290.46 37.97 282.55 37.98 274.63 37.99 C 274.59 37.24 274.51 35.76 274.47 35.01 Z" />
</g>
<g id="#a5562bff">
<path fill="#a5562b" opacity="1.00" d=" M 340.02 9.03 C 348.06 8.86 356.11 8.92 364.15 8.98 C 364.14 9.68 364.13 11.09 364.13 11.79 C 363.72 11.80 362.89 11.83 362.48 11.84 L 361.36 11.88 C 358.29 11.92 355.22 11.85 352.15 11.72 C 351.93 12.48 351.92 13.27 352.13 14.09 C 353.59 17.10 355.01 20.17 355.51 23.52 C 353.89 21.12 352.46 18.60 351.22 15.98 C 350.53 18.09 349.84 20.19 349.12 22.28 C 349.41 19.19 350.47 16.25 351.49 13.34 C 351.09 12.55 350.48 12.03 349.65 11.76 C 346.50 11.80 343.36 11.95 340.21 11.82 C 340.16 11.12 340.07 9.72 340.02 9.03 Z" />
<path fill="#a5562b" opacity="1.00" d=" M 274.05 18.33 C 282.31 16.24 290.99 16.24 299.30 18.12 C 298.98 19.02 298.34 20.82 298.02 21.72 C 297.16 21.43 296.31 21.13 295.47 20.82 C 294.84 20.58 293.59 20.10 292.97 19.87 C 294.18 16.87 289.44 17.45 292.22 19.78 C 288.48 19.37 284.70 19.27 280.95 19.60 C 282.28 17.49 278.45 17.88 280.10 19.71 C 279.42 20.00 278.06 20.58 277.38 20.86 C 277.12 20.98 276.60 21.21 276.35 21.32 C 275.92 20.76 275.07 19.64 274.64 19.08 L 274.05 18.33 Z" />
<path fill="#a5562b" opacity="1.00" d=" M 300.02 21.68 C 305.36 21.54 310.70 21.56 316.05 21.66 C 316.05 22.40 316.05 23.86 316.05 24.59 C 310.70 24.54 305.36 24.55 300.02 24.59 C 300.02 23.86 300.02 22.40 300.02 21.68 Z" />
<path fill="#a5562b" opacity="1.00" d=" M 251.45 23.45 C 254.87 23.38 258.29 23.38 261.72 23.44 C 261.71 24.16 261.69 25.61 261.68 26.34 C 258.32 26.31 254.96 26.34 251.61 26.27 C 251.57 25.57 251.49 24.15 251.45 23.45 Z" />
<path fill="#a5562b" opacity="1.00" d=" M 164.76 32.01 C 165.63 32.01 167.37 32.01 168.24 32.01 C 168.24 32.76 168.25 34.25 168.26 35.00 C 167.40 35.00 165.68 35.00 164.82 35.00 C 164.80 34.25 164.77 32.76 164.76 32.01 Z" />
<path fill="#a5562b" opacity="1.00" d=" M 180.69 32.00 C 185.39 32.00 190.09 32.00 194.80 32.01 C 194.78 32.76 194.73 34.25 194.71 35.00 C 190.04 35.00 185.36 35.00 180.69 35.00 C 180.69 34.25 180.69 32.75 180.69 32.00 Z" />
<path fill="#a5562b" opacity="1.00" d=" M 357.26 37.44 C 360.16 35.50 363.72 35.46 367.06 35.04 C 366.72 36.10 366.38 37.16 366.05 38.22 C 363.17 38.36 359.52 39.90 357.26 37.44 Z" />
</g>
<g id="#a6562cff">
<path fill="#a6562c" opacity="1.00" d=" M 82.99 18.36 C 82.11 7.97 99.36 6.41 99.90 16.93 C 96.20 11.01 86.89 11.42 83.62 17.56 L 82.99 18.36 Z" />
</g>
<g id="#a4572dff">
<path fill="#a4572d" opacity="1.00" d=" M 112.98 9.95 C 115.35 9.99 117.73 10.04 120.11 10.10 C 120.67 11.35 121.23 12.61 121.83 13.85 C 118.95 13.10 115.98 12.88 113.02 12.89 C 113.01 12.16 112.99 10.69 112.98 9.95 Z" />
<path fill="#a4572d" opacity="1.00" d=" M 223.51 32.23 L 223.71 32.21 C 224.54 32.13 226.20 31.98 227.03 31.90 C 227.03 32.69 227.02 34.26 227.02 35.04 C 225.88 35.01 224.76 34.98 223.63 34.95 C 223.60 34.27 223.54 32.91 223.51 32.23 Z" />
<path fill="#a4572d" opacity="1.00" d=" M 269.30 36.23 L 269.53 36.21 C 270.13 36.14 271.34 36.01 271.94 35.95 C 271.91 36.72 271.87 38.28 271.84 39.05 C 271.24 39.02 270.03 38.95 269.43 38.92 C 269.40 38.25 269.33 36.90 269.30 36.23 Z" />
<path fill="#a4572d" opacity="1.00" d=" M 337.49 36.52 L 337.80 36.44 C 338.45 36.27 339.75 35.92 340.40 35.74 C 340.38 36.56 340.34 38.18 340.31 39.00 C 339.66 38.94 338.35 38.82 337.70 38.76 C 337.65 38.20 337.54 37.08 337.49 36.52 Z" />
</g>
<g id="#a6562bff">
<path fill="#a6562b" opacity="1.00" d=" M 135.98 9.88 C 140.86 9.90 148.72 9.75 149.21 16.30 C 145.52 13.17 140.66 12.77 136.03 12.93 C 136.02 12.17 135.99 10.64 135.98 9.88 Z" />
</g>
<g id="#a46746ff">
<path fill="#a46746" opacity="1.00" d=" M 318.24 18.80 C 321.46 14.65 326.06 11.97 330.60 9.51 C 329.95 14.41 323.67 15.84 320.32 18.93 C 319.80 18.89 318.76 18.83 318.24 18.80 Z" />
</g>
<g id="#888576ff">
<path fill="#888576" opacity="1.00" d=" M 279.56 11.97 C 280.03 11.96 280.96 11.93 281.43 11.92 L 281.07 12.68 C 280.69 12.50 279.94 12.15 279.56 11.97 Z" />
</g>
<g id="#b4683aff">
<path fill="#b4683a" opacity="1.00" d=" M 283.62 14.78 C 280.58 14.60 284.07 11.70 285.19 11.03 C 285.96 12.30 284.59 13.98 283.62 14.78 Z" />
</g>
<g id="#d2703bff">
<path fill="#d2703b" opacity="1.00" d=" M 287.76 11.10 C 289.31 11.44 292.61 14.60 289.35 14.76 C 288.28 14.09 286.90 12.33 287.76 11.10 Z" />
</g>
<g id="#8e8678ff">
<path fill="#8e8678" opacity="1.00" d=" M 203.73 22.52 C 204.72 18.89 206.07 15.37 207.62 11.94 C 207.94 13.24 208.26 14.55 208.55 15.86 C 205.93 16.93 205.54 20.01 204.47 22.30 C 206.24 22.23 208.02 22.15 209.79 21.98 C 209.98 21.62 210.36 20.90 210.54 20.53 C 210.79 21.28 211.03 22.02 211.28 22.77 C 208.76 22.71 206.24 22.62 203.73 22.52 Z" />
</g>
<g id="#9d623fff">
<path fill="#9d623f" opacity="1.00" d=" M 294.31 14.02 C 295.50 13.13 296.70 12.25 297.83 11.29 C 298.18 12.87 297.72 14.40 297.06 15.82 C 296.15 15.21 295.23 14.61 294.31 14.02 Z" />
</g>
<g id="#01a8f2ff">
<path fill="#01a8f2" opacity="1.00" d=" M 352.13 14.09 C 351.92 13.27 351.93 12.48 352.15 11.72 C 355.22 11.85 358.29 11.92 361.36 11.88 C 360.06 14.25 358.95 16.71 357.82 19.16 C 356.20 17.17 355.30 13.65 352.13 14.09 Z" />
<path fill="#01a8f2" opacity="1.00" d=" M 362.48 11.84 C 362.89 11.83 363.72 11.80 364.13 11.79 C 364.13 18.93 364.37 26.07 364.36 33.22 C 363.83 33.23 362.77 33.27 362.23 33.29 C 362.88 32.23 363.54 31.17 364.20 30.11 C 362.95 27.51 361.51 25.02 359.96 22.59 C 361.23 19.13 364.16 15.66 362.48 11.84 Z" />
<path fill="#01a8f2" opacity="1.00" d=" M 351.22 15.98 C 352.46 18.60 353.89 21.12 355.51 23.52 C 354.43 24.99 353.38 26.48 352.34 27.98 L 352.20 27.52 C 351.40 25.64 350.27 23.94 349.12 22.28 C 349.84 20.19 350.53 18.09 351.22 15.98 Z" />
<path fill="#01a8f2" opacity="1.00" d=" M 292.22 19.78 C 289.44 17.45 294.18 16.87 292.97 19.87 L 292.22 19.78 Z" />
<path fill="#01a8f2" opacity="1.00" d=" M 280.15 24.49 C 284.38 24.53 288.61 24.53 292.84 24.49 C 289.91 25.62 283.16 25.57 280.15 24.49 Z" />
</g>
<g id="#a6572bff">
<path fill="#a6572b" opacity="1.00" d=" M 264.83 13.14 C 266.24 13.23 267.66 13.32 269.07 13.41 C 268.80 14.44 268.54 15.48 268.25 16.50 C 267.46 16.46 265.87 16.38 265.08 16.34 C 265.00 15.27 264.92 14.21 264.83 13.14 Z" />
<path fill="#a6572b" opacity="1.00" d=" M 319.09 21.66 C 324.19 21.55 329.30 21.56 334.41 21.65 C 333.39 27.52 323.95 23.34 319.17 24.50 C 319.15 23.79 319.11 22.37 319.09 21.66 Z" />
</g>
<g id="#ae5d2dff">
<path fill="#ae5d2d" opacity="1.00" d=" M 271.73 13.32 C 272.66 13.23 274.51 13.03 275.44 12.94 C 275.38 13.84 275.26 15.64 275.21 16.54 C 274.42 16.46 272.85 16.31 272.07 16.24 C 271.99 15.51 271.82 14.05 271.73 13.32 Z" />
</g>
<g id="#c2754dff">
<path fill="#c2754d" opacity="1.00" d=" M 340.74 14.37 C 342.71 16.82 344.97 19.43 344.59 22.81 C 343.01 20.17 340.53 17.67 340.74 14.37 Z" />
</g>
<g id="#a7572cff">
<path fill="#a7572c" opacity="1.00" d=" M 104.20 17.97 C 104.44 22.05 104.59 26.51 102.19 30.05 C 97.20 37.90 83.24 36.88 79.87 27.98 C 84.08 30.61 88.82 33.22 93.98 32.10 C 100.73 31.37 105.09 24.46 104.20 17.97 Z" />
</g>
<g id="#788883ff">
<path fill="#788883" opacity="1.00" d=" M 280.10 19.71 C 278.45 17.88 282.28 17.49 280.95 19.60 L 280.10 19.71 Z" />
</g>
<g id="#b8653aff">
<path fill="#b8653a" opacity="1.00" d=" M 272.07 20.48 C 273.66 20.99 275.25 21.50 276.84 21.99 C 276.22 23.29 275.60 24.59 274.99 25.90 C 273.98 24.74 272.98 23.59 271.97 22.43 C 272.00 21.78 272.04 21.13 272.07 20.48 Z" />
</g>
<g id="#d67936ff">
<path fill="#d67936" opacity="1.00" d=" M 277.38 20.86 C 278.06 20.58 279.42 20.00 280.10 19.71 L 280.95 19.60 C 284.70 19.27 288.48 19.37 292.22 19.78 L 292.97 19.87 C 293.59 20.10 294.84 20.58 295.47 20.82 C 295.46 23.06 295.48 25.31 295.60 27.55 C 289.60 26.67 283.43 26.68 277.43 27.54 C 277.49 25.31 277.45 23.09 277.38 20.86 M 280.15 24.49 C 283.16 25.57 289.91 25.62 292.84 24.49 C 288.61 24.53 284.38 24.53 280.15 24.49 Z" />
</g>
<g id="#a7572bff">
<path fill="#a7572b" opacity="1.00" d=" M 113.26 20.75 C 119.41 21.64 121.75 27.87 125.00 32.30 C 126.16 32.03 127.32 31.76 128.48 31.49 L 128.88 31.40 C 128.91 32.59 128.95 33.78 128.99 34.97 C 127.64 34.98 126.28 35.00 124.93 35.01 C 121.67 30.82 119.78 23.28 113.04 24.43 C 113.10 23.21 113.18 21.98 113.26 20.75 Z" />
</g>
<g id="#92cf50ff">
<path fill="#92cf50" opacity="1.00" d=" M 26.76 30.49 C 32.52 18.66 52.43 18.71 57.63 30.97 C 47.73 27.16 36.77 26.96 26.76 30.49 Z" />
</g>
<g id="#a4562bff">
<path fill="#a4562b" opacity="1.00" d=" M 132.45 32.05 C 140.63 32.76 150.71 31.61 154.20 22.87 C 153.88 33.84 141.19 36.24 132.48 34.98 C 132.47 34.25 132.46 32.78 132.45 32.05 Z" />
</g>
<g id="#b05d30ff">
<path fill="#b05d30" opacity="1.00" d=" M 341.01 30.91 C 343.22 28.90 345.12 26.60 346.81 24.15 C 347.63 25.25 348.53 26.28 349.33 27.39 C 350.29 27.42 351.24 27.46 352.20 27.52 L 352.34 27.98 C 352.51 28.73 352.87 30.23 353.05 30.98 C 354.62 28.81 356.15 26.61 357.60 24.35 C 359.10 26.99 360.97 29.57 364.20 30.11 C 363.54 31.17 362.88 32.23 362.23 33.29 L 361.49 33.28 C 360.08 31.27 358.92 29.09 357.66 26.98 C 356.14 29.33 354.60 31.67 353.03 33.99 C 350.59 31.75 348.21 29.38 346.72 26.37 C 345.47 28.51 344.14 30.60 342.73 32.64 C 342.18 32.72 341.09 32.89 340.54 32.98 C 340.55 31.25 340.55 29.52 340.52 27.80 L 340.68 28.84 C 340.76 29.36 340.93 30.39 341.01 30.91 Z" />
</g>
<g id="#a9592cff">
<path fill="#a9592c" opacity="1.00" d=" M 202.29 25.10 C 205.83 25.07 209.38 25.07 212.92 25.07 C 213.82 27.51 214.75 29.94 215.70 32.37 C 216.98 32.06 218.25 31.75 219.53 31.45 L 219.86 31.37 C 219.83 32.57 219.79 33.77 219.77 34.98 C 218.52 34.99 217.28 35.00 216.05 35.01 C 215.09 32.88 214.31 30.69 213.34 28.57 C 209.72 27.63 205.77 28.44 202.03 28.20 C 201.24 30.43 200.45 32.67 199.67 34.91 C 198.38 34.95 197.09 34.99 195.80 35.04 C 195.77 34.36 195.71 33.01 195.68 32.33 C 197.03 32.05 198.38 31.77 199.74 31.51 C 200.67 29.41 201.54 27.28 202.29 25.10 Z" />
</g>
<g id="#ab5a2cff">
<path fill="#ab5a2c" opacity="1.00" d=" M 277.43 27.54 C 283.43 26.68 289.60 26.67 295.60 27.55 C 296.13 30.10 294.10 31.47 292.28 32.71 C 292.05 32.77 291.58 32.88 291.34 32.94 C 291.72 31.72 292.03 30.49 292.45 29.28 C 292.01 28.61 291.47 28.05 290.81 27.60 C 290.51 28.22 289.90 29.47 289.59 30.10 C 287.69 30.17 285.80 30.24 283.91 30.28 C 283.51 29.60 282.70 28.22 282.30 27.53 C 281.58 28.00 280.99 28.59 280.52 29.30 C 280.93 30.49 281.24 31.71 281.63 32.91 C 281.39 32.86 280.90 32.76 280.65 32.72 C 278.79 31.50 276.78 30.11 277.43 27.54 Z" />
</g>
<g id="#ff832bff">
<path fill="#ff832b" opacity="1.00" d=" M 26.76 30.49 C 36.77 26.96 47.73 27.16 57.63 30.97 C 58.42 31.77 59.23 32.57 60.04 33.36 C 75.30 43.59 80.50 65.81 70.04 81.26 C 65.26 88.35 57.79 93.68 49.38 95.49 C 54.10 92.94 59.17 90.84 63.27 87.30 C 73.32 78.82 76.94 63.87 72.59 51.57 C 68.57 39.38 56.80 30.36 44.05 29.33 C 29.05 28.05 13.81 38.65 10.25 53.37 C 8.68 58.98 8.96 64.85 9.34 70.60 C 4.71 56.00 12.65 40.13 25.05 31.80 C 25.48 31.47 26.34 30.82 26.76 30.49 Z" />
<path fill="#ff832b" opacity="1.00" d=" M 31.69 79.60 C 32.56 77.54 33.99 75.82 35.80 74.52 C 36.38 76.39 36.92 78.27 37.44 80.16 C 35.52 79.99 33.60 79.80 31.69 79.60 Z" />
</g>
<g id="#fb943fff">
<path fill="#fb943f" opacity="1.00" d=" M 280.52 29.30 C 280.99 28.59 281.58 28.00 282.30 27.53 C 282.70 28.22 283.51 29.60 283.91 30.28 C 284.30 30.98 285.07 32.36 285.46 33.05 C 286.42 32.85 287.38 32.65 288.36 32.46 C 288.76 31.67 289.17 30.88 289.59 30.10 C 289.90 29.47 290.51 28.22 290.81 27.60 C 291.47 28.05 292.01 28.61 292.45 29.28 C 292.03 30.49 291.72 31.72 291.34 32.94 C 291.58 32.88 292.05 32.77 292.28 32.71 C 294.46 33.24 299.02 31.37 298.71 34.94 C 290.63 35.07 282.55 34.99 274.47 35.01 C 274.10 31.43 278.47 33.19 280.65 32.72 C 280.90 32.76 281.39 32.86 281.63 32.91 C 281.24 31.71 280.93 30.49 280.52 29.30 Z" />
</g>
<g id="#ffc000ff">
<path fill="#ffc000" opacity="1.00" d=" M 10.25 53.37 C 13.81 38.65 29.05 28.05 44.05 29.33 C 56.80 30.36 68.57 39.38 72.59 51.57 C 76.94 63.87 73.32 78.82 63.27 87.30 C 59.17 90.84 54.10 92.94 49.38 95.49 C 32.44 100.21 12.06 88.31 9.34 70.60 C 8.96 64.85 8.68 58.98 10.25 53.37 M 38.66 41.55 C 39.23 41.86 40.38 42.49 40.95 42.81 C 41.71 42.80 43.24 42.78 44.00 42.78 C 44.08 42.05 44.25 40.60 44.33 39.87 L 45.11 40.13 C 44.33 39.09 43.56 38.04 42.79 37.00 C 41.16 38.27 39.74 39.79 38.66 41.55 M 25.23 41.27 C 24.71 42.88 24.21 44.50 23.71 46.12 C 25.48 46.13 27.25 46.13 29.02 46.12 C 28.82 44.62 28.62 43.11 28.41 41.60 C 27.35 41.49 26.29 41.38 25.23 41.27 M 54.51 47.41 C 56.27 47.61 58.03 47.76 59.80 47.91 C 59.94 46.90 60.24 44.87 60.39 43.86 C 57.63 40.46 54.46 44.16 54.51 47.41 M 28.97 61.59 L 29.43 60.60 C 30.84 60.72 32.24 60.84 33.65 60.97 C 33.78 60.18 34.04 58.62 34.18 57.84 C 31.52 53.64 27.36 57.77 28.97 61.59 M 44.98 59.08 C 45.36 60.25 45.75 61.43 46.15 62.60 L 46.51 61.67 C 47.41 61.79 49.20 62.02 50.09 62.14 C 50.26 61.27 50.60 59.52 50.78 58.65 C 49.89 58.04 49.02 57.43 48.15 56.81 C 47.10 57.59 46.03 58.32 44.98 59.08 M 55.89 61.17 C 56.20 62.34 56.51 63.51 56.83 64.68 C 58.13 64.70 59.44 64.71 60.75 64.73 C 60.93 64.07 61.28 62.74 61.46 62.08 C 60.91 60.98 60.36 59.87 59.81 58.77 C 58.50 59.57 57.20 60.37 55.89 61.17 M 21.24 62.49 C 20.39 64.21 19.56 65.95 18.76 67.70 C 20.62 67.83 22.48 67.95 24.35 68.06 C 24.10 65.79 23.31 63.68 21.24 62.49 M 42.61 72.88 C 43.17 72.90 44.29 72.92 44.85 72.94 C 45.60 72.94 47.11 72.95 47.86 72.95 C 48.00 72.18 48.27 70.64 48.41 69.87 C 46.11 65.75 42.22 69.38 42.61 72.88 M 31.69 79.60 C 33.60 79.80 35.52 79.99 37.44 80.16 C 36.92 78.27 36.38 76.39 35.80 74.52 C 33.99 75.82 32.56 77.54 31.69 79.60 M 50.74 79.65 C 50.44 81.03 50.09 82.40 49.76 83.78 C 50.31 83.80 51.40 83.84 51.94 83.86 C 52.67 83.88 54.11 83.92 54.84 83.94 C 55.04 83.13 55.44 81.50 55.64 80.69 C 54.40 79.01 52.53 78.32 50.74 79.65 Z" />
</g>
<g id="#a3562cff">
<path fill="#a3562c" opacity="1.00" d=" M 308.27 38.12 C 310.97 35.06 315.62 35.97 319.18 34.60 C 318.77 39.86 311.85 39.89 308.27 38.12 Z" />
</g>
<g id="#ffb546ff">
<path fill="#ffb546" opacity="1.00" d=" M 38.66 41.55 C 39.74 39.79 41.16 38.27 42.79 37.00 C 43.56 38.04 44.33 39.09 45.11 40.13 L 44.33 39.87 C 43.66 39.64 42.32 39.18 41.65 38.96 C 41.42 40.24 41.18 41.52 40.95 42.81 C 40.38 42.49 39.23 41.86 38.66 41.55 Z" />
</g>
<g id="#ff8b28ff">
<path fill="#ff8b28" opacity="1.00" d=" M 41.65 38.96 C 42.32 39.18 43.66 39.64 44.33 39.87 C 44.25 40.60 44.08 42.05 44.00 42.78 C 43.24 42.78 41.71 42.80 40.95 42.81 C 41.18 41.52 41.42 40.24 41.65 38.96 Z" />
</g>
<g id="#ff8931ff">
<path fill="#ff8931" opacity="1.00" d=" M 25.23 41.27 C 26.29 41.38 27.35 41.49 28.41 41.60 C 28.62 43.11 28.82 44.62 29.02 46.12 C 27.25 46.13 25.48 46.13 23.71 46.12 C 24.21 44.50 24.71 42.88 25.23 41.27 Z" />
</g>
<g id="#ffb547ff">
<path fill="#ffb547" opacity="1.00" d=" M 54.51 47.41 C 54.46 44.16 57.63 40.46 60.39 43.86 C 58.20 44.63 56.26 45.90 54.51 47.41 Z" />
</g>
<g id="#c4ff0eff">
<path fill="#c4ff0e" opacity="1.00" d=" M 81.12 43.65 C 82.70 43.22 84.31 42.80 85.97 42.87 C 180.15 42.94 274.33 42.48 368.51 42.67 C 368.44 43.39 368.29 44.83 368.22 45.54 C 272.77 45.54 177.32 46.07 81.89 45.72 C 81.63 45.03 81.37 44.34 81.12 43.65 Z" />
</g>
<g id="#ff9527ff">
<path fill="#ff9527" opacity="1.00" d=" M 54.51 47.41 C 56.26 45.90 58.20 44.63 60.39 43.86 C 60.24 44.87 59.94 46.90 59.80 47.91 C 58.03 47.76 56.27 47.61 54.51 47.41 Z" />
</g>
<g id="#fcc832ff">
<path fill="#fcc832" opacity="1.00" d=" M 150.30 53.60 C 154.15 51.69 158.02 49.33 162.52 50.17 C 164.15 52.87 165.70 55.61 167.18 58.40 C 165.41 59.17 163.65 59.96 161.90 60.78 C 167.87 61.24 173.87 60.96 179.85 61.04 C 179.87 63.56 179.89 66.09 179.91 68.61 C 175.10 68.67 170.29 68.57 165.48 68.62 C 163.92 68.66 162.36 68.71 160.80 68.76 C 160.81 72.14 160.82 75.51 160.83 78.88 C 162.39 78.85 163.96 78.83 165.53 78.82 C 169.41 78.82 173.28 78.90 177.16 78.91 C 177.16 81.38 177.16 83.85 177.16 86.32 C 173.28 86.29 169.39 86.34 165.51 86.29 C 163.95 86.27 162.40 86.24 160.84 86.21 C 160.83 89.76 160.82 93.31 160.81 96.86 C 162.38 96.85 163.96 96.85 165.54 96.85 C 171.31 96.91 177.08 96.89 182.86 96.88 C 182.85 99.46 182.84 102.04 182.83 104.62 C 165.48 104.66 148.12 104.48 130.76 104.49 C 130.69 101.94 130.67 99.39 130.69 96.84 C 138.01 96.70 145.34 96.75 152.66 96.87 C 152.61 93.33 152.63 89.80 152.62 86.26 C 147.18 86.25 141.75 86.24 136.31 86.26 C 136.31 83.78 136.31 81.30 136.32 78.82 C 141.76 78.83 147.21 78.79 152.66 78.85 C 152.61 75.42 152.62 71.99 152.62 68.57 C 146.33 68.55 140.05 68.57 133.76 68.55 C 133.75 66.05 133.74 63.54 133.74 61.04 C 140.59 61.03 147.44 61.04 154.29 61.03 C 153.03 58.51 151.68 56.05 150.30 53.60 Z" />
</g>
<g id="#fcc831ff">
<path fill="#fcc831" opacity="1.00" d=" M 218.31 52.97 C 235.44 52.95 252.56 52.81 269.69 52.89 C 269.69 54.97 269.70 57.05 269.71 59.14 C 271.25 59.33 272.79 59.53 274.33 59.73 C 266.90 59.86 259.46 59.76 252.03 59.85 C 250.40 59.89 248.76 59.94 247.13 59.99 C 246.36 61.96 245.59 63.93 244.82 65.90 C 246.33 65.90 247.83 65.90 249.34 65.90 C 254.57 65.88 259.79 65.87 265.02 65.90 C 264.98 74.78 265.00 83.67 265.01 92.56 C 263.22 92.56 261.44 92.63 259.66 92.55 C 259.15 92.33 258.12 91.90 257.61 91.68 C 257.51 85.41 257.59 79.14 257.56 72.86 C 250.11 72.75 242.67 72.84 235.22 72.79 C 233.71 72.82 232.21 72.85 230.71 72.90 C 230.54 79.53 230.53 86.17 230.71 92.80 C 228.14 92.81 225.58 92.81 223.03 92.79 C 223.05 83.82 223.03 74.84 223.04 65.87 C 227.51 65.87 231.99 65.90 236.47 65.85 C 237.20 63.83 237.89 61.80 238.56 59.76 C 231.81 59.73 225.06 59.77 218.31 59.73 C 218.31 57.48 218.31 55.22 218.31 52.97 Z" />
<path fill="#fcc831" opacity="1.00" d=" M 240.60 75.99 C 243.16 75.93 245.73 75.89 248.30 75.89 C 248.07 80.25 247.61 84.60 246.84 88.90 L 247.64 88.98 C 255.00 93.16 262.81 96.46 270.41 100.17 C 269.04 102.58 267.71 105.01 266.40 107.45 C 260.01 103.92 253.73 100.20 247.20 96.95 C 246.15 96.43 245.11 95.92 244.07 95.40 C 238.73 102.04 230.72 105.56 222.56 107.26 C 220.98 104.35 219.16 101.59 217.28 98.88 C 223.62 97.86 230.69 97.18 235.61 92.60 C 240.07 88.37 240.45 81.76 240.60 75.99 Z" />
</g>
<g id="#c5a738ff">
<path fill="#c5a738" opacity="1.00" d=" M 269.69 52.89 C 271.23 52.91 272.76 52.94 274.31 52.96 C 274.31 55.22 274.31 57.47 274.33 59.73 C 272.79 59.53 271.25 59.33 269.71 59.14 C 269.70 57.05 269.69 54.97 269.69 52.89 Z" />
<path fill="#c5a738" opacity="1.00" d=" M 265.02 65.90 C 266.59 65.92 268.17 65.94 269.75 65.97 C 269.75 74.80 269.74 83.64 269.76 92.48 C 268.17 92.51 266.59 92.53 265.01 92.56 C 265.00 83.67 264.98 74.78 265.02 65.90 Z" />
</g>
<g id="#ffb851ff">
<path fill="#ffb851" opacity="1.00" d=" M 28.97 61.59 C 27.36 57.77 31.52 53.64 34.18 57.84 C 33.12 57.60 32.06 57.37 31.00 57.13 C 30.48 58.29 29.96 59.45 29.43 60.60 L 28.97 61.59 Z" />
</g>
<g id="#ff9229ff">
<path fill="#ff9229" opacity="1.00" d=" M 31.00 57.13 C 32.06 57.37 33.12 57.60 34.18 57.84 C 34.04 58.62 33.78 60.18 33.65 60.97 C 32.24 60.84 30.84 60.72 29.43 60.60 C 29.96 59.45 30.48 58.29 31.00 57.13 Z" />
</g>
<g id="#ffb948ff">
<path fill="#ffb948" opacity="1.00" d=" M 44.98 59.08 C 46.03 58.32 47.10 57.59 48.15 56.81 C 49.02 57.43 49.89 58.04 50.78 58.65 C 50.05 58.52 48.61 58.25 47.88 58.12 C 47.43 59.30 46.97 60.49 46.51 61.67 L 46.15 62.60 C 45.75 61.43 45.36 60.25 44.98 59.08 Z" />
</g>
<g id="#ff892eff">
<path fill="#ff892e" opacity="1.00" d=" M 47.88 58.12 C 48.61 58.25 50.05 58.52 50.78 58.65 C 50.60 59.52 50.26 61.27 50.09 62.14 C 49.20 62.02 47.41 61.79 46.51 61.67 C 46.97 60.49 47.43 59.30 47.88 58.12 Z" />
</g>
<g id="#ffb647ff">
<path fill="#ffb647" opacity="1.00" d=" M 55.89 61.17 C 57.20 60.37 58.50 59.57 59.81 58.77 C 60.36 59.87 60.91 60.98 61.46 62.08 C 60.79 61.72 59.43 60.99 58.76 60.63 C 58.11 61.98 57.47 63.33 56.83 64.68 C 56.51 63.51 56.20 62.34 55.89 61.17 Z" />
</g>
<g id="#a98a32ff">
<path fill="#a98a32" opacity="1.00" d=" M 247.13 59.99 C 248.76 59.94 250.40 59.89 252.03 59.85 C 251.18 61.88 250.29 63.90 249.34 65.90 C 247.83 65.90 246.33 65.90 244.82 65.90 C 245.59 63.93 246.36 61.96 247.13 59.99 Z" />
</g>
<g id="#ff9127ff">
<path fill="#ff9127" opacity="1.00" d=" M 56.83 64.68 C 57.47 63.33 58.11 61.98 58.76 60.63 C 59.43 60.99 60.79 61.72 61.46 62.08 C 61.28 62.74 60.93 64.07 60.75 64.73 C 59.44 64.71 58.13 64.70 56.83 64.68 Z" />
</g>
<g id="#c5a737ff">
<path fill="#c5a737" opacity="1.00" d=" M 179.85 61.04 C 181.47 61.04 183.09 61.03 184.72 61.02 C 184.74 63.53 184.75 66.04 184.75 68.55 C 183.14 68.57 181.53 68.59 179.91 68.61 C 179.89 66.09 179.87 63.56 179.85 61.04 Z" />
<path fill="#c5a737" opacity="1.00" d=" M 160.80 68.76 C 162.36 68.71 163.92 68.66 165.48 68.62 C 165.59 72.02 165.58 75.42 165.53 78.82 C 163.96 78.83 162.39 78.85 160.83 78.88 C 160.82 75.51 160.81 72.14 160.80 68.76 Z" />
<path fill="#c5a737" opacity="1.00" d=" M 230.71 72.90 C 232.21 72.85 233.71 72.82 235.22 72.79 C 235.27 79.43 235.27 86.07 235.22 92.71 C 233.71 92.74 232.21 92.77 230.71 92.80 C 230.53 86.17 230.54 79.53 230.71 72.90 Z" />
<path fill="#c5a737" opacity="1.00" d=" M 160.84 86.21 C 162.40 86.24 163.95 86.27 165.51 86.29 C 165.58 89.81 165.58 93.33 165.54 96.85 C 163.96 96.85 162.38 96.85 160.81 96.86 C 160.82 93.31 160.83 89.76 160.84 86.21 Z" />
<path fill="#c5a737" opacity="1.00" d=" M 182.86 96.88 C 184.42 96.92 185.99 96.95 187.55 96.99 C 187.56 99.51 187.56 102.03 187.56 104.55 C 185.98 104.57 184.41 104.60 182.83 104.62 C 182.84 102.04 182.85 99.46 182.86 96.88 Z" />
</g>
<g id="#ff852cff">
<path fill="#ff852c" opacity="1.00" d=" M 21.24 62.49 C 23.31 63.68 24.10 65.79 24.35 68.06 C 22.48 67.95 20.62 67.83 18.76 67.70 C 19.56 65.95 20.39 64.21 21.24 62.49 Z" />
</g>
<g id="#ffb549ff">
<path fill="#ffb549" opacity="1.00" d=" M 42.61 72.88 C 42.22 69.38 46.11 65.75 48.41 69.87 C 47.19 69.64 45.98 69.41 44.77 69.17 C 44.80 70.43 44.82 71.68 44.85 72.94 C 44.29 72.92 43.17 72.90 42.61 72.88 Z" />
</g>
<g id="#ff8c2eff">
<path fill="#ff8c2e" opacity="1.00" d=" M 44.77 69.17 C 45.98 69.41 47.19 69.64 48.41 69.87 C 48.27 70.64 48.00 72.18 47.86 72.95 C 47.11 72.95 45.60 72.94 44.85 72.94 C 44.82 71.68 44.80 70.43 44.77 69.17 Z" />
</g>
<g id="#ba9d35ff">
<path fill="#ba9d35" opacity="1.00" d=" M 248.30 75.89 C 249.83 75.92 251.37 75.95 252.91 75.97 C 252.91 80.38 252.44 84.78 251.59 89.11 C 250.27 89.05 248.96 89.01 247.64 88.98 L 246.84 88.90 C 247.61 84.60 248.07 80.25 248.30 75.89 Z" />
</g>
<g id="#ffbb44ff">
<path fill="#ffbb44" opacity="1.00" d=" M 50.74 79.65 C 52.53 78.32 54.40 79.01 55.64 80.69 C 54.40 80.49 53.16 80.29 51.92 80.09 C 51.93 81.35 51.94 82.60 51.94 83.86 C 51.40 83.84 50.31 83.80 49.76 83.78 C 50.09 82.40 50.44 81.03 50.74 79.65 Z" />
</g>
<g id="#c7a837ff">
<path fill="#c7a837" opacity="1.00" d=" M 177.16 78.91 C 178.84 78.92 180.53 78.93 182.23 78.94 C 182.24 81.38 182.25 83.82 182.24 86.26 C 180.54 86.28 178.85 86.31 177.16 86.32 C 177.16 83.85 177.16 81.38 177.16 78.91 Z" />
</g>
<g id="#ff8a2dff">
<path fill="#ff8a2d" opacity="1.00" d=" M 51.92 80.09 C 53.16 80.29 54.40 80.49 55.64 80.69 C 55.44 81.50 55.04 83.13 54.84 83.94 C 54.11 83.92 52.67 83.88 51.94 83.86 C 51.94 82.60 51.93 81.35 51.92 80.09 Z" />
</g>
<g id="#ebef60ff">
<path fill="#ebef60" opacity="1.00" d=" M 247.64 88.98 C 248.96 89.01 250.27 89.05 251.59 89.11 C 253.68 89.76 255.60 90.84 257.61 91.68 C 258.12 91.90 259.15 92.33 259.66 92.55 C 264.97 95.40 270.80 97.38 275.62 101.09 L 274.63 100.93 C 273.21 100.70 271.80 100.47 270.41 100.17 C 262.81 96.46 255.00 93.16 247.64 88.98 Z" />
</g>
<g id="#a78638ff">
<path fill="#a78638" opacity="1.00" d=" M 222.56 107.26 C 230.72 105.56 238.73 102.04 244.07 95.40 C 245.11 95.92 246.15 96.43 247.20 96.95 C 240.91 103.94 231.17 107.07 221.97 107.41 L 222.56 107.26 Z" />
</g>
<g id="#a78734ff">
<path fill="#a78734" opacity="1.00" d=" M 270.41 100.17 C 271.80 100.47 273.21 100.70 274.63 100.93 C 273.40 103.05 272.19 105.17 270.98 107.29 C 269.45 107.34 267.92 107.39 266.40 107.45 C 267.71 105.01 269.04 102.58 270.41 100.17 Z" />
</g>
</svg>
